<svg width="38" height="38" viewBox="0 0 38 38" fill="none" xmlns="http://www.w3.org/2000/svg">
<path d="M13.6668 29C13.2168 29 12.8264 28.8423 12.4958 28.5268C12.1653 28.2111 12 27.8386 12 27.409V9.59099C12 9.16144 12.1653 8.78885 12.4958 8.47322C12.8264 8.15774 13.2168 8 13.6668 8H24.3333C24.7833 8 25.1736 8.15774 25.5042 8.47322C25.8348 8.78885 26 9.16144 26 9.59099V27.409C26 27.8386 25.8348 28.2111 25.5042 28.5268C25.1736 28.8423 24.7833 29 24.3333 29H13.6668ZM13.6668 25.0226V27.409H24.3333V25.0226H13.6668ZM19.003 27.0114C19.2398 27.0114 19.4374 26.9349 19.5957 26.7819C19.7541 26.6288 19.8333 26.4393 19.8333 26.2132C19.8333 25.987 19.7532 25.7983 19.593 25.6472C19.4327 25.496 19.234 25.4205 18.997 25.4205C18.7602 25.4205 18.5626 25.497 18.4043 25.65C18.2459 25.8029 18.1668 25.9925 18.1668 26.2187C18.1668 26.4449 18.2468 26.6336 18.407 26.7847C18.5673 26.9359 18.766 27.0114 19.003 27.0114ZM13.6668 23.4319H24.3333V11.9774H13.6668V23.4319ZM13.6668 10.3864H24.3333V9.59099H13.6668V10.3864Z" fill="#3C5A94"/>
<line x1="6.86146" y1="6.48786" x2="33.8292" y2="31.004" stroke="#3C5A94" stroke-width="4"/>
<circle cx="19" cy="19" r="17" stroke="#3C5A94" stroke-width="4"/>
</svg>
