<svg width="146" height="58" viewBox="0 0 146 58" fill="none" xmlns="http://www.w3.org/2000/svg">
<path d="M98.96 42L96.48 46.17V49H95.55V46.16L93.08 42H94.12L96.02 45.28L97.92 42H98.96ZM99.8091 46.9C99.8957 47.3467 100.099 47.6933 100.419 47.94C100.746 48.1867 101.146 48.31 101.619 48.31C102.279 48.31 102.759 48.0667 103.059 47.58L103.799 48C103.312 48.7533 102.579 49.13 101.599 49.13C100.806 49.13 100.159 48.8833 99.6591 48.39C99.1657 47.89 98.9191 47.26 98.9191 46.5C98.9191 45.7467 99.1624 45.12 99.6491 44.62C100.136 44.12 100.766 43.87 101.539 43.87C102.272 43.87 102.869 44.13 103.329 44.65C103.796 45.1633 104.029 45.7833 104.029 46.51C104.029 46.6367 104.019 46.7667 103.999 46.9H99.8091ZM101.539 44.69C101.072 44.69 100.686 44.8233 100.379 45.09C100.072 45.35 99.8824 45.7 99.8091 46.14H103.149C103.076 45.6667 102.889 45.3067 102.589 45.06C102.289 44.8133 101.939 44.69 101.539 44.69ZM109.659 44H110.529V49H109.659V48.14C109.226 48.8 108.596 49.13 107.769 49.13C107.069 49.13 106.473 48.8767 105.979 48.37C105.486 47.8567 105.239 47.2333 105.239 46.5C105.239 45.7667 105.486 45.1467 105.979 44.64C106.473 44.1267 107.069 43.87 107.769 43.87C108.596 43.87 109.226 44.2 109.659 44.86V44ZM107.879 48.29C108.386 48.29 108.809 48.12 109.149 47.78C109.489 47.4333 109.659 47.0067 109.659 46.5C109.659 45.9933 109.489 45.57 109.149 45.23C108.809 44.8833 108.386 44.71 107.879 44.71C107.379 44.71 106.959 44.8833 106.619 45.23C106.279 45.57 106.109 45.9933 106.109 46.5C106.109 47.0067 106.279 47.4333 106.619 47.78C106.959 48.12 107.379 48.29 107.879 48.29ZM113.218 44.84C113.504 44.22 114.024 43.91 114.778 43.91V44.82C114.351 44.8 113.984 44.9133 113.678 45.16C113.371 45.4067 113.218 45.8033 113.218 46.35V49H112.347V44H113.218V44.84ZM116.693 45.35C116.693 45.5433 116.79 45.7 116.983 45.82C117.177 45.9333 117.41 46.0267 117.683 46.1C117.957 46.1667 118.23 46.2467 118.503 46.34C118.777 46.4267 119.01 46.58 119.203 46.8C119.397 47.0133 119.493 47.29 119.493 47.63C119.493 48.0833 119.317 48.4467 118.963 48.72C118.617 48.9933 118.17 49.13 117.623 49.13C117.137 49.13 116.72 49.0233 116.373 48.81C116.027 48.5967 115.78 48.3133 115.633 47.96L116.383 47.53C116.463 47.77 116.613 47.96 116.833 48.1C117.053 48.24 117.317 48.31 117.623 48.31C117.91 48.31 118.147 48.2567 118.333 48.15C118.52 48.0367 118.613 47.8633 118.613 47.63C118.613 47.4367 118.517 47.2833 118.323 47.17C118.13 47.05 117.897 46.9567 117.623 46.89C117.35 46.8167 117.077 46.7333 116.803 46.64C116.53 46.5467 116.297 46.3933 116.103 46.18C115.91 45.9667 115.813 45.6933 115.813 45.36C115.813 44.9267 115.98 44.57 116.313 44.29C116.653 44.01 117.077 43.87 117.583 43.87C117.99 43.87 118.35 43.9633 118.663 44.15C118.983 44.33 119.223 44.5833 119.383 44.91L118.653 45.32C118.473 44.8933 118.117 44.68 117.583 44.68C117.337 44.68 117.127 44.74 116.953 44.86C116.78 44.9733 116.693 45.1367 116.693 45.35ZM129.933 48.07C129.233 48.7767 128.377 49.13 127.363 49.13C126.35 49.13 125.493 48.7767 124.793 48.07C124.093 47.3633 123.743 46.5067 123.743 45.5C123.743 44.4867 124.093 43.63 124.793 42.93C125.493 42.2233 126.35 41.87 127.363 41.87C128.377 41.87 129.233 42.2233 129.933 42.93C130.64 43.63 130.993 44.4867 130.993 45.5C130.993 46.5067 130.64 47.3633 129.933 48.07ZM125.433 47.44C125.953 47.96 126.597 48.22 127.363 48.22C128.13 48.22 128.77 47.96 129.283 47.44C129.803 46.9133 130.063 46.2667 130.063 45.5C130.063 44.7267 129.803 44.08 129.283 43.56C128.77 43.0333 128.13 42.77 127.363 42.77C126.597 42.77 125.953 43.0333 125.433 43.56C124.92 44.08 124.663 44.7267 124.663 45.5C124.663 46.2667 124.92 46.9133 125.433 47.44ZM135.091 42.71C134.211 42.6367 133.771 43.0167 133.771 43.85V44H135.091V44.84H133.771V49H132.901V44.84H132.101V44H132.901V43.85C132.901 43.1767 133.088 42.6667 133.461 42.32C133.841 41.9733 134.385 41.8233 135.091 41.87V42.71ZM94.68 56.12H97.93V57H93.75V50H97.88V50.88H94.68V53.03H97.63V53.9H94.68V56.12ZM103.803 57H102.783L101.383 55.11L99.9727 57H98.9527L100.873 54.43L99.0627 52H100.093L101.383 53.74L102.673 52H103.693L101.893 54.42L103.803 57ZM107.108 57.13C106.354 57.13 105.728 56.88 105.228 56.38C104.728 55.8733 104.478 55.2467 104.478 54.5C104.478 53.7533 104.728 53.13 105.228 52.63C105.728 52.1233 106.354 51.87 107.108 51.87C107.601 51.87 108.044 51.99 108.438 52.23C108.831 52.4633 109.124 52.78 109.318 53.18L108.588 53.6C108.461 53.3333 108.264 53.12 107.998 52.96C107.738 52.8 107.441 52.72 107.108 52.72C106.608 52.72 106.188 52.89 105.848 53.23C105.514 53.57 105.348 53.9933 105.348 54.5C105.348 55 105.514 55.42 105.848 55.76C106.188 56.1 106.608 56.27 107.108 56.27C107.441 56.27 107.741 56.1933 108.008 56.04C108.274 55.88 108.478 55.6667 108.618 55.4L109.358 55.83C109.144 56.2233 108.838 56.54 108.438 56.78C108.038 57.0133 107.594 57.13 107.108 57.13ZM111.258 54.9C111.345 55.3467 111.548 55.6933 111.868 55.94C112.195 56.1867 112.595 56.31 113.068 56.31C113.728 56.31 114.208 56.0667 114.508 55.58L115.248 56C114.762 56.7533 114.028 57.13 113.048 57.13C112.255 57.13 111.608 56.8833 111.108 56.39C110.615 55.89 110.368 55.26 110.368 54.5C110.368 53.7467 110.612 53.12 111.098 52.62C111.585 52.12 112.215 51.87 112.988 51.87C113.722 51.87 114.318 52.13 114.778 52.65C115.245 53.1633 115.478 53.7833 115.478 54.51C115.478 54.6367 115.468 54.7667 115.448 54.9H111.258ZM112.988 52.69C112.522 52.69 112.135 52.8233 111.828 53.09C111.522 53.35 111.332 53.7 111.258 54.14H114.598C114.525 53.6667 114.338 53.3067 114.038 53.06C113.738 52.8133 113.388 52.69 112.988 52.69ZM116.978 57V49.7H117.848V57H116.978ZM119.676 57V49.7H120.546V57H119.676ZM122.983 54.9C123.07 55.3467 123.273 55.6933 123.593 55.94C123.92 56.1867 124.32 56.31 124.793 56.31C125.453 56.31 125.933 56.0667 126.233 55.58L126.973 56C126.486 56.7533 125.753 57.13 124.773 57.13C123.98 57.13 123.333 56.8833 122.833 56.39C122.34 55.89 122.093 55.26 122.093 54.5C122.093 53.7467 122.336 53.12 122.823 52.62C123.31 52.12 123.94 51.87 124.713 51.87C125.446 51.87 126.043 52.13 126.503 52.65C126.97 53.1633 127.203 53.7833 127.203 54.51C127.203 54.6367 127.193 54.7667 127.173 54.9H122.983ZM124.713 52.69C124.246 52.69 123.86 52.8233 123.553 53.09C123.246 53.35 123.056 53.7 122.983 54.14H126.323C126.25 53.6667 126.063 53.3067 125.763 53.06C125.463 52.8133 125.113 52.69 124.713 52.69ZM131.193 51.87C131.78 51.87 132.25 52.0567 132.603 52.43C132.956 52.7967 133.133 53.2967 133.133 53.93V57H132.263V53.98C132.263 53.5733 132.153 53.26 131.933 53.04C131.713 52.8133 131.41 52.7 131.023 52.7C130.59 52.7 130.24 52.8367 129.973 53.11C129.706 53.3767 129.573 53.79 129.573 54.35V57H128.703V52H129.573V52.72C129.926 52.1533 130.466 51.87 131.193 51.87ZM137.198 57.13C136.444 57.13 135.818 56.88 135.318 56.38C134.818 55.8733 134.568 55.2467 134.568 54.5C134.568 53.7533 134.818 53.13 135.318 52.63C135.818 52.1233 136.444 51.87 137.198 51.87C137.691 51.87 138.134 51.99 138.528 52.23C138.921 52.4633 139.214 52.78 139.408 53.18L138.678 53.6C138.551 53.3333 138.354 53.12 138.088 52.96C137.828 52.8 137.531 52.72 137.198 52.72C136.698 52.72 136.278 52.89 135.938 53.23C135.604 53.57 135.438 53.9933 135.438 54.5C135.438 55 135.604 55.42 135.938 55.76C136.278 56.1 136.698 56.27 137.198 56.27C137.531 56.27 137.831 56.1933 138.098 56.04C138.364 55.88 138.568 55.6667 138.708 55.4L139.448 55.83C139.234 56.2233 138.928 56.54 138.528 56.78C138.128 57.0133 137.684 57.13 137.198 57.13ZM141.348 54.9C141.435 55.3467 141.638 55.6933 141.958 55.94C142.285 56.1867 142.685 56.31 143.158 56.31C143.818 56.31 144.298 56.0667 144.598 55.58L145.338 56C144.851 56.7533 144.118 57.13 143.138 57.13C142.345 57.13 141.698 56.8833 141.198 56.39C140.705 55.89 140.458 55.26 140.458 54.5C140.458 53.7467 140.701 53.12 141.188 52.62C141.675 52.12 142.305 51.87 143.078 51.87C143.811 51.87 144.408 52.13 144.868 52.65C145.335 53.1633 145.568 53.7833 145.568 54.51C145.568 54.6367 145.558 54.7667 145.538 54.9H141.348ZM143.078 52.69C142.611 52.69 142.225 52.8233 141.918 53.09C141.611 53.35 141.421 53.7 141.348 54.14H144.688C144.615 53.6667 144.428 53.3067 144.128 53.06C143.828 52.8133 143.478 52.69 143.078 52.69Z" fill="#8C287B"/>
<path d="M65.736 54.264L65.22 53.808L68.544 51.216C69.56 50.448 70.376 49.72 70.992 49.032C71.608 48.336 72.052 47.632 72.324 46.92C72.604 46.2 72.744 45.42 72.744 44.58C72.744 43.676 72.628 42.932 72.396 42.348C72.164 41.764 71.836 41.332 71.412 41.052C70.996 40.764 70.508 40.62 69.948 40.62C69.036 40.62 68.36 40.872 67.92 41.376C67.488 41.88 67.272 42.504 67.272 43.248V44.412C67.272 44.868 67.144 45.224 66.888 45.48C66.64 45.728 66.304 45.852 65.88 45.852C65.464 45.852 65.132 45.716 64.884 45.444C64.636 45.164 64.512 44.768 64.512 44.256C64.512 43.496 64.728 42.784 65.16 42.12C65.592 41.456 66.232 40.92 67.08 40.512C67.928 40.096 68.976 39.888 70.224 39.888C71.424 39.888 72.424 40.088 73.224 40.488C74.024 40.88 74.624 41.424 75.024 42.12C75.432 42.808 75.636 43.588 75.636 44.46C75.636 45.228 75.464 45.956 75.12 46.644C74.776 47.324 74.2 48.036 73.392 48.78C72.584 49.516 71.48 50.348 70.08 51.276L65.736 54.264ZM64.164 55.788C64.164 55.036 64.444 54.412 65.004 53.916C65.564 53.42 66.372 53.172 67.428 53.172C67.956 53.172 68.472 53.252 68.976 53.412C69.48 53.572 69.976 53.76 70.464 53.976C70.96 54.184 71.452 54.368 71.94 54.528C72.436 54.688 72.928 54.768 73.416 54.768C74.008 54.768 74.464 54.644 74.784 54.396C75.104 54.14 75.372 53.728 75.588 53.16C75.652 53.032 75.728 52.944 75.816 52.896C75.904 52.84 75.996 52.816 76.092 52.824C76.204 52.84 76.292 52.896 76.356 52.992C76.42 53.088 76.44 53.24 76.416 53.448C76.304 54.392 76.104 55.148 75.816 55.716C75.528 56.284 75.156 56.696 74.7 56.952C74.244 57.2 73.704 57.324 73.08 57.324C72.584 57.324 72.132 57.252 71.724 57.108C71.324 56.972 70.944 56.748 70.584 56.436C70.232 56.116 69.872 55.7 69.504 55.188C69.136 54.78 68.832 54.504 68.592 54.36C68.352 54.208 68.108 54.132 67.86 54.132C67.556 54.132 67.324 54.252 67.164 54.492C67.004 54.732 66.904 55.136 66.864 55.704C66.84 56.096 66.764 56.412 66.636 56.652C66.516 56.892 66.352 57.064 66.144 57.168C65.936 57.272 65.688 57.324 65.4 57.324C65.056 57.324 64.764 57.188 64.524 56.916C64.284 56.644 64.164 56.268 64.164 55.788Z" fill="#6B2879"/>
<path d="M80.0357 53.628C80.0357 53.148 80.1717 52.756 80.4437 52.452C80.7157 52.148 81.0637 51.996 81.4877 51.996C81.9037 51.996 82.2197 52.124 82.4357 52.38C82.6597 52.628 82.7717 52.964 82.7717 53.388V54.588C82.7717 55.172 82.9917 55.656 83.4317 56.04C83.8797 56.416 84.5317 56.604 85.3877 56.604C86.2677 56.604 86.9997 56.244 87.5837 55.524C88.1677 54.796 88.4597 53.696 88.4597 52.224C88.4597 50.752 88.1637 49.652 87.5717 48.924C86.9877 48.188 86.2277 47.82 85.2917 47.82C84.8677 47.82 84.4637 47.896 84.0797 48.048C83.6957 48.2 83.3357 48.42 82.9997 48.708C82.6717 48.996 82.3637 49.344 82.0757 49.752C81.9477 49.888 81.8237 49.988 81.7037 50.052C81.5917 50.108 81.4717 50.136 81.3437 50.136C81.1757 50.136 81.0397 50.092 80.9357 50.004C80.8397 49.916 80.7917 49.788 80.7917 49.62V40.632C80.7917 40.4 80.8557 40.216 80.9837 40.08C81.1197 39.944 81.3277 39.876 81.6077 39.876C81.7597 39.876 81.9197 39.904 82.0877 39.96C82.2557 40.008 82.4957 40.12 82.8077 40.296C83.1597 40.464 83.5357 40.624 83.9357 40.776C84.3437 40.92 84.7877 41.036 85.2677 41.124C85.7557 41.204 86.2837 41.244 86.8517 41.244C87.6677 41.244 88.3477 41.128 88.8917 40.896C89.4437 40.664 89.8637 40.328 90.1517 39.888C90.2957 39.744 90.4157 39.66 90.5117 39.636C90.6157 39.604 90.7157 39.6 90.8117 39.624C90.8837 39.648 90.9437 39.704 90.9917 39.792C91.0397 39.872 91.0437 40.004 91.0037 40.188C90.8517 40.94 90.5717 41.568 90.1637 42.072C89.7637 42.576 89.2437 42.948 88.6037 43.188C87.9717 43.428 87.2317 43.548 86.3837 43.548C85.7517 43.548 85.1317 43.488 84.5237 43.368C83.9157 43.248 83.3397 43.08 82.7957 42.864C82.2597 42.64 81.7637 42.384 81.3077 42.096L81.8117 41.52V49.284L81.4397 49.296C81.8077 48.784 82.2197 48.348 82.6757 47.988C83.1317 47.628 83.6317 47.356 84.1757 47.172C84.7197 46.98 85.3157 46.884 85.9637 46.884C87.0117 46.884 87.9237 47.096 88.6997 47.52C89.4757 47.944 90.0757 48.536 90.4997 49.296C90.9317 50.048 91.1477 50.924 91.1477 51.924C91.1477 53.036 90.8997 54 90.4037 54.816C89.9077 55.624 89.2117 56.244 88.3157 56.676C87.4277 57.108 86.3957 57.324 85.2197 57.324C84.1317 57.324 83.1997 57.16 82.4237 56.832C81.6477 56.496 81.0557 56.048 80.6477 55.488C80.2397 54.928 80.0357 54.308 80.0357 53.628Z" fill="#6A2879"/>
<path d="M74.789 24.7504C74.6822 24.6183 74.5232 24.462 74.178 24.435C73.9149 24.4081 73.6492 24.462 73.3587 24.6183C72.934 24.8285 72.6682 25.1412 72.4298 25.4026C72.4052 25.4565 72.3504 25.5078 72.323 25.5347C72.1915 25.691 72.0599 25.8204 71.9257 25.9794C71.5832 26.3703 71.2379 26.7907 70.868 27.1573C70.6296 27.4187 70.3639 27.6532 70.0981 27.8877C69.9939 27.9928 69.8871 28.071 69.7802 28.1761C69.0404 28.8553 68.2458 29.4321 67.3964 29.9281C66.7086 30.3216 65.914 30.6369 64.881 30.9496C64.4837 31.0547 64.1659 30.9766 63.848 30.6612C63.5576 30.3728 63.3987 29.982 63.3713 29.4591C63.3439 28.9874 63.4233 28.5157 63.6891 27.9416C63.9549 27.3136 64.3522 26.7368 64.881 26.1627C65.3578 25.6398 65.7277 25.1142 66.0209 24.5132C66.073 24.435 66.073 24.3299 66.1004 24.2787L66.2045 23.8852L65.8866 23.6776C65.5441 23.4674 65.1715 23.4404 64.829 23.6776L64.7742 23.7019C64.6427 23.7801 64.5111 23.8582 64.3769 23.9633C64.1385 24.1736 63.9001 24.3838 63.6617 24.5913C63.2918 24.931 62.8945 25.2733 62.4972 25.6129C61.7821 26.2139 61.0121 26.8419 60.2449 27.4187C59.3708 28.0467 58.4693 28.6748 57.5706 29.2758L57.5158 29.327C56.4034 30.0602 55.5293 30.5561 54.6306 30.9227C54.2058 31.1059 53.8606 31.2111 53.5181 31.2111C53.4386 31.2111 53.3592 31.2111 53.2797 31.1841C52.8824 31.1059 52.7481 30.8984 52.6687 30.7394C52.5646 30.5049 52.5098 30.2434 52.5098 29.982C52.5098 29.5642 52.5646 29.1195 52.7235 28.5939C52.8029 28.3324 52.9071 28.0467 53.0413 27.7583C53.0934 27.6532 53.1208 27.5751 53.1455 27.4699L53.2003 27.3379C53.3318 27.0252 53.4633 26.6856 53.4386 26.2678C53.4112 25.8204 53.066 25.4808 52.644 25.4296C52.6687 25.4026 52.6687 25.3757 52.6961 25.3245C52.9619 24.8528 53.0139 24.3029 52.9071 23.6776C52.8029 23.0496 52.2467 22.551 51.5836 22.4998C50.9205 22.4459 50.2328 22.524 49.4108 22.7612C48.3257 23.0739 47.3722 23.6237 46.657 24.0685C46.1529 24.3838 45.6761 24.7504 45.1993 25.09L45.0678 25.1951C44.3527 25.7422 43.6622 26.3972 42.8676 27.3648C42.8155 27.4187 42.7881 27.4699 42.7634 27.5212C42.736 27.5481 42.7086 27.602 42.684 27.602C42.1524 28.0467 41.7304 28.3864 41.2509 28.7529C41.0126 28.9362 40.7742 29.0925 40.5358 29.2489C40.4563 29.3001 40.3522 29.354 40.2727 29.4321C39.6617 29.8499 39.0014 30.1653 38.2862 30.3728C37.6752 30.5561 37.0148 30.6882 36.3518 30.8175C35.9544 30.8984 35.6366 30.8714 35.3462 30.7151C35.1598 30.637 35.053 30.5318 35.0009 30.3216C34.9215 30.0332 34.9489 29.7475 35.0283 29.4052C35.2667 28.4106 35.6092 27.4969 36.086 26.6587C36.5107 25.9255 36.9874 25.1951 37.5957 24.4081C37.9684 23.9121 38.4451 23.3353 38.9219 22.7343C39.5823 21.923 40.1933 21.1898 40.8016 20.4837C41.4647 19.6993 42.0209 19.0713 42.5251 18.4972C42.8676 18.1037 43.2402 17.6859 43.6101 17.3194C43.769 17.163 43.9006 17.004 44.0595 16.8207C44.1663 16.7183 44.2732 16.5862 44.3773 16.4811C44.6157 16.2197 44.8541 15.9852 45.0678 15.7237C45.5692 15.748 46.0734 15.748 46.4433 15.748C46.657 15.748 46.868 15.748 47.1064 15.748C47.3174 15.748 47.5311 15.748 47.7421 15.748C48.2709 15.748 48.9066 15.748 49.5176 15.7749C49.9944 15.8019 50.4958 15.8019 51.1315 15.8019C51.5562 15.8019 55.3183 15.7237 55.8471 15.6456C56.1924 15.5917 56.5897 15.5405 56.9075 15.279C57.1185 15.0957 57.2528 14.8855 57.2528 14.651C57.2528 14.4138 57.1185 14.1793 56.9075 14.023C56.776 13.9179 56.6417 13.8397 56.4582 13.7858C55.9266 13.5783 55.3704 13.5513 54.8936 13.5513H54.8415C53.6222 13.5001 52.3782 13.5001 51.1863 13.4731H50.3917C49.7807 13.4731 49.1724 13.4462 48.5641 13.4462C48.112 13.4462 47.6352 13.4462 47.1859 13.4192C47.2133 13.395 47.2133 13.395 47.2379 13.368L47.3722 13.2386C47.4763 13.1066 47.6106 12.9745 47.7147 12.8721C47.9805 12.5837 48.2463 12.2953 48.5093 12.0069C48.934 11.5379 49.2519 11.1444 49.5423 10.7778C49.756 10.5164 49.8355 10.2037 49.8601 10.0204C49.9149 9.73203 49.8355 9.49484 49.6766 9.28731C49.4628 9.05012 49.1203 8.94769 48.7477 9.02586C48.2463 9.13098 47.7942 9.41668 47.3448 9.86141C46.9475 10.2549 46.5776 10.6997 46.2049 11.0932L45.8624 11.457C45.3062 12.085 44.75 12.6888 44.1937 13.3168C43.6622 13.2899 43.0539 13.2629 42.4456 13.2386H42.1004C41.2509 13.2117 40.4043 13.1847 39.5302 13.1847H39.4507C36.5381 13.1847 34.2858 13.2117 32.1924 13.2386C31.0279 13.2386 28.8276 13.2899 28.1673 13.2899H27.9809C27.4521 13.2899 27 13.7615 27 14.3356C27 14.7804 27.2658 15.1739 27.6357 15.3302C27.77 15.4084 27.9015 15.4353 27.9809 15.4353C28.033 15.4353 28.0878 15.4623 28.1399 15.4865C28.2988 15.5135 28.4577 15.5647 28.644 15.5647H28.7755C30.4168 15.5917 32.1403 15.6186 33.809 15.6456C35.927 15.6456 38.0725 15.6456 40.2179 15.6698H42.1278C41.3057 16.5862 40.4837 17.5026 39.6891 18.4164L39.0534 19.1252C38.4972 19.7532 37.941 20.3786 37.3847 21.0066C36.8285 21.6615 36.2723 22.3165 35.7681 22.9688C34.9489 24.0685 34.0994 25.2733 33.4391 26.5805C33.0938 27.2597 32.7239 27.9928 32.4856 28.8041C32.2992 29.4321 32.2198 30.0871 32.2472 30.7151C32.2718 31.2623 32.4582 31.7339 32.7486 32.1005C33.3596 32.8606 34.2063 33.2784 35.2119 33.3053C35.875 33.3296 36.5381 33.2002 37.3053 32.9388C38.152 32.6504 38.9466 32.2838 39.6617 31.8391C39.8206 31.7609 39.9549 31.6558 40.1138 31.5776C40.5632 31.3162 41.0126 31.0547 41.4373 30.7663C41.4647 31.1059 41.5688 31.4213 41.7825 31.7097C42.1004 32.1787 42.5771 32.4671 43.2402 32.5991C43.9554 32.7285 44.7226 32.6773 45.4898 32.4671C46.5502 32.1544 47.5037 31.6046 48.1915 31.1329C48.6162 30.8445 49.0409 30.5318 49.4628 30.1922C49.4108 30.6612 49.4382 31.0547 49.5423 31.4455C49.7807 32.2838 50.3123 32.8848 51.1069 33.2245C51.8467 33.5398 52.644 33.591 53.5976 33.3835C54.6552 33.1463 55.6635 32.7285 56.6417 32.1005C57.7542 31.3943 58.842 30.61 59.875 29.8257L59.9791 29.7475C60.3518 29.4591 60.7217 29.1976 61.0669 28.9092C61.0669 28.9605 61.0395 29.0144 61.0395 29.0656C60.908 29.6666 60.7491 30.3998 60.908 31.1598C61.0916 32.1005 61.5683 32.6234 62.4972 32.8848C63.2918 33.0951 64.1659 33.0951 65.1468 32.8606C65.5688 32.7555 65.9935 32.6234 66.4182 32.4401C66.2839 32.5991 66.1524 32.7555 66.0209 32.8848C65.3578 33.6719 64.6701 34.4562 64.007 35.2406L63.4233 35.9198C63.185 36.2082 62.9466 36.4696 62.7082 36.758C62.2862 37.254 61.8341 37.7526 61.4094 38.2755C60.6148 39.2162 59.7681 40.2107 58.9215 41.2323C57.9405 42.4101 56.9075 43.6634 55.6635 45.2079C55.3978 45.5232 55.1594 45.8359 54.921 46.1512C54.6826 46.4369 54.4716 46.7253 54.2332 47.0137C53.7565 47.5905 53.3318 48.2158 52.9865 48.8438C52.4303 49.8384 52.1673 50.7818 52.2467 51.7225C52.2467 51.8276 52.2714 51.9596 52.2714 52.0621C52.2988 52.2453 52.2988 52.4044 52.2988 52.585C52.3262 52.9515 52.3782 53.4232 52.855 53.8167L52.9345 54H53.9154L54.0743 53.9218C54.099 53.8949 54.1264 53.9218 54.1264 53.8949H54.1538C54.921 53.3963 55.3183 52.744 55.3183 51.9596C55.3183 51.8788 55.3183 51.7764 55.3183 51.6955C55.3183 51.488 55.3183 51.3047 55.3183 51.0944C55.3457 50.833 55.3457 50.5203 55.3978 50.205C55.5046 49.4988 55.8225 48.8196 56.3513 47.9813C56.6965 47.4585 57.0938 46.9086 57.5432 46.2806C58.1268 45.4963 58.7351 44.7362 59.3188 43.9788L59.5023 43.7443C59.7161 43.4829 59.8996 43.2457 60.1134 42.9842L62.4972 40.0032C62.7082 39.7391 62.9219 39.4776 63.1055 39.2431C63.5823 38.6421 64.059 38.041 64.5632 37.4642C65.3852 36.4966 66.2593 35.502 67.0785 34.5613C67.5553 34.0115 68.0869 33.4347 68.5636 32.9118L68.9856 32.4401C69.6761 31.6827 70.3639 30.9227 71.0516 30.1653C71.29 29.9038 71.5284 29.6424 71.7668 29.3809C72.0846 29.0144 72.4298 28.6748 72.7477 28.3082C72.882 28.1492 73.0135 27.9928 73.145 27.8635C73.2793 27.6802 73.4382 27.5212 73.5697 27.3648C73.967 26.9471 74.3643 26.4754 74.7096 25.9525C74.8411 25.7422 74.9205 25.5078 75 25.2463C74.9726 25.063 74.8685 24.8528 74.789 24.7504ZM50.789 26.8931C50.3123 27.4699 49.7807 27.9928 49.0929 28.5157C48.1394 29.2758 46.9995 29.7718 45.624 30.0089C45.4377 30.0332 45.1993 30.0332 44.9089 30.0089C44.75 29.982 44.6431 29.9281 44.5636 29.8499C44.4842 29.7475 44.4842 29.6154 44.5116 29.4591C44.75 28.4106 45.3309 27.4699 46.3392 26.5023C46.4981 26.346 46.7091 26.187 46.8954 26.0306C46.9995 25.9525 47.1064 25.8743 47.2133 25.7962C47.9531 25.1951 48.882 24.8528 50.0985 24.6965C50.1259 24.6965 50.1259 24.6965 50.1259 24.6965C50.178 24.7504 50.2328 24.8528 50.3123 24.931L50.3643 25.0361C50.3917 25.09 50.4438 25.1412 50.4712 25.1951C50.5506 25.3245 50.6301 25.4808 50.7616 25.6129C50.9479 25.8204 51.211 25.9525 51.5042 26.0037C51.2658 26.2921 51.0274 26.5805 50.789 26.8931Z" fill="url(#paint0_linear_0_1)"/>
<path d="M133.348 23.4203C133.321 23.4203 133.321 23.4203 133.297 23.4203C133.191 23.4203 133.062 23.4485 132.93 23.5302C132.723 23.6401 132.515 23.7782 132.278 23.9417C131.731 24.3249 131.238 24.7899 130.769 25.2267L130.558 25.4184C130.143 25.8016 129.674 26.2131 129.206 26.5935C128.658 27.0331 128.111 27.47 127.564 27.8814L127.252 28.1266C127.12 28.2083 127.017 28.3182 126.885 28.3999C126.521 28.7015 126.157 28.9748 125.791 29.22C125.61 29.3299 125.427 29.468 125.244 29.6033C124.646 30.0147 124.072 30.398 123.446 30.7249L123.266 30.8066C122.719 31.08 122.196 31.3533 121.649 31.4097C121.387 31.435 121.153 31.3815 120.945 31.218C120.738 31.0546 120.606 30.7812 120.581 30.3162C120.528 29.7667 120.606 29.1946 120.84 28.538C120.945 28.2365 121.05 27.9349 121.18 27.6334L121.309 27.3319C121.414 27.0585 121.544 26.6499 121.492 26.1567C121.441 25.6917 121.153 25.4184 120.738 25.3902C120.894 25.145 121.023 24.8435 121.075 24.4602C121.153 23.86 121.023 23.1216 120.684 22.7102C120.476 22.465 120.113 22 119.46 22H119.409C119.043 22 118.73 22.217 118.417 22.2734C117.792 22.3833 117.167 22.6566 116.542 22.9553C115.682 23.3668 114.927 23.86 114.224 24.3785C112.712 25.5001 111.618 26.6499 110.809 27.9068C110.785 27.9349 110.758 27.9631 110.731 27.9885C110.524 28.1548 110.289 28.3182 110.055 28.4817C109.637 28.7832 109.195 29.1101 108.777 29.4398L108.726 29.468C108.386 29.7414 108.074 29.9865 107.71 30.15C106.877 30.5896 106.096 30.7249 105.338 30.5896C104.896 30.5051 104.584 30.2599 104.427 29.7949C104.271 29.3835 104.271 28.8931 104.401 28.2083C104.557 27.5235 104.923 26.8415 105.549 26.1285C105.6 26.0468 105.678 25.9933 105.756 25.9115C105.834 25.8298 105.939 25.7199 106.018 25.6382C106.276 25.3366 106.511 25.0069 106.643 24.5701C106.721 24.2686 106.694 23.9699 106.538 23.7219C106.381 23.5049 106.147 23.3386 105.861 23.3132C105.705 23.2851 105.522 23.3132 105.338 23.3386C104.635 23.4767 104.037 23.8318 103.463 24.1587C102.994 24.4348 102.525 24.7336 102.083 25.0351C101.873 25.1732 101.665 25.3085 101.431 25.4466C101.169 25.61 100.91 25.7735 100.649 25.9369C100.18 26.2384 99.7112 26.54 99.2423 26.8415C98.8784 27.0867 98.5389 27.3065 98.175 27.5517C98.0699 27.608 97.9648 27.6898 97.8867 27.7433C97.9406 27.608 98.0187 27.4981 98.0699 27.3882C98.4338 26.7316 98.8003 26.075 99.059 25.3366C99.1911 25.0069 99.2153 24.6265 99.1911 24.2432C99.1641 23.8036 98.9027 23.4767 98.5389 23.3386C98.043 23.147 97.628 23.2287 97.2614 23.5302C97.2372 23.5584 97.2102 23.5584 97.1833 23.5866C97.1321 23.612 97.1051 23.6401 97.0809 23.6683C96.9245 23.8036 96.7413 23.9135 96.585 24.0516C96.1942 24.3503 95.8034 24.6265 95.4396 24.9816C94.5529 25.8016 93.5881 26.6499 92.599 27.4418C91.8687 28.0167 91.0871 28.5916 90.3325 29.1101L89.9148 29.4116C89.2626 29.8766 88.508 30.398 87.6752 30.8066L87.5701 30.863C87.05 31.1363 86.5541 31.3815 86.007 31.435C85.5381 31.4914 85.1473 31.2462 85.0179 30.8066C84.9128 30.4797 84.8859 30.1246 84.9398 29.7414C84.991 29.1665 85.0961 28.755 85.2254 28.3999C85.2767 28.2647 85.3306 28.1266 85.3818 27.9885C85.4599 27.7715 85.565 27.5517 85.6162 27.3319C85.6944 27.0867 85.7995 26.7852 85.8237 26.4583C85.8507 26.1567 85.7725 25.8834 85.5893 25.6635C85.433 25.5001 85.2524 25.3902 85.0179 25.3902C85.0422 25.3648 85.0422 25.3366 85.0691 25.3085C85.3548 24.7899 85.433 24.2432 85.3036 23.6401C85.1742 22.9553 84.7296 22.4904 84.1043 22.3833C83.7135 22.2987 83.2985 22.2987 82.9077 22.3833C82.3849 22.4904 81.6815 22.6566 80.9781 22.9553C80.2477 23.2851 79.5443 23.6683 78.946 24.1051C77.7468 24.9534 76.7846 25.8016 76.0031 26.7034C75.0895 27.7969 74.4912 28.7832 74.1516 29.8766C73.9953 30.398 73.9441 30.9165 74.0734 31.4097C74.2567 32.2833 74.8307 32.8046 75.7929 32.9963C76.7307 33.1879 77.6955 33.0498 78.7628 32.5566C79.4419 32.2579 80.0914 31.8747 80.7706 31.3815C81.1856 31.08 81.5764 30.7531 81.916 30.4515C81.889 30.7812 81.889 31.08 81.916 31.3815C81.9672 31.9846 82.2043 32.5031 82.5951 32.9681C83.0883 33.543 83.7917 33.8699 84.6784 33.9262C84.7565 33.9262 84.8347 33.9262 84.9128 33.9262C85.3818 33.9262 85.8507 33.8163 86.1903 33.7346C86.8937 33.5712 87.6213 33.2696 88.3005 32.8582C88.7694 32.5566 89.2626 32.2579 89.7854 31.8747C90.54 31.3279 91.3216 30.7531 92.0762 30.15C92.4427 29.8513 92.8066 29.5497 93.1731 29.2482C93.3024 29.1383 93.4318 29.0284 93.5639 28.9185L93.8226 28.7015L94.4748 28.1548C94.3697 28.3464 94.2673 28.538 94.1621 28.7297C93.8226 29.3581 93.4318 30.0964 92.9117 30.7531C92.5721 31.1899 92.4697 31.683 92.3646 32.1762C92.3376 32.3678 92.3376 32.4496 92.3646 32.5848C92.4697 33.078 92.7823 33.2133 93.2512 33.2133H93.2755C93.642 33.2133 93.9277 33.1597 94.1352 32.9963C95.0488 32.3678 95.7765 31.9028 96.4287 31.4097C96.7925 31.1363 97.159 30.8883 97.5228 30.615C97.7843 30.4233 98.043 30.2317 98.2775 30.0401C99.1129 29.4116 99.9457 28.8114 100.778 28.1801C101.067 27.9631 101.379 27.7715 101.716 27.6334V27.7151C101.692 28.1801 101.638 28.6451 101.638 29.1383V29.22C101.614 29.933 101.587 30.6431 101.848 31.4097C101.978 31.7929 102.134 32.2297 102.501 32.5848C102.969 33.0498 103.541 33.2696 104.298 33.2696C104.349 33.2696 104.401 33.2696 104.479 33.2696C104.869 33.2414 105.26 33.1597 105.651 33.078C106.303 32.9145 106.928 32.6666 107.605 32.3115C108.413 31.8747 109.09 31.4632 109.691 31.0264C109.691 31.0546 109.691 31.08 109.691 31.1081C109.691 31.3279 109.742 31.5449 109.82 31.7366C110.082 32.4496 110.629 32.8864 111.462 33.0498C112.165 33.1879 112.922 33.1315 113.65 32.9145C114.537 32.6412 115.423 32.1762 116.412 31.435C116.803 31.1617 117.194 30.8348 117.558 30.5332C117.506 30.863 117.506 31.218 117.585 31.5731C117.768 32.6412 118.393 33.4049 119.382 33.7882C119.956 34.008 120.555 34.0615 121.309 33.9262C122.169 33.7882 123.031 33.4613 123.969 32.9399C124.907 32.4214 125.767 31.7366 126.599 31.1081L126.705 31.0264C127.745 30.2063 128.71 29.4398 129.621 28.6451L129.855 28.4281C130.09 28.2365 130.324 28.0167 130.558 27.825L131.003 27.4418C131.496 27.005 131.992 26.54 132.488 26.075C132.774 25.8016 133.062 25.4719 133.321 25.1986C133.426 25.0633 133.555 24.9534 133.66 24.8153C133.712 24.7617 133.766 24.7082 133.79 24.6518L134 24.4348V23.395L133.348 23.4203ZM83.7135 26.2131C83.6893 26.2666 83.6354 26.3202 83.6111 26.3765C82.9077 27.2783 82.2286 28.0167 81.5252 28.5916C81.0832 28.9466 80.7167 29.22 80.3016 29.3835C80.1696 29.4398 80.0402 29.4934 79.8839 29.5497C79.5201 29.7132 79.1805 29.8513 78.8167 29.9583C78.372 30.0964 77.957 30.15 77.5123 30.1246C77.356 30.0964 77.1754 30.0683 77.0973 29.933C77.0191 29.8231 77.0191 29.685 77.0703 29.5215C77.2778 28.7015 77.6443 27.9631 78.1914 27.2501C78.6065 26.7034 79.1024 26.2131 79.7788 25.6917C80.3259 25.2803 80.7436 25.0069 81.2395 24.8998C81.4201 24.8435 81.6033 24.8153 81.8109 24.7617C82.0453 24.7082 82.2555 24.6518 82.49 24.5983C82.5169 24.5983 82.5412 24.5983 82.5682 24.5983C82.5951 24.5983 82.6194 24.5983 82.6733 24.68C82.7245 24.7336 82.7514 24.7899 82.7757 24.8435L82.8538 24.9816C82.8808 25.0351 82.9077 25.0915 82.932 25.1168C83.0101 25.2549 83.1152 25.4184 83.2446 25.5818C83.4279 25.8016 83.6623 25.9115 83.9238 25.9651C83.8456 26.0214 83.7917 26.1285 83.7135 26.2131ZM119.409 26.2131C119.355 26.2666 119.331 26.3483 119.277 26.4019C118.522 27.3882 117.819 28.1266 117.064 28.7015L117.011 28.755C116.776 28.9466 116.542 29.1101 116.283 29.2482C115.682 29.5751 115.189 29.7949 114.666 29.933C114.041 30.1246 113.599 30.1782 113.181 30.15C113.052 30.1246 112.922 30.0964 112.817 30.0147C112.634 29.9048 112.688 29.6314 112.712 29.5215C112.973 28.5634 113.442 27.6898 114.146 26.8669C114.537 26.4301 114.954 26.0468 115.474 25.6635C115.814 25.4184 116.178 25.1732 116.569 25.0069C117.089 24.7899 117.636 24.68 118.132 24.6265H118.159C118.183 24.6265 118.21 24.6265 118.261 24.68C118.366 24.7899 118.444 24.9252 118.522 25.1168L118.549 25.145C118.706 25.4719 118.886 25.6917 119.148 25.8552C119.277 25.9369 119.433 25.9933 119.565 26.0214C119.512 26.0214 119.46 26.1285 119.409 26.2131Z" fill="url(#paint1_linear_0_1)"/>
<path d="M27.0638 37C25.244 36.4789 23.3116 36.1421 21.5987 35.3644C16.2686 32.9271 13.4699 28.619 12.3814 23.2233C11.8386 20.5 11.892 17.7767 12.4348 15C13.1971 15 13.9312 15 14.8566 15C14.775 15.8044 14.6653 16.5821 14.6119 17.3625C14.3672 21.4327 14.4741 25.4548 16.5414 29.1642C18.7157 33.1062 22.3075 35.2335 26.7938 35.9363C29.2662 36.3239 31.7948 36.3506 34 36.5056C33.5359 36.6098 32.7202 36.8183 31.9326 37C30.3266 37 28.6952 37 27.0638 37Z" fill="url(#paint2_linear_0_1)"/>
<path d="M0 0C2.37571 1.27211 4.72206 1.76385 7.1992 1.63557C11.3554 1.42711 15.4848 1.03693 19.6383 0.959426C22.4011 0.908648 25.2119 1.03693 27.9213 1.45384C30.6573 1.86808 31.9733 3.6052 32 6.40865C32 7.93732 31.6637 9.46866 31.4848 11C31.354 11 31.1992 10.9733 31.0711 10.9733C30.967 10.2998 30.8629 9.59961 30.7347 8.92347C30.2196 6.06924 28.1535 4.51385 25.0838 4.56462C21.7551 4.61808 18.4264 4.95481 15.1218 5.345C12.0254 5.70846 9.00634 5.75923 5.85919 4.48712C9.13447 8.66424 13.4454 9.75462 18.2449 9.78134C9.03303 11.3875 2.47714 7.49636 0 0Z" fill="#342878"/>
<path d="M35 35.9835C33.5124 35.9835 32.0222 36.0348 30.5346 35.9566C27.6648 35.8001 24.8976 35.1961 22.3922 33.6779C19.1309 31.6904 17.3032 28.6539 16.442 25.0404C15.6078 21.532 15.6591 17.9723 16.3367 14.2833C11.0128 14.0999 6.1074 12.9997 3 8C8.35088 11.2468 14.1985 11.743 20.0434 11.298C20.0434 13.9947 19.9382 16.6375 20.0704 19.256C20.2783 23.1823 21.0882 26.9766 23.5153 30.2234C26.0207 33.5754 29.5168 35.0127 33.5367 35.4577C34.0335 35.5116 34.5302 35.5116 35 35.5386C35 35.695 35 35.8514 35 35.9835Z" fill="#A4287C"/>
<defs>
<linearGradient id="paint0_linear_0_1" x1="26.9278" y1="31.6271" x2="74.9192" y2="31.6271" gradientUnits="userSpaceOnUse">
<stop stop-color="#342878"/>
<stop offset="1" stop-color="#A4287C"/>
</linearGradient>
<linearGradient id="paint1_linear_0_1" x1="73.9619" y1="27.9557" x2="133.973" y2="27.9557" gradientUnits="userSpaceOnUse">
<stop stop-color="#342878"/>
<stop offset="1" stop-color="#A4287C"/>
</linearGradient>
<linearGradient id="paint2_linear_0_1" x1="12.0198" y1="25.996" x2="34.0239" y2="25.996" gradientUnits="userSpaceOnUse">
<stop stop-color="#342878"/>
<stop offset="1" stop-color="#A4287C"/>
</linearGradient>
</defs>
</svg>
