<svg width="241" height="161" viewBox="0 0 241 161" fill="none" xmlns="http://www.w3.org/2000/svg">
<circle cx="110" cy="130" r="23" fill="#352978"/>
<circle cx="110" cy="33" r="23" fill="#A4287C"/>
<circle cx="110" cy="130" r="24.5" stroke="#A4287C"/>
<circle cx="110" cy="33" r="24.5" stroke="#352978"/>
<circle cx="110" cy="130" r="27.75" stroke="#A4287C" stroke-width="0.5"/>
<circle cx="110" cy="33" r="27.75" stroke="#352978" stroke-width="0.5"/>
<circle cx="110" cy="130" r="30.75" stroke="#A4287C" stroke-width="0.5"/>
<circle cx="110" cy="33" r="30.75" stroke="#352978" stroke-width="0.5"/>
<path d="M7.993 72L10.212 67.1H10.905L13.131 72H12.396L10.415 67.492H10.695L8.714 72H7.993ZM8.938 70.775L9.127 70.215H11.885L12.088 70.775H8.938ZM15.3538 73.4C15.0131 73.4 14.6818 73.351 14.3598 73.253C14.0424 73.1597 13.7834 73.0243 13.5828 72.847L13.9048 72.329C14.0774 72.4783 14.2898 72.595 14.5418 72.679C14.7938 72.7677 15.0574 72.812 15.3328 72.812C15.7714 72.812 16.0934 72.7093 16.2988 72.504C16.5041 72.2987 16.6068 71.986 16.6068 71.566V70.782L16.6768 70.047L16.6418 69.305V68.29H17.2788V71.496C17.2788 72.1493 17.1154 72.63 16.7888 72.938C16.4621 73.246 15.9838 73.4 15.3538 73.4ZM15.2698 71.846C14.9104 71.846 14.5884 71.7713 14.3038 71.622C14.0238 71.468 13.7998 71.2557 13.6318 70.985C13.4684 70.7143 13.3868 70.4017 13.3868 70.047C13.3868 69.6877 13.4684 69.375 13.6318 69.109C13.7998 68.8383 14.0238 68.6283 14.3038 68.479C14.5884 68.3297 14.9104 68.255 15.2698 68.255C15.5871 68.255 15.8764 68.3203 16.1378 68.451C16.3991 68.577 16.6068 68.773 16.7608 69.039C16.9194 69.305 16.9988 69.641 16.9988 70.047C16.9988 70.4483 16.9194 70.782 16.7608 71.048C16.6068 71.314 16.3991 71.5147 16.1378 71.65C15.8764 71.7807 15.5871 71.846 15.2698 71.846ZM15.3468 71.258C15.5941 71.258 15.8134 71.2067 16.0048 71.104C16.1961 71.0013 16.3454 70.859 16.4528 70.677C16.5648 70.495 16.6208 70.285 16.6208 70.047C16.6208 69.809 16.5648 69.599 16.4528 69.417C16.3454 69.235 16.1961 69.095 16.0048 68.997C15.8134 68.8943 15.5941 68.843 15.3468 68.843C15.0994 68.843 14.8778 68.8943 14.6818 68.997C14.4904 69.095 14.3388 69.235 14.2268 69.417C14.1194 69.599 14.0658 69.809 14.0658 70.047C14.0658 70.285 14.1194 70.495 14.2268 70.677C14.3388 70.859 14.4904 71.0013 14.6818 71.104C14.8778 71.2067 15.0994 71.258 15.3468 71.258ZM20.2148 72.042C19.8181 72.042 19.4681 71.9603 19.1648 71.797C18.8661 71.6337 18.6328 71.4097 18.4648 71.125C18.3014 70.8403 18.2198 70.5137 18.2198 70.145C18.2198 69.7763 18.2991 69.4497 18.4578 69.165C18.6211 68.8803 18.8428 68.6587 19.1228 68.5C19.4074 68.3367 19.7271 68.255 20.0818 68.255C20.4411 68.255 20.7584 68.3343 21.0338 68.493C21.3091 68.6517 21.5238 68.8757 21.6778 69.165C21.8364 69.4497 21.9158 69.7833 21.9158 70.166C21.9158 70.194 21.9134 70.2267 21.9088 70.264C21.9088 70.3013 21.9064 70.3363 21.9018 70.369H18.7448V69.886H21.5518L21.2788 70.054C21.2834 69.816 21.2344 69.6037 21.1318 69.417C21.0291 69.2303 20.8868 69.0857 20.7048 68.983C20.5274 68.8757 20.3198 68.822 20.0818 68.822C19.8484 68.822 19.6408 68.8757 19.4588 68.983C19.2768 69.0857 19.1344 69.2327 19.0318 69.424C18.9291 69.6107 18.8778 69.8253 18.8778 70.068V70.18C18.8778 70.4273 18.9338 70.649 19.0458 70.845C19.1624 71.0363 19.3234 71.1857 19.5288 71.293C19.7341 71.4003 19.9698 71.454 20.2358 71.454C20.4551 71.454 20.6534 71.4167 20.8308 71.342C21.0128 71.2673 21.1714 71.1553 21.3068 71.006L21.6778 71.44C21.5098 71.636 21.2998 71.7853 21.0478 71.888C20.8004 71.9907 20.5228 72.042 20.2148 72.042ZM24.8299 68.255C25.1332 68.255 25.3992 68.3133 25.6279 68.43C25.8612 68.5467 26.0432 68.724 26.1739 68.962C26.3046 69.2 26.3699 69.501 26.3699 69.865V72H25.6979V69.942C25.6979 69.5827 25.6092 69.312 25.4319 69.13C25.2592 68.948 25.0142 68.857 24.6969 68.857C24.4589 68.857 24.2512 68.9037 24.0739 68.997C23.8966 69.0903 23.7589 69.228 23.6609 69.41C23.5676 69.592 23.5209 69.8183 23.5209 70.089V72H22.8489V68.29H23.4929V69.291L23.3879 69.025C23.5092 68.7823 23.6959 68.5933 23.9479 68.458C24.1999 68.3227 24.4939 68.255 24.8299 68.255ZM28.8876 72.042C28.5142 72.042 28.2249 71.9417 28.0196 71.741C27.8142 71.5403 27.7116 71.2533 27.7116 70.88V67.478H28.3836V70.852C28.3836 71.0527 28.4326 71.2067 28.5306 71.314C28.6332 71.4213 28.7779 71.475 28.9646 71.475C29.1746 71.475 29.3496 71.4167 29.4896 71.3L29.6996 71.783C29.5969 71.8717 29.4732 71.937 29.3286 71.979C29.1886 72.021 29.0416 72.042 28.8876 72.042ZM27.0816 68.843V68.29H29.4476V68.843H27.0816Z" fill="#352978"/>
<path d="M190.926 72.056C190.553 72.056 190.207 71.9953 189.89 71.874C189.577 71.748 189.304 71.573 189.071 71.349C188.842 71.1203 188.663 70.8543 188.532 70.551C188.401 70.2477 188.336 69.914 188.336 69.55C188.336 69.186 188.401 68.8523 188.532 68.549C188.663 68.2457 188.845 67.982 189.078 67.758C189.311 67.5293 189.584 67.3543 189.897 67.233C190.214 67.107 190.56 67.044 190.933 67.044C191.311 67.044 191.659 67.1093 191.976 67.24C192.298 67.366 192.571 67.555 192.795 67.807L192.34 68.248C192.153 68.052 191.943 67.9073 191.71 67.814C191.477 67.716 191.227 67.667 190.961 67.667C190.686 67.667 190.429 67.7137 190.191 67.807C189.958 67.9003 189.755 68.031 189.582 68.199C189.409 68.367 189.274 68.5677 189.176 68.801C189.083 69.0297 189.036 69.2793 189.036 69.55C189.036 69.8207 189.083 70.0727 189.176 70.306C189.274 70.5347 189.409 70.733 189.582 70.901C189.755 71.069 189.958 71.1997 190.191 71.293C190.429 71.3863 190.686 71.433 190.961 71.433C191.227 71.433 191.477 71.3863 191.71 71.293C191.943 71.195 192.153 71.0457 192.34 70.845L192.795 71.286C192.571 71.538 192.298 71.7293 191.976 71.86C191.659 71.9907 191.309 72.056 190.926 72.056ZM195.127 72.042C194.754 72.042 194.423 71.9603 194.133 71.797C193.844 71.6337 193.615 71.4097 193.447 71.125C193.279 70.8357 193.195 70.509 193.195 70.145C193.195 69.7763 193.279 69.4497 193.447 69.165C193.615 68.8803 193.844 68.6587 194.133 68.5C194.423 68.3367 194.754 68.255 195.127 68.255C195.496 68.255 195.825 68.3367 196.114 68.5C196.408 68.6587 196.637 68.8803 196.8 69.165C196.968 69.445 197.052 69.7717 197.052 70.145C197.052 70.5137 196.968 70.8403 196.8 71.125C196.637 71.4097 196.408 71.6337 196.114 71.797C195.825 71.9603 195.496 72.042 195.127 72.042ZM195.127 71.454C195.365 71.454 195.578 71.4003 195.764 71.293C195.956 71.1857 196.105 71.034 196.212 70.838C196.32 70.6373 196.373 70.4063 196.373 70.145C196.373 69.879 196.32 69.6503 196.212 69.459C196.105 69.263 195.956 69.1113 195.764 69.004C195.578 68.8967 195.365 68.843 195.127 68.843C194.889 68.843 194.677 68.8967 194.49 69.004C194.304 69.1113 194.154 69.263 194.042 69.459C193.93 69.6503 193.874 69.879 193.874 70.145C193.874 70.4063 193.93 70.6373 194.042 70.838C194.154 71.034 194.304 71.1857 194.49 71.293C194.677 71.4003 194.889 71.454 195.127 71.454ZM199.046 72.042C198.738 72.042 198.444 72 198.164 71.916C197.888 71.832 197.671 71.7293 197.513 71.608L197.793 71.076C197.951 71.1833 198.147 71.2743 198.381 71.349C198.614 71.4237 198.852 71.461 199.095 71.461C199.407 71.461 199.631 71.4167 199.767 71.328C199.907 71.2393 199.977 71.1157 199.977 70.957C199.977 70.8403 199.935 70.7493 199.851 70.684C199.767 70.6187 199.655 70.5697 199.515 70.537C199.379 70.5043 199.228 70.4763 199.06 70.453C198.892 70.425 198.724 70.3923 198.556 70.355C198.388 70.313 198.234 70.257 198.094 70.187C197.954 70.1123 197.842 70.012 197.758 69.886C197.674 69.7553 197.632 69.5827 197.632 69.368C197.632 69.144 197.695 68.948 197.821 68.78C197.947 68.612 198.124 68.4837 198.353 68.395C198.586 68.3017 198.861 68.255 199.179 68.255C199.421 68.255 199.666 68.2853 199.914 68.346C200.166 68.402 200.371 68.4837 200.53 68.591L200.243 69.123C200.075 69.011 199.9 68.934 199.718 68.892C199.536 68.85 199.354 68.829 199.172 68.829C198.878 68.829 198.658 68.878 198.514 68.976C198.369 69.0693 198.297 69.1907 198.297 69.34C198.297 69.466 198.339 69.564 198.423 69.634C198.511 69.6993 198.623 69.7507 198.759 69.788C198.899 69.8253 199.053 69.858 199.221 69.886C199.389 69.9093 199.557 69.942 199.725 69.984C199.893 70.0213 200.044 70.075 200.18 70.145C200.32 70.215 200.432 70.313 200.516 70.439C200.604 70.565 200.649 70.733 200.649 70.943C200.649 71.167 200.583 71.3607 200.453 71.524C200.322 71.6873 200.138 71.8157 199.9 71.909C199.662 71.9977 199.377 72.042 199.046 72.042ZM202.763 72.042C202.389 72.042 202.1 71.9417 201.895 71.741C201.689 71.5403 201.587 71.2533 201.587 70.88V67.478H202.259V70.852C202.259 71.0527 202.308 71.2067 202.406 71.314C202.508 71.4213 202.653 71.475 202.84 71.475C203.05 71.475 203.225 71.4167 203.365 71.3L203.575 71.783C203.472 71.8717 203.348 71.937 203.204 71.979C203.064 72.021 202.917 72.042 202.763 72.042ZM200.957 68.843V68.29H203.323V68.843H200.957ZM205.948 72.042C205.631 72.042 205.351 71.9837 205.108 71.867C204.87 71.7503 204.683 71.573 204.548 71.335C204.417 71.0923 204.352 70.789 204.352 70.425V68.29H205.024V70.348C205.024 70.712 205.11 70.985 205.283 71.167C205.46 71.349 205.708 71.44 206.025 71.44C206.258 71.44 206.461 71.3933 206.634 71.3C206.807 71.202 206.94 71.062 207.033 70.88C207.126 70.6933 207.173 70.4693 207.173 70.208V68.29H207.845V72H207.208V70.999L207.313 71.265C207.192 71.5123 207.01 71.7037 206.767 71.839C206.524 71.9743 206.251 72.042 205.948 72.042ZM213.765 68.255C214.064 68.255 214.328 68.3133 214.556 68.43C214.785 68.5467 214.962 68.724 215.088 68.962C215.219 69.2 215.284 69.501 215.284 69.865V72H214.612V69.942C214.612 69.5827 214.528 69.312 214.36 69.13C214.192 68.948 213.957 68.857 213.653 68.857C213.429 68.857 213.233 68.9037 213.065 68.997C212.897 69.0903 212.767 69.228 212.673 69.41C212.585 69.592 212.54 69.8183 212.54 70.089V72H211.868V69.942C211.868 69.5827 211.784 69.312 211.616 69.13C211.453 68.948 211.217 68.857 210.909 68.857C210.69 68.857 210.496 68.9037 210.328 68.997C210.16 69.0903 210.03 69.228 209.936 69.41C209.843 69.592 209.796 69.8183 209.796 70.089V72H209.124V68.29H209.768V69.277L209.663 69.025C209.78 68.7823 209.96 68.5933 210.202 68.458C210.445 68.3227 210.727 68.255 211.049 68.255C211.404 68.255 211.71 68.3437 211.966 68.521C212.223 68.6937 212.391 68.9573 212.47 69.312L212.197 69.2C212.309 68.9153 212.505 68.6867 212.785 68.514C213.065 68.3413 213.392 68.255 213.765 68.255ZM218.173 72.042C217.776 72.042 217.426 71.9603 217.123 71.797C216.824 71.6337 216.591 71.4097 216.423 71.125C216.259 70.8403 216.178 70.5137 216.178 70.145C216.178 69.7763 216.257 69.4497 216.416 69.165C216.579 68.8803 216.801 68.6587 217.081 68.5C217.365 68.3367 217.685 68.255 218.04 68.255C218.399 68.255 218.716 68.3343 218.992 68.493C219.267 68.6517 219.482 68.8757 219.636 69.165C219.794 69.4497 219.874 69.7833 219.874 70.166C219.874 70.194 219.871 70.2267 219.867 70.264C219.867 70.3013 219.864 70.3363 219.86 70.369H216.703V69.886H219.51L219.237 70.054C219.241 69.816 219.192 69.6037 219.09 69.417C218.987 69.2303 218.845 69.0857 218.663 68.983C218.485 68.8757 218.278 68.822 218.04 68.822C217.806 68.822 217.599 68.8757 217.417 68.983C217.235 69.0857 217.092 69.2327 216.99 69.424C216.887 69.6107 216.836 69.8253 216.836 70.068V70.18C216.836 70.4273 216.892 70.649 217.004 70.845C217.12 71.0363 217.281 71.1857 217.487 71.293C217.692 71.4003 217.928 71.454 218.194 71.454C218.413 71.454 218.611 71.4167 218.789 71.342C218.971 71.2673 219.129 71.1553 219.265 71.006L219.636 71.44C219.468 71.636 219.258 71.7853 219.006 71.888C218.758 71.9907 218.481 72.042 218.173 72.042ZM220.807 72V68.29H221.451V69.298L221.388 69.046C221.491 68.7893 221.663 68.5933 221.906 68.458C222.149 68.3227 222.447 68.255 222.802 68.255V68.906C222.774 68.9013 222.746 68.899 222.718 68.899C222.695 68.899 222.671 68.899 222.648 68.899C222.289 68.899 222.004 69.0063 221.794 69.221C221.584 69.4357 221.479 69.746 221.479 70.152V72H220.807Z" fill="#352978"/>
<path d="M106.575 46.41C106.575 46.9467 106.488 47.44 106.315 47.89C106.145 48.3367 105.903 48.7233 105.59 49.05C105.277 49.3733 104.902 49.625 104.465 49.805C104.028 49.985 103.543 50.075 103.01 50.075C102.48 50.075 101.995 49.985 101.555 49.805C101.118 49.625 100.743 49.3733 100.43 49.05C100.12 48.7233 99.8783 48.3367 99.705 47.89C99.5317 47.44 99.445 46.9467 99.445 46.41C99.445 45.8767 99.5317 45.385 99.705 44.935C99.8783 44.485 100.12 44.0983 100.43 43.775C100.743 43.4483 101.118 43.195 101.555 43.015C101.995 42.8317 102.48 42.74 103.01 42.74C103.543 42.74 104.028 42.8317 104.465 43.015C104.902 43.195 105.277 43.4483 105.59 43.775C105.903 44.0983 106.145 44.485 106.315 44.935C106.488 45.385 106.575 45.8767 106.575 46.41ZM105.485 46.41C105.485 45.9833 105.427 45.6 105.31 45.26C105.193 44.92 105.027 44.6317 104.81 44.395C104.597 44.1583 104.337 43.9767 104.03 43.85C103.727 43.7233 103.387 43.66 103.01 43.66C102.633 43.66 102.292 43.7233 101.985 43.85C101.682 43.9767 101.422 44.1583 101.205 44.395C100.988 44.6317 100.822 44.92 100.705 45.26C100.588 45.6 100.53 45.9833 100.53 46.41C100.53 46.84 100.588 47.225 100.705 47.565C100.822 47.9017 100.988 48.1883 101.205 48.425C101.422 48.6617 101.682 48.8433 101.985 48.97C102.292 49.0933 102.633 49.155 103.01 49.155C103.387 49.155 103.727 49.0933 104.03 48.97C104.337 48.8433 104.597 48.6617 104.81 48.425C105.027 48.1883 105.193 47.9017 105.31 47.565C105.427 47.225 105.485 46.84 105.485 46.41ZM110.477 49.155C110.747 49.155 110.977 49.1233 111.167 49.06C111.361 48.9967 111.517 48.91 111.637 48.8C111.761 48.69 111.851 48.56 111.907 48.41C111.964 48.2567 111.992 48.09 111.992 47.91C111.992 47.5533 111.869 47.2733 111.622 47.07C111.376 46.8633 110.994 46.76 110.477 46.76H108.977V49.155H110.477ZM108.977 43.655V46.005H110.202C110.726 46.005 111.114 45.9 111.367 45.69C111.624 45.4767 111.752 45.19 111.752 44.83C111.752 44.42 111.631 44.1217 111.387 43.935C111.144 43.7483 110.766 43.655 110.252 43.655H108.977ZM110.252 42.82C110.702 42.82 111.087 42.8633 111.407 42.95C111.731 43.0367 111.996 43.1617 112.202 43.325C112.409 43.4883 112.561 43.6867 112.657 43.92C112.757 44.15 112.807 44.4117 112.807 44.705C112.807 44.8783 112.781 45.045 112.727 45.205C112.674 45.365 112.592 45.515 112.482 45.655C112.372 45.7917 112.234 45.915 112.067 46.025C111.901 46.135 111.704 46.2267 111.477 46.3C112.521 46.5067 113.042 47.0517 113.042 47.935C113.042 48.2417 112.986 48.5217 112.872 48.775C112.759 49.025 112.594 49.2417 112.377 49.425C112.161 49.6083 111.894 49.75 111.577 49.85C111.261 49.95 110.901 50 110.497 50H107.912V42.82H110.252ZM120.671 46.41C120.671 46.9467 120.585 47.435 120.411 47.875C120.241 48.315 120 48.6933 119.686 49.01C119.373 49.3233 118.998 49.5667 118.561 49.74C118.125 49.9133 117.64 50 117.106 50H114.406V42.82H117.106C117.64 42.82 118.125 42.9067 118.561 43.08C118.998 43.2533 119.373 43.4983 119.686 43.815C120 44.1283 120.241 44.5067 120.411 44.95C120.585 45.39 120.671 45.8767 120.671 46.41ZM119.581 46.41C119.581 45.9833 119.523 45.6017 119.406 45.265C119.29 44.925 119.123 44.6383 118.906 44.405C118.693 44.1683 118.433 43.9883 118.126 43.865C117.823 43.7417 117.483 43.68 117.106 43.68H115.476V49.14H117.106C117.483 49.14 117.823 49.0783 118.126 48.955C118.433 48.8317 118.693 48.6533 118.906 48.42C119.123 48.1833 119.29 47.8967 119.406 47.56C119.523 47.2233 119.581 46.84 119.581 46.41Z" fill="white"/>
<path d="M6.92764 49.0567C6.94622 49.0145 6.99329 48.9885 7.0416 48.9971C7.09858 49.0071 7.13575 49.0616 7.12584 49.1187L7.05276 49.5192C7.04285 49.5762 6.98834 49.6134 6.93136 49.6035C6.87438 49.5936 6.83722 49.539 6.84713 49.482L6.92021 49.0815C6.92269 49.0728 6.92517 49.0641 6.92764 49.0567Z" fill="white"/>
<path d="M6.56483 49.366C6.58341 49.3238 6.63048 49.2978 6.67879 49.3065C6.73577 49.3164 6.77293 49.371 6.76302 49.428L6.68994 49.8285C6.68003 49.8856 6.62552 49.9228 6.56854 49.9128C6.51156 49.9029 6.4744 49.8484 6.48431 49.7913L6.55739 49.3908C6.55863 49.3821 6.56111 49.3734 6.56483 49.366Z" fill="white"/>
<path d="M6.22141 49.7205C6.23999 49.6783 6.28706 49.6523 6.33537 49.661C6.39235 49.6709 6.42952 49.7254 6.41961 49.7825L6.34652 50.183C6.33662 50.24 6.28211 50.2772 6.22513 50.2673C6.16815 50.2574 6.13098 50.2028 6.14089 50.1458L6.21398 49.7453C6.21522 49.7354 6.2177 49.7279 6.22141 49.7205Z" fill="white"/>
<path d="M27.9749 23.0941C27.9749 23.0941 36.0175 34.0171 37.8527 39.46C39.6879 44.8998 35.235 48.7667 35.235 48.7667L31.0988 50.3209C31.0988 50.3178 26.8477 31.1076 27.9749 23.0941Z" fill="#352978"/>
<path d="M27.2905 53.6933C23.7754 54.859 15.1862 57.9177 11.4568 56.6805C11.2985 56.6277 11.1525 56.5686 11.0128 56.5003C10.606 56.3013 10.2799 56.034 10.0502 55.6858C8.58758 53.4571 7.13742 44.1038 7.78952 38.6081C7.87026 37.9211 7.91062 37.1751 7.92304 36.3917C7.94167 35.2385 7.90442 34.0044 7.85474 32.7642C7.67153 28.0953 6.93557 24.8718 8.93225 23.7373C10.724 22.7177 12.9908 21.9219 14.4348 21.5769C15.3291 21.3624 16.7948 20.9148 17.8226 20.9334L22.2693 21.7416C22.2693 21.7416 26.1074 22.382 26.9924 23.0379C27.8774 23.6906 28.3308 26.5722 29.93 29.2112C31.5292 31.8503 31.877 34.4987 30.3492 37.3958C29.0202 39.9167 29.253 38.9593 29.0792 43.0935C28.8649 48.1603 34.1562 51.4148 27.2905 53.6933Z" fill="white"/>
<g opacity="0.8">
<g opacity="0.8">
<path opacity="0.8" d="M15.4617 29.9546C15.4617 29.9546 20.281 28.7081 26.4326 29.8583L26.5816 34.1137C26.5816 34.1137 19.8184 33.3615 15.558 34.4463L15.4617 29.9546Z" fill="#CED3E6"/>
</g>
</g>
<g opacity="0.8">
<path opacity="0.8" d="M20.9944 26.3613C20.9292 26.3613 20.864 26.3582 20.7957 26.3551C18.1625 26.2183 15.7466 23.8932 15.6472 23.7938C15.5758 23.7254 15.5758 23.6104 15.6441 23.5389C15.7124 23.4674 15.8273 23.4674 15.8987 23.5358C15.9236 23.5575 18.3177 25.8671 20.8143 25.9945C23.2054 26.122 23.4942 23.7471 23.5066 23.6446C23.519 23.5451 23.606 23.4736 23.7053 23.486C23.8047 23.4954 23.8761 23.5855 23.8637 23.685C23.8637 23.7098 23.547 26.3613 20.9944 26.3613Z" fill="#CED3E6"/>
</g>
<g opacity="0.8">
<path opacity="0.8" d="M13.511 47.6647C13.4924 47.6491 13.4769 47.6336 13.4613 47.6118C13.4085 47.5217 13.4365 47.4067 13.5234 47.3538C16.9485 45.2774 20.2339 44.5469 22.3858 44.2982C24.7241 44.0278 26.2301 44.2454 26.2923 44.2547C26.3947 44.2702 26.4661 44.3666 26.4506 44.4692C26.4351 44.5718 26.3388 44.6432 26.2363 44.6277C26.2208 44.6246 24.7055 44.407 22.4138 44.6743C20.3022 44.9199 17.0759 45.6411 13.716 47.6771C13.6539 47.7175 13.5731 47.7113 13.511 47.6647Z" fill="#CED3E6"/>
</g>
<path d="M18.0127 55.3876C14.8485 54.3836 11.9854 52.3631 10.0322 50.5633C9.87697 50.4203 9.72791 50.2804 9.58507 50.1405C8.57276 49.1552 7.85855 49.6618 7.54802 49.0961C6.36492 46.9295 7.03566 38.4279 7.54802 35.3039C8.06039 32.1831 5.90843 26.4635 7.06669 24.4182C8.22495 22.3728 12.2152 21.6579 12.2152 21.6579C12.2152 21.6579 11.6501 20.9989 12.7214 20.2435C13.7927 19.4882 16.6433 19.8021 16.6433 19.8021C16.7799 33.3114 18.6897 45.8633 18.0127 55.3876Z" fill="#FFC727"/>
<path d="M14.8867 51.5149C14.7997 51.5149 14.7252 51.4527 14.7128 51.3657C13.2719 41.9937 14.6972 24.3626 14.7128 24.1854C14.7221 24.0891 14.8059 24.0176 14.9022 24.0238C14.9985 24.0331 15.073 24.117 15.0637 24.2134C15.0481 24.3906 13.629 41.9782 15.0637 51.3097C15.0792 51.4061 15.0109 51.4962 14.9146 51.5118C14.9053 51.5118 14.896 51.5149 14.8867 51.5149Z" fill="white"/>
<path d="M17.8011 52.9197C17.7172 52.9197 17.6427 52.8607 17.6272 52.7736C15.7423 42.0091 15.5932 23.433 15.5932 23.2465C15.5932 23.1502 15.6709 23.0694 15.7671 23.0694C15.8634 23.0694 15.9441 23.1471 15.9441 23.2434C15.9441 23.4299 16.0963 41.9749 17.975 52.7115C17.9905 52.8078 17.9284 52.898 17.8321 52.9166C17.8197 52.9197 17.8104 52.9197 17.8011 52.9197Z" fill="#084FC7"/>
<path d="M14.685 23.138C14.6694 23.138 14.6539 23.1349 14.6384 23.1318C13.1479 22.7339 12.2349 21.8542 12.1945 21.8169C12.1262 21.7485 12.1231 21.6366 12.1914 21.5682C12.2597 21.4998 12.3715 21.4967 12.4398 21.5651C12.4492 21.5744 13.3279 22.4199 14.7253 22.793C14.8185 22.8178 14.8744 22.9142 14.8495 23.0106C14.834 23.0883 14.7626 23.138 14.685 23.138Z" fill="#084FC7"/>
<path d="M31.7136 49.4884C31.7136 49.4884 30.5864 53.29 26.3881 55.1023C25.8664 44.7947 24.6864 33.023 23.1617 20.5022C23.1617 20.5022 24.7671 20.2193 25.4348 21.1394C25.7236 21.5342 25.7857 22.2056 25.7857 22.2056C25.7857 22.2056 26.6055 22.3641 27.5029 22.7838C28.4003 23.2034 28.2978 23.7785 28.5121 25.2394C28.7264 26.7004 30.9808 28.9602 31.7136 32.0221C32.4465 35.0839 30.5026 37.036 29.897 39.6067C29.2884 42.1711 31.7136 49.4884 31.7136 49.4884Z" fill="#FFC727"/>
<path d="M28.1244 51.0827C28.0281 51.0827 27.9505 51.0081 27.9474 50.9117C27.5406 36.8895 24.9819 24.3594 24.957 24.235C24.9384 24.1387 24.9974 24.0454 25.0937 24.0268C25.1899 24.0081 25.2831 24.0672 25.3017 24.1635C25.3266 24.2879 27.8915 36.846 28.2983 50.9024C28.3014 50.9987 28.2238 51.0827 28.1275 51.0827C28.1275 51.0827 28.1275 51.0827 28.1244 51.0827Z" fill="white"/>
<path d="M24.2541 23.5269C24.1702 23.5269 24.0957 23.4647 24.0802 23.3808C24.0646 23.2844 24.1298 23.1943 24.223 23.1756C24.2354 23.1725 25.3657 22.9674 25.6235 22.1498C25.6514 22.0566 25.7508 22.0037 25.844 22.0348C25.9371 22.0628 25.9868 22.1623 25.9588 22.2555C25.6328 23.2813 24.3348 23.5144 24.282 23.5238C24.2727 23.5269 24.2634 23.5269 24.2541 23.5269Z" fill="#084FC7"/>
<path d="M27.6843 51.0826C27.5974 51.0826 27.5197 51.0174 27.5104 50.9272C26.2683 40.5885 24.3058 24.0672 24.2872 23.9024C24.2748 23.806 24.3462 23.719 24.4424 23.7066C24.5387 23.6941 24.6256 23.7656 24.6381 23.862C24.6567 24.0267 26.6192 40.5512 27.8613 50.8868C27.8737 50.9832 27.8054 51.0702 27.7061 51.0826C27.6967 51.0826 27.6905 51.0826 27.6843 51.0826Z" fill="#084FC7"/>
<path d="M17.2644 58.5056C17.8016 58.8911 18.6463 59.292 19.9163 59.6961C27.1205 61.9902 33.7254 58.288 33.7254 58.288C34.126 56.3142 33.8776 54.0699 33.213 53.2461C33.4211 52.9539 33.2844 52.6058 33.2844 52.6058L39.9142 45.7175C36.1444 48.8446 31.4803 49.8672 27.8502 52.0649C27.8502 52.0649 27.8502 52.0649 27.8471 52.0649C26.8007 52.699 25.8598 53.2554 25.1704 53.644C24.1177 54.2346 22.7762 54.2937 21.4596 54.1103C18.8947 53.7559 16.4353 52.4908 16.4353 52.4908C16.4353 52.4908 8.17844 48.7451 6.63202 48.8694C5.43029 48.9627 11.9078 55.7329 17.2644 58.5056Z" fill="#FAAF3A"/>
<path d="M17.1494 45.8445L16.7519 51.5236C16.7519 51.5236 10.0042 50.56 6.69396 49.7145C5.72823 49.4689 4.64761 49.1518 3.65392 48.6234C1.82493 47.6505 0.309553 45.9564 0.421342 42.6552C0.4555 41.5952 0.660461 40.3705 1.07657 38.9468C3.48624 30.7001 7.52308 23.7745 7.52308 23.7745C12.7182 26.0002 12.2803 29.7054 12.2803 29.7054C10.7991 33.6625 7.52308 42.0895 7.52308 42.0895C9.4266 44.4177 17.1494 45.8445 17.1494 45.8445Z" fill="#352978"/>
<path d="M7.53722 42.2704C7.50616 42.2704 7.47199 42.261 7.44404 42.2424C6.86957 41.888 5.30763 41.5181 5.2921 41.515C5.19584 41.4932 5.13685 41.3969 5.16169 41.3036C5.18343 41.2073 5.27969 41.1513 5.37284 41.1731C5.42874 41.1855 6.52489 41.4435 7.24841 41.7544C7.14283 41.5181 6.96894 41.2663 6.72984 40.9928C6.66463 40.9182 6.67394 40.8094 6.74536 40.7441C6.81989 40.6788 6.92859 40.6882 6.9938 40.7596C7.4099 41.2321 7.6459 41.6611 7.71111 42.0683C7.72353 42.1367 7.69246 42.2051 7.63657 42.2424C7.60552 42.261 7.57137 42.2704 7.53722 42.2704Z" fill="#084FC7"/>
<path d="M6.65398 48.6276C4.82499 47.6547 3.30961 45.9606 3.4214 42.6594C4.87156 43.4179 7.39614 45.255 6.65398 48.6276Z" fill="#8A1A66"/>
<path d="M12.9212 44.9751C12.9056 44.9751 12.8932 44.972 12.8777 44.9688C9.53644 44.1047 7.5056 42.3018 7.42175 42.2241C7.36275 42.1712 7.34725 42.0842 7.3814 42.0127C9.76313 37.3221 11.2723 33.5982 12.1262 30.2908C12.1511 30.1975 12.2473 30.1385 12.3405 30.1633C12.4336 30.1882 12.4926 30.2846 12.4678 30.3778C11.6139 33.6821 10.1171 37.3905 7.75713 42.0469C8.20739 42.4199 10.1202 43.8902 12.9646 44.6238C13.0578 44.6487 13.1168 44.745 13.092 44.8383C13.0702 44.9222 12.9988 44.9751 12.9212 44.9751Z" fill="#084FC7"/>
<path d="M11.5764 32.9233C11.5392 32.9233 11.4988 32.9108 11.4677 32.886C11.3901 32.8238 11.3777 32.715 11.4398 32.6373L12.6788 31.08C12.7409 31.0022 12.8496 30.9898 12.9272 31.052C13.0048 31.1141 13.0173 31.2229 12.9551 31.3007L11.7162 32.858C11.6789 32.8984 11.6261 32.9233 11.5764 32.9233Z" fill="#084FC7"/>
<path d="M17.368 18.607L23.3611 19.4649C27.2551 19.0764 28.4941 17.5253 29.1307 14.249C29.4505 12.6015 29.2394 11.1467 28.9257 10.065C28.845 8.83405 28.5624 7.77096 27.9817 7.06845C25.3516 3.89473 23.0351 4.01907 23.0351 4.01907C21.8582 3.4782 17.9704 3.10829 15.4055 6.22606C15.3247 6.29445 13.7597 7.95436 13.3995 11.4358C13.0517 14.7587 15.2657 18.9987 17.368 18.607Z" fill="#39393B"/>
<path d="M20.7097 4.89205C20.7097 4.89205 21.3339 -0.640979 16.4276 0.0615292C13.2229 0.51847 11.2387 4.86719 14.17 6.84105C17.0983 8.81491 20.7097 4.89205 20.7097 4.89205Z" fill="#39393B"/>
<path d="M14.6518 7.40963C14.627 7.40963 14.6021 7.40341 14.5773 7.39098C14.5028 7.35057 14.4748 7.25421 14.5152 7.17961C15.6517 5.11249 17.2727 4.19861 18.4309 3.79451C19.6885 3.35933 20.6667 3.41217 20.7071 3.41217C20.794 3.41839 20.8592 3.48988 20.853 3.57692C20.8468 3.66396 20.7754 3.72924 20.6884 3.72302C20.6512 3.71991 16.8659 3.54583 14.7885 7.32881C14.7605 7.37855 14.7077 7.40963 14.6518 7.40963Z" fill="#EBB12B"/>
<path d="M17.8488 17.36C17.8488 17.36 14.0263 15.2183 14.7777 10.7607C15.5292 6.30324 18.4606 3.62065 22.9539 4.91376C22.9539 4.91376 22.5191 17.7983 17.8488 17.36Z" fill="#39393B"/>
<path d="M28.424 9.16415C28.424 9.16415 28.8153 12.9906 28.1166 13.544C27.421 14.0973 26.7379 12.5834 26.7379 12.5834C26.7379 12.5834 27.6881 9.20767 28.424 9.16415Z" fill="#39393B"/>
<path d="M26.7068 13.8913C26.7068 13.8913 27.8464 12.8904 28.2253 14.1182C28.6041 15.3461 27.8371 17.6059 26.418 17.006L26.7068 13.8913Z" fill="#D46A43"/>
<path d="M28.1164 16.7251C27.9611 16.8681 27.7872 16.9925 27.5978 17.095C26.8805 17.4805 25.9458 17.5271 24.8217 16.9365C24.8217 16.9365 23.3839 15.0652 25.5079 11.7641C25.5079 11.7641 27.4549 11.2512 28.5697 12.4293C28.6939 12.5598 28.8057 12.709 28.9051 12.8831C28.9672 12.9888 29.02 13.1038 29.0697 13.2281C29.464 14.2322 29.0976 15.833 28.1164 16.7251Z" fill="#FAAF3A"/>
<path d="M28.0721 12.0291C28.1621 11.5877 28.2521 11.0406 28.3111 10.4345C28.2832 10.4469 28.2553 10.4562 28.2242 10.4562C28.1031 10.4655 27.9851 10.4158 27.8671 10.3288C27.8143 10.8945 27.7336 11.4074 27.6528 11.8333L28.0721 12.0291Z" fill="white"/>
<path d="M28.0605 16.7246C27.9052 16.8676 27.7314 16.9919 27.5419 17.0945C28.5263 15.0523 28.5542 13.1872 28.5139 12.4287C28.6381 12.5593 28.7499 12.7085 28.8492 12.8826C28.8492 13.7405 28.7188 15.1517 28.0605 16.7246Z" fill="#217C58"/>
<path d="M23.3412 19.4122L22.8723 22.5765C22.8723 22.5765 20.9377 25.0602 16.4599 21.0099C16.9692 19.723 17.7517 18.0662 17.5499 16.798C17.5499 16.798 17.8759 17.0995 18.4411 17.4569C18.556 17.5315 18.6802 17.6093 18.8106 17.687C19.972 18.3926 21.7482 19.3003 23.3412 19.4122Z" fill="#EA9B7A"/>
<path d="M23.3656 19.4124L23.1451 20.892C21.8378 20.3884 19.5772 19.2974 18.4624 17.4541C18.5773 17.5287 18.7015 17.6064 18.8319 17.6841C19.9964 18.3928 21.7726 19.3005 23.3656 19.4124Z" fill="#39393B"/>
<path d="M27.6887 14.0308C27.639 14.3572 27.5924 14.6649 27.5427 14.9571C27.1825 17.1393 26.8533 18.3143 26.2478 18.7805C23.1829 21.1336 17.7798 16.9745 17.6059 16.8409C17.6028 16.8377 17.6028 16.8377 17.6028 16.8377C17.5842 16.5828 17.5717 16.3311 17.5655 16.0855C17.4941 13.9842 17.7518 12.0818 18.23 10.3069C18.4133 8.38899 19.8075 6.78504 21.6924 6.39959C23.6456 6.00171 25.1858 7.0648 26.1391 7.51863C27.5769 8.2087 28.2352 10.3007 27.8315 13.0796C27.7818 13.4122 27.7352 13.7293 27.6887 14.0308Z" fill="#EA9B7A"/>
<path d="M24.9362 16.5735C23.2221 16.5735 22.5358 14.9322 22.5296 14.9136C22.4986 14.8328 22.5358 14.7426 22.6166 14.7115C22.6973 14.6805 22.7873 14.7178 22.8184 14.7986C22.8494 14.8701 23.5668 16.5735 25.4361 16.2129C25.52 16.1974 25.6007 16.2533 25.6193 16.3373C25.6349 16.4212 25.579 16.502 25.4951 16.5207C25.2964 16.5548 25.1101 16.5735 24.9362 16.5735Z" fill="#39393B"/>
<path d="M23.6087 10.6486C24.0496 10.4962 23.9596 9.84658 23.4938 9.81549C22.7019 9.76576 21.4288 9.78441 21.3232 10.4248C21.1679 11.3604 22.646 10.9718 23.5807 10.6579C23.59 10.6548 23.5994 10.6517 23.6087 10.6486Z" fill="#39393B"/>
<path d="M25.9482 10.9253C25.6066 10.6083 25.9513 10.0487 26.3891 10.2104C27.1344 10.4839 28.2926 11.0155 28.1312 11.6434C27.8983 12.5635 26.6997 11.6092 25.9699 10.9471C25.9606 10.9377 25.9544 10.9315 25.9482 10.9253Z" fill="#39393B"/>
<path d="M23.6791 17.3382C23.9928 17.4159 24.2567 17.3568 24.2754 17.3506C24.3313 17.3382 24.3654 17.2822 24.353 17.2263C24.3406 17.1703 24.2847 17.1361 24.2288 17.1486C24.2226 17.1486 23.7102 17.2636 23.322 16.9216C23.2786 16.8843 23.2134 16.8874 23.1761 16.931C23.1388 16.9745 23.1419 17.0398 23.1854 17.0771C23.3438 17.22 23.5177 17.2978 23.6791 17.3382Z" fill="#D46A43"/>
<path d="M24.7263 15.2054C24.6984 15.193 24.6797 15.1681 24.6673 15.1401C24.6487 15.0811 24.6797 15.0158 24.7387 14.9972L25.4871 14.7516L25.0431 14.3009C25.0182 14.276 25.0058 14.2418 25.012 14.2076L25.1486 12.9673C25.1548 12.9052 25.2107 12.8585 25.276 12.8679C25.3381 12.8741 25.3846 12.93 25.3753 12.9922L25.2418 14.1765L25.7759 14.7174C25.8038 14.7454 25.8163 14.7858 25.8069 14.8231C25.7976 14.8604 25.7697 14.8915 25.7324 14.9039L24.8102 15.2085C24.7822 15.2241 24.7543 15.221 24.7263 15.2054Z" fill="#39393B"/>
<path d="M22.812 14.0219C22.7748 14.2799 22.2127 14.4073 21.5606 14.311C20.9085 14.2146 20.4086 13.9255 20.4489 13.6675C20.4862 13.4095 21.0482 13.2821 21.7003 13.3785C22.3493 13.4779 22.8493 13.7639 22.812 14.0219Z" fill="#D46A43"/>
<g opacity="0.8">
<g opacity="0.8">
<g opacity="0.8">
<g opacity="0.8">
<g opacity="0.8">
<g opacity="0.8">
<g opacity="0.8">
<g opacity="0.8">
<g opacity="0.8">
<g opacity="0.8">
<g opacity="0.8">
<path opacity="0.8" d="M27.7477 14.331C27.698 14.6574 27.6514 14.9651 27.6017 15.2573C27.0055 15.1454 26.5677 14.875 26.6049 14.6356C26.6391 14.3901 27.1421 14.2626 27.7477 14.331Z" fill="#D46A43"/>
</g>
</g>
</g>
</g>
</g>
</g>
</g>
</g>
</g>
</g>
</g>
<path d="M23.4618 13.1015C23.409 13.4559 23.2071 13.717 23.0084 13.689C22.8097 13.6611 22.6948 13.3502 22.7445 12.9958C22.7972 12.6415 22.9991 12.3804 23.1978 12.4083C23.3966 12.4363 23.5146 12.7472 23.4618 13.1015Z" fill="#39393B"/>
<path d="M26.9783 13.6209C26.9255 13.9753 26.7237 14.2364 26.525 14.2084C26.3262 14.1804 26.2113 13.8696 26.261 13.5152C26.3138 13.1609 26.5156 12.8998 26.7144 12.9277C26.9162 12.9588 27.0311 13.2697 26.9783 13.6209Z" fill="#39393B"/>
<path d="M18.9384 15.5782C18.9167 15.6155 18.2926 16.6226 17.5753 16.8402C17.5721 16.8371 17.5721 16.8371 17.5721 16.8371C17.5535 16.5822 17.5411 16.3304 17.5349 16.0849C17.5597 16.0818 18.2491 16.0631 18.9384 15.5782Z" fill="#39393B"/>
<path d="M18.6333 13.0266C18.6333 13.0266 17.503 10.9191 16.2485 12.2557C15.2144 13.3561 16.3323 16.8686 18.2358 15.9299L18.6333 13.0266Z" fill="#EA9B7A"/>
<path d="M18.1328 15.3545C18.0583 15.342 18.0055 15.2798 18.0086 15.2021C18.0645 13.7412 16.9373 13.0635 16.8907 13.0356C16.8224 12.9951 16.7976 12.905 16.8379 12.8335C16.8783 12.762 16.9683 12.7403 17.0398 12.7807C17.0925 12.8117 18.3688 13.5733 18.3036 15.2146C18.3005 15.2954 18.2322 15.3576 18.1514 15.3545C18.1421 15.3545 18.139 15.3545 18.1328 15.3545Z" fill="#39393B"/>
<path d="M16.8757 14.2687C16.8322 14.2625 16.795 14.2376 16.7701 14.1972C16.7298 14.1288 16.7515 14.0386 16.8229 13.9951C16.8881 13.9578 17.4688 13.6221 17.888 13.7993C17.9626 13.8304 17.9967 13.9174 17.9657 13.992C17.9346 14.0666 17.8477 14.1008 17.7731 14.0697C17.5309 13.9672 17.1024 14.1692 16.972 14.2469C16.9409 14.2687 16.9068 14.2749 16.8757 14.2687Z" fill="#39393B"/>
<path d="M22.2037 14.9579C21.0982 14.5351 20.5424 13.2917 20.9647 12.1851C21.387 11.0785 22.6291 10.5221 23.7346 10.9449C24.8401 11.3676 25.3959 12.611 24.9736 13.7176C24.5513 14.8242 23.3092 15.3806 22.2037 14.9579ZM23.6228 11.2371C22.6788 10.8765 21.6168 11.3521 21.2566 12.297C20.8964 13.242 21.3715 14.3051 22.3155 14.6657C23.2595 15.0262 24.3215 14.5507 24.6817 13.6057C25.0419 12.6607 24.5668 11.5976 23.6228 11.2371Z" fill="white"/>
<path d="M21.0135 12.4693C20.9949 12.4693 20.9763 12.4631 20.9576 12.4537C19.7963 11.9222 18.7063 12.3263 18.6939 12.3325C18.6132 12.3636 18.5231 12.3232 18.4921 12.2424C18.461 12.1615 18.5014 12.0714 18.5821 12.0403C18.6318 12.0217 19.8087 11.5834 21.0881 12.1709C21.1657 12.2082 21.1998 12.3014 21.1657 12.3791C21.1346 12.4382 21.0756 12.4724 21.0135 12.4693Z" fill="white"/>
<path d="M26.9256 15.495C25.8201 15.0723 25.2643 13.8289 25.6866 12.7223C26.1089 11.6157 27.351 11.0592 28.4564 11.482C29.5619 11.9047 30.1178 13.1481 29.6954 14.2547C29.2762 15.3613 28.031 15.9177 26.9256 15.495ZM28.3478 11.7742C27.4038 11.4136 26.3418 11.8892 25.9816 12.8342C25.6214 13.7791 26.0965 14.8422 27.0405 15.2028C27.9845 15.5634 29.0464 15.0878 29.4067 14.1428C29.7638 13.1979 29.2918 12.1348 28.3478 11.7742Z" fill="white"/>
<path d="M24.8316 12.8055C24.8067 12.7931 24.7881 12.7744 24.7726 12.7496C24.726 12.675 24.7477 12.5786 24.8223 12.532C24.844 12.5195 25.3657 12.1994 25.9091 12.6159C25.9774 12.6688 25.9898 12.7682 25.937 12.8366C25.8843 12.905 25.7849 12.9174 25.7166 12.8646C25.3439 12.5786 24.9899 12.7962 24.9868 12.7962C24.9372 12.8304 24.8782 12.8304 24.8316 12.8055Z" fill="white"/>
<path d="M25.974 5.58851C27.2782 6.176 28.3029 7.26396 28.7594 8.61924C29.0451 9.46784 29.2842 10.59 28.0918 10.4439C24.8375 10.0491 23.0954 6.66713 23.0954 6.66713C23.0954 6.66713 22.4619 9.78179 19.9063 9.40256C17.3507 9.02022 17.4314 7.09299 18.8847 6.00192C20.0678 5.11291 23.083 4.28607 25.974 5.58851Z" fill="#39393B"/>
<path d="M20.0329 9.04349C20.0329 9.04349 18.5796 10.607 19.1013 12.2887C19.623 13.9704 19.6571 15.3194 19.1137 16.224C19.1137 16.224 18.974 14.4522 18.325 13.1093C17.794 12.0058 17.2971 11.1666 17.6822 9.89521C17.943 9.02174 18.5827 8.18556 20.0329 9.04349Z" fill="#39393B"/>
<path d="M17.6484 16.6726C16.5212 16.9461 15.6486 16.7876 15.0027 16.3804C14.9002 16.3151 14.804 16.2436 14.7108 16.169C13.3569 15.0344 13.2576 12.6814 14.0867 11.5281C14.3786 11.1209 14.7171 10.8474 15.0742 10.6733C15.1828 10.6173 15.2915 10.5738 15.4002 10.5396C16.8007 10.0796 18.3192 10.922 18.3192 10.922C19.9059 15.2955 17.6484 16.6726 17.6484 16.6726Z" fill="#FAAF3A"/>
<path d="M21.6103 18.588C18.3156 17.9135 16.9151 15.5387 16.8499 15.4236C16.7971 15.3335 16.8282 15.2154 16.9213 15.1625C17.0114 15.1097 17.1294 15.1408 17.1822 15.234C17.2039 15.2713 18.9149 18.1498 22.9083 18.3673C23.0139 18.3736 23.0946 18.4637 23.0884 18.5694C23.0822 18.6751 22.9921 18.7559 22.8866 18.7497C22.4332 18.7248 22.0078 18.6689 21.6103 18.588Z" fill="white"/>
<path d="M23.9689 18.6994C23.9006 19.0288 23.5776 19.2433 23.2485 19.175C22.9193 19.1066 22.705 18.7833 22.7734 18.4538C22.8417 18.1243 23.1646 17.9098 23.4938 17.9782C23.8229 18.0435 24.0372 18.3668 23.9689 18.6994Z" fill="#243434"/>
<path d="M15.0226 16.3842C14.9202 16.319 14.8239 16.2475 14.7307 16.1729C15.7741 13.8104 15.4201 11.7464 15.091 10.6771C15.1996 10.6212 15.3083 10.5777 15.417 10.5435C15.7679 11.6749 16.153 13.8788 15.0226 16.3842Z" fill="#217C58"/>
<path d="M28.3475 7.732C28.0712 7.21289 27.7638 6.86786 27.6116 6.69689C27.4843 6.32699 27.3476 5.97884 27.1427 5.65556C26.4533 4.56139 25.3634 3.88997 23.8977 3.66305C22.3171 3.41748 20.9446 3.73143 19.8205 4.59247C19.4696 4.8598 19.1591 5.17376 18.8796 5.50947C18.4946 5.97884 18.1747 6.49795 17.9139 7.01706C17.0072 8.83239 16.7898 10.6975 16.7867 10.7223L16.355 10.6757C16.3737 10.4985 16.8612 6.30834 19.5535 4.24433C20.7738 3.30869 22.2581 2.96676 23.9629 3.23098C25.559 3.47655 26.7515 4.21635 27.5091 5.42243C27.9501 6.12183 28.2109 6.91759 28.3475 7.732Z" fill="white"/>
<path d="M11.978 55.5719L10.4751 52.7121C10.0993 52.0003 10.6241 51.1454 11.4284 51.1517L35.0376 51.4065L34.3421 55.0683L11.978 55.5719Z" fill="#39393B"/>
<path d="M33.9406 54.7672H12.8124C12.3031 54.7672 11.9336 54.3538 11.9926 53.844L13.4335 40.7761C13.4893 40.2663 13.9489 39.8529 14.4582 39.8529H35.5863C36.0956 39.8529 36.4651 40.2663 36.4061 40.7761L34.9653 53.844C34.9094 54.3538 34.4498 54.7672 33.9406 54.7672Z" fill="#D6DCF1"/>
<path d="M12.5149 55.3298C12.5087 55.3298 12.4993 55.3298 12.4931 55.3298C12.3969 55.3174 12.3254 55.2272 12.3379 55.1309L14.0923 41.1366C14.1048 41.0403 14.1948 40.9688 14.2911 40.9812C14.3873 40.9937 14.4588 41.0838 14.4463 41.1802L12.6919 55.1744C12.6794 55.2645 12.6018 55.3298 12.5149 55.3298Z" fill="#564C54"/>
<path d="M22.7928 47.5431C22.712 48.5938 23.4853 49.4983 24.5162 49.5636C25.5503 49.6289 26.4539 48.8331 26.5346 47.7825C26.6154 46.7318 25.8421 45.8272 24.8112 45.762C23.7771 45.6936 22.8735 46.4924 22.7928 47.5431Z" fill="#6C6C6C"/>
<path d="M34.0472 55.9049H12.6272C12.1552 55.9049 11.795 55.4884 11.8571 55.0221L12.062 53.527H35.0502L34.8173 55.2304C34.7645 55.619 34.4354 55.9049 34.0472 55.9049Z" fill="#39393B"/>
<path d="M116.459 124.398C116.41 122.516 115.769 120.921 114.537 119.613C113.305 118.305 111.802 117.625 110.03 117.573V116C111.111 116.021 112.127 116.256 113.078 116.704C114.028 117.152 114.861 117.755 115.574 118.512C116.288 119.27 116.856 120.153 117.278 121.162C117.7 122.171 117.921 123.25 117.941 124.398H116.459ZM112.77 124.398C112.721 123.611 112.437 122.946 111.918 122.401C111.4 121.855 110.77 121.557 110.03 121.504V119.932C111.18 119.984 112.159 120.436 112.967 121.288C113.774 122.14 114.202 123.176 114.252 124.398H112.77ZM117.022 133C115.259 133 113.481 132.564 111.689 131.691C109.896 130.818 108.244 129.58 106.733 127.976C105.222 126.371 104.056 124.618 103.233 122.715C102.411 120.812 102 118.925 102 117.054C102 116.757 102.093 116.51 102.279 116.312C102.466 116.115 102.698 116.016 102.978 116.016H106.252C106.459 116.016 106.639 116.093 106.793 116.248C106.946 116.402 107.047 116.592 107.096 116.818L107.688 119.895C107.718 120.129 107.714 120.335 107.674 120.514C107.635 120.692 107.554 120.845 107.434 120.973L105.237 123.328C105.593 123.984 105.982 124.601 106.404 125.18C106.826 125.759 107.291 126.311 107.8 126.835C108.319 127.396 108.864 127.911 109.437 128.381C110.01 128.85 110.612 129.268 111.244 129.635L113.348 127.354C113.491 127.192 113.664 127.078 113.865 127.012C114.067 126.947 114.265 126.93 114.459 126.961L117.244 127.59C117.462 127.653 117.642 127.775 117.785 127.957C117.928 128.138 118 128.341 118 128.565V131.962C118 132.259 117.907 132.506 117.721 132.703C117.534 132.901 117.302 133 117.022 133ZM104.511 121.866L106.2 120.057L105.733 117.588H103.489C103.533 118.244 103.635 118.92 103.793 119.617C103.951 120.314 104.19 121.064 104.511 121.866ZM112.63 130.389C113.227 130.678 113.863 130.911 114.537 131.089C115.211 131.267 115.872 131.375 116.518 131.412V129.037L114.296 128.557L112.63 130.389Z" fill="white"/>
<path d="M119.5 36C117.962 36 116.661 35.7632 115.597 35.2896C114.532 34.816 114 34.238 114 33.5556V27.4444C114 26.7722 114.537 26.1968 115.612 25.7181C116.686 25.2394 117.982 25 119.5 25C121.018 25 122.314 25.2394 123.388 25.7181C124.463 26.1968 125 26.7722 125 27.4444V33.5556C125 34.238 124.468 34.816 123.403 35.2896C122.339 35.7632 121.038 36 119.5 36ZM119.5 28.5903C120.386 28.5903 121.289 28.457 122.209 28.1905C123.129 27.924 123.696 27.6295 123.91 27.3069C123.69 26.9912 123.12 26.6975 122.202 26.4259C121.283 26.1543 120.383 26.0186 119.5 26.0186C118.594 26.0186 117.69 26.1501 116.788 26.4132C115.887 26.6763 115.317 26.9742 115.08 27.3069C115.317 27.6464 115.883 27.9452 116.778 28.2033C117.673 28.4613 118.58 28.5903 119.5 28.5903ZM119.49 31.7833C119.918 31.7833 120.34 31.7613 120.758 31.7172C121.175 31.673 121.575 31.6076 121.957 31.521C122.339 31.4344 122.702 31.3284 123.047 31.2028C123.392 31.0772 123.703 30.9363 123.981 30.78V28.5903C123.696 28.7464 123.381 28.8873 123.037 29.013C122.692 29.1386 122.327 29.2447 121.942 29.3313C121.557 29.4178 121.159 29.4849 120.748 29.5325C120.337 29.5799 119.918 29.6037 119.49 29.6037C119.062 29.6037 118.638 29.5799 118.217 29.5325C117.796 29.4849 117.394 29.4178 117.012 29.3313C116.63 29.2447 116.27 29.1386 115.93 29.013C115.591 28.8873 115.287 28.7464 115.019 28.5903V30.78C115.287 30.9363 115.589 31.0772 115.925 31.2028C116.261 31.3284 116.62 31.4344 117.002 31.521C117.384 31.6076 117.785 31.673 118.206 31.7172C118.627 31.7613 119.055 31.7833 119.49 31.7833ZM119.5 34.9814C119.982 34.9814 120.477 34.9407 120.985 34.8592C121.492 34.7777 121.958 34.67 122.382 34.5359C122.807 34.4018 123.165 34.2524 123.457 34.0877C123.749 33.9231 123.924 33.7542 123.981 33.5811V31.8088C123.703 31.965 123.392 32.1042 123.047 32.2264C122.702 32.3486 122.339 32.453 121.957 32.5396C121.575 32.6262 121.177 32.6915 120.763 32.7356C120.349 32.7798 119.924 32.8019 119.49 32.8019C119.055 32.8019 118.627 32.7798 118.206 32.7356C117.785 32.6915 117.384 32.6262 117.002 32.5396C116.62 32.453 116.261 32.3486 115.925 32.2264C115.589 32.1042 115.287 31.965 115.019 31.8088V33.5963C115.069 33.7627 115.238 33.929 115.525 34.0953C115.812 34.2617 116.169 34.4103 116.597 34.541C117.025 34.6716 117.494 34.7777 118.003 34.8592C118.512 34.9407 119.011 34.9814 119.5 34.9814Z" fill="white"/>
<path d="M97.1068 36C95.6909 36 94.4858 35.5474 93.4915 34.6423C92.4972 33.7372 92 32.635 92 31.3357C92 30.1971 92.3898 29.1922 93.1693 28.3211C93.9489 27.4501 94.9485 26.9148 96.1683 26.7153C96.5129 25.3236 97.2765 24.1898 98.4592 23.3139C99.6417 22.438 100.999 22 102.532 22C104.34 22 105.869 22.5949 107.118 23.7847C108.366 24.9745 108.991 26.4088 108.991 28.0876V28.438C110.12 28.4574 111.071 28.8284 111.843 29.5511C112.614 30.2737 113 31.163 113 32.2189C113 33.2554 112.596 34.1447 111.787 34.8869C110.978 35.629 110.009 36 108.879 36H97.1068ZM97.1068 34.5401H108.879C109.579 34.5401 110.176 34.3138 110.669 33.8612C111.162 33.4087 111.409 32.8612 111.409 32.2189C111.409 31.5765 111.162 31.0291 110.669 30.5765C110.176 30.124 109.579 29.8977 108.879 29.8977H107.4V28.0876C107.4 26.798 106.921 25.7043 105.964 24.8064C105.007 23.9086 103.842 23.4597 102.468 23.4597C101.095 23.4597 99.9266 23.9086 98.9641 24.8064C98.0016 25.7043 97.5204 26.798 97.5204 28.0876H97.0591C96.0939 28.0876 95.2746 28.399 94.6011 29.0218C93.9277 29.6447 93.591 30.4087 93.591 31.3138C93.591 32.2092 93.933 32.9707 94.6171 33.5985C95.3012 34.2262 96.1311 34.5401 97.1068 34.5401Z" fill="white"/>
<path d="M45 39L50 41.8868L50 36.1133L45 39ZM73 39L73 38.5L49.5 38.5L49.5 39L49.5 39.5L73 39.5L73 39Z" fill="#6C6C6C"/>
<path d="M110 95L112.887 90L107.113 90L110 95ZM110 67L109.5 67L109.5 90.5L110 90.5L110.5 90.5L110.5 67L110 67Z" fill="#6C6C6C"/>
<path d="M173 39L168 36.1132V41.8868L173 39ZM145 39V39.5H168.5V39V38.5H145V39Z" fill="#6C6C6C"/>
<path d="M201.79 58.3992C223.03 58.3992 240.248 56.4971 240.248 54.1506C240.248 51.8042 223.03 49.9021 201.79 49.9021C180.551 49.9021 163.333 51.8042 163.333 54.1506C163.333 56.4971 180.551 58.3992 201.79 58.3992Z" fill="#37474F" fill-opacity="0.11"/>
<path d="M180.674 28.1489L180.65 28.3314C180.65 28.3314 180.65 28.3618 180.627 28.3618C180.604 28.3618 180.581 28.3618 180.557 28.3314V28.301V28.2706L180.581 28.2097C180.581 28.2097 180.581 28.2097 180.581 28.1793C180.371 27.1756 180.302 26.1111 180.069 25.1074C179.837 24.1037 179.604 23.1913 179.465 22.218C179.372 21.6097 179.046 18.5074 180.092 18.8724C180.557 19.0549 180.883 19.9369 181.046 20.454C181.278 21.1535 181.394 21.9139 181.441 22.6742C181.487 24.6208 180.976 26.324 180.674 28.1489Z" fill="#0DC155"/>
<path d="M206.078 29.678C206.545 28.4997 206.813 27.0595 207.58 25.9598C207.847 25.5408 208.382 25.2528 208.983 25.2004C209.016 25.2004 209.083 25.1742 209.116 25.2004C209.183 25.2004 209.25 25.2004 209.316 25.2266C209.45 25.2266 209.55 25.2528 209.684 25.279C209.917 25.3313 210.184 25.4884 210.251 25.6717V25.6979C211.119 26.6929 210.819 28.7877 210.685 29.5471C210.485 30.7515 210.051 33.9199 207.38 33.6318C204.809 33.37 205.644 30.8039 206.078 29.678Z" fill="black"/>
<path d="M204.156 37.8809H205.558C205.638 37.3659 205.598 36.8509 205.357 36.3645C204.877 35.1914 203.955 33.9038 204.236 32.6735C204.236 32.6162 204.076 32.559 204.036 32.6162C202.914 34.3616 203.835 36.107 204.156 37.8809Z" fill="black"/>
<path d="M172.015 55.7607C172.227 55.1142 183.737 40.2736 184.522 39.9965C184.613 39.9657 189.537 43.6913 189.537 43.6913C189.749 43.9684 199.295 42.121 199.295 42.121L199.144 53.821L181.803 53.0821C181.803 53.0821 179.447 54.4368 177.272 55.5452C176.335 56.0378 175.399 56.4997 174.432 56.8692C173.556 57.1155 171.774 56.4073 172.015 55.7607Z" fill="#AD6359"/>
<path d="M174.43 56.8784C175.398 56.5088 176.366 56.0467 177.274 55.5538C179.452 54.4447 181.811 53.0893 181.811 53.0893L185.683 53.2433L191.944 43.4468C190.613 43.6625 189.615 43.7857 189.555 43.6933C189.555 43.6933 184.624 39.9657 184.533 39.9965C183.747 40.2738 172.222 55.1225 172.011 55.7694C171.799 56.4163 173.553 57.0941 174.43 56.8784Z" fill="white"/>
<path d="M172.01 55.7151C172.24 55.0707 183.238 40.2792 183.986 40.003C184.274 39.8802 186.577 41.476 188.794 43.6855L181.683 53.1987C181.683 53.1987 175.234 56.6664 174.37 56.8812C173.507 57.096 171.808 56.3595 172.01 55.7151Z" fill="#A4287C"/>
<path d="M173.097 53.7164C174.888 51.6697 181.916 43.2238 183.544 41.0735C183.544 41.0476 183.544 41.0476 183.517 41.0735C181.699 43.0684 174.725 51.566 173.043 53.7164C173.043 53.7423 173.07 53.7682 173.097 53.7164Z" fill="#263238"/>
<path d="M180.496 53.7308C181.166 52.6174 181.629 50.9822 181.371 49.5557C181.371 49.4861 181.294 49.5209 181.294 49.5557C181.114 50.9474 180.805 52.3391 180.394 53.6264C180.394 53.6612 180.419 53.7308 180.445 53.7308C180.471 53.7656 180.496 53.7308 180.496 53.7308Z" fill="#263238"/>
<path d="M179.469 53.7202C180.122 52.6096 180.574 50.9785 180.323 49.5556C180.323 49.4862 180.248 49.5209 180.248 49.5556C180.047 50.9438 179.771 52.332 179.344 53.6161C179.344 53.6508 179.344 53.7202 179.394 53.7202C179.419 53.7549 179.444 53.7549 179.469 53.7202Z" fill="#263238"/>
<path d="M179.456 53.6892C180.118 52.5868 180.577 50.9677 180.322 49.5553C180.322 49.4864 180.246 49.5208 180.246 49.5553C180.042 50.9332 179.762 52.2768 179.354 53.5858C179.329 53.6203 179.354 53.6892 179.38 53.7236C179.405 53.7581 179.456 53.7581 179.456 53.6892Z" fill="#263238"/>
<path d="M178.419 53.7203C179.072 52.889 179.524 51.6682 179.273 50.6032C179.273 50.5512 179.198 50.5772 179.198 50.6032C178.997 51.6422 178.72 52.6812 178.293 53.6683C178.293 53.6943 178.319 53.7462 178.344 53.7462C178.369 53.7462 178.394 53.7203 178.419 53.7203Z" fill="#263238"/>
<path d="M185.41 43.8353C186.259 42.7698 184.59 41.4379 183.77 42.5034C182.95 43.5689 184.56 44.9009 185.41 43.8353Z" fill="#263238"/>
<path d="M182.432 56.8821C183.561 56.6354 183.686 55.3608 183.435 54.4974C182.975 53.0173 182.097 51.6605 180.968 50.5915C180.968 50.5915 180.926 50.5503 180.885 50.5915C180.801 50.5503 180.676 50.5914 180.592 50.6737V50.7148C180.508 52.1949 180.216 53.7573 180.55 55.1964C180.759 56.1009 181.386 57.1288 182.432 56.8821ZM180.885 53.0173C180.926 52.2772 180.968 51.5782 180.968 50.8381C181.47 51.5782 181.93 52.3594 182.348 53.1406C182.557 53.5106 182.724 53.9218 182.85 54.333C183.059 54.9497 183.143 57.1699 181.554 56.142C180.717 55.6075 180.843 53.8807 180.885 53.0173Z" fill="#263238"/>
<path d="M183.385 49.1233C182.502 50.0236 182.012 51.2841 181.456 52.4005C181.424 52.4725 181.456 52.5805 181.522 52.6525C181.522 52.6525 181.554 52.6525 181.587 52.6525C181.587 52.6886 181.587 52.6886 181.62 52.6886C182.829 52.4725 184.006 51.8963 184.954 50.996C185.509 50.4918 185.967 49.4834 185.346 48.7992C184.725 48.1149 183.908 48.5831 183.385 49.1233ZM184.496 48.9432C185.967 48.9432 184.954 50.5278 184.529 50.8879C184.267 51.104 183.973 51.3201 183.679 51.5361C183.058 51.9323 182.404 52.2564 181.751 52.5805C182.077 52.0403 182.339 51.5001 182.633 50.9599C182.993 50.2397 183.679 48.9432 184.496 48.9432Z" fill="#263238"/>
<path d="M199.481 38.5647L207.188 37.9293C207.188 37.9293 218.317 34.4983 224.744 36.2773C232.124 38.3423 233.135 47.5236 225.667 51.2088C218.257 54.8622 185.644 53.4962 185.644 53.4962L192.637 42.4405C192.637 42.4405 203.379 39.7402 212.782 40.2802L199.481 41.9005V38.5647Z" fill="#263238"/>
<path d="M199.375 41.7712C200.459 41.4834 201.515 41.2915 202.598 41.1476C203.682 40.9557 204.766 40.8598 205.877 40.7159C208.045 40.476 210.24 40.4281 212.407 40.524L213.019 40.572C213.074 40.572 213.102 40.524 213.158 40.524C213.269 40.476 213.38 40.4281 213.463 40.4281C213.658 40.3801 213.852 40.3321 214.047 40.2841C214.464 40.1882 214.88 40.1402 215.297 39.9963C215.297 39.9963 215.325 39.9963 215.325 40.0443C215.325 40.0923 215.325 40.0923 215.297 40.0923C214.88 40.2362 214.464 40.4281 214.047 40.572L213.685 40.6679C214.491 40.7639 215.269 40.9078 216.075 41.0517C216.103 41.0517 216.103 41.0996 216.075 41.0996C214.991 40.9557 213.908 40.9078 212.824 40.9078C211.74 40.9078 210.657 40.9078 209.601 40.9557C207.406 41.0997 205.238 41.3395 203.071 41.6753C201.848 41.8672 200.626 42.0591 199.403 42.107C199.264 42.155 199.264 41.8192 199.375 41.7712Z" fill="#263238"/>
<path d="M188.809 52.6536C189.291 51.9879 189.737 51.2618 190.184 50.5659L191.559 48.4782C192.487 47.0863 195.752 42.4571 196.096 42.1242C196.13 42.094 196.165 42.1242 196.13 42.1545C195.959 42.5176 193.896 45.6038 193.45 46.2694C192.487 47.631 191.525 48.9925 190.528 50.3541C190.253 50.7474 189.978 51.1105 189.669 51.5038C189.359 51.8972 189.084 52.2905 188.809 52.6536C188.809 52.7141 188.775 52.6838 188.809 52.6536Z" fill="#263238"/>
<path d="M227.633 57.0096C227.443 56.4204 216.095 42.3924 215.303 42.1119C215.208 42.0838 209.85 45.2542 209.85 45.2542C209.629 45.5067 199.707 43.4025 199.707 43.4025L199.295 54.0637L217.49 54.1479C217.49 54.1479 219.899 55.4946 222.118 56.5888C223.069 57.0938 224.02 57.5427 225.034 57.9355C225.953 58.1319 227.823 57.5988 227.633 57.0096Z" fill="#AD6359"/>
<path d="M225.048 57.9264C224.051 57.5339 223.117 57.0852 222.182 56.5805C220.001 55.487 217.634 54.1411 217.634 54.1411L213.646 54.1131L207.695 44.9163C209.066 45.1687 210.063 45.3369 210.157 45.2528C210.157 45.2528 215.422 42.0563 215.515 42.1124C216.294 42.3928 227.447 56.4123 227.634 57.0011C227.821 57.5899 225.92 58.1507 225.048 57.9264Z" fill="white"/>
<path d="M200.259 38.7817L192.683 38.584C192.683 38.584 184.872 34.7158 178.47 36.0429C171.128 37.5393 169.953 46.3487 175.327 49.5957C182.14 53.718 212.946 53.7462 212.946 53.7462L206.603 42.7346C206.603 42.7346 196.412 40.3911 187.133 40.4758L200.171 42.5369L200.259 38.7817Z" fill="#263238"/>
<path d="M207.695 45.2295C207.695 45.1905 207.695 45.1905 207.695 45.1514V45.0733L207.666 44.9171C207.637 44.7999 207.637 44.7218 207.609 44.6047C207.58 44.5266 207.551 44.4094 207.522 44.3313C207.493 44.2532 207.435 44.136 207.406 44.0579C207.406 44.0579 207.406 44.0579 207.377 44.0579H207.348H207.319C206.219 43.7455 198.689 42.0271 197.589 41.7928C196.488 41.5585 195.33 41.4023 194.201 41.207C191.942 40.8555 189.683 40.6603 187.395 40.6212H186.758L186.613 40.5821L186.295 40.465C186.092 40.4259 185.889 40.3478 185.687 40.3088C185.252 40.1916 184.818 40.1135 184.413 39.9963C184.384 39.9963 184.384 40.0354 184.413 40.0354C184.847 40.1916 185.252 40.3478 185.687 40.504L186.063 40.6212C185.223 40.6603 184.384 40.6993 183.573 40.7774C183.573 40.7774 183.544 40.7774 183.544 40.8165C183.544 40.8555 183.544 40.8555 183.573 40.8555C184.702 40.8165 185.832 40.8555 186.99 40.8946C188.148 40.9336 189.249 41.0508 190.349 41.1679C192.608 41.4413 194.867 41.7928 197.125 42.1833C198.4 42.4177 206.045 44.1751 207.319 44.3313C207.319 44.3703 207.348 44.4094 207.348 44.4485C207.348 44.4875 207.406 44.6437 207.464 44.7218C207.522 44.7999 207.522 44.9171 207.58 44.9952L207.637 45.1124L207.666 45.1905C207.666 45.2295 207.695 45.2295 207.695 45.2686C207.666 45.3076 207.695 45.2686 207.695 45.2295Z" fill="#263238"/>
<path d="M211.879 53.7344C211.396 53.1243 210.95 52.4877 210.505 51.8511L209.13 49.9677C208.201 48.721 204.932 44.5298 204.598 44.238C204.561 44.2115 204.523 44.238 204.561 44.2646C204.709 44.5829 206.752 47.3681 207.235 47.9782C208.164 49.225 209.167 50.4186 210.17 51.6654C210.467 52.0102 210.727 52.355 211.025 52.6999C211.322 53.0447 211.619 53.3896 211.879 53.7344C211.916 53.7344 211.879 53.7609 211.879 53.7344Z" fill="#263238"/>
<path d="M186.38 6.27601L187.729 16.2518C187.797 16.5551 187.628 16.7573 187.358 16.7236L182.365 16.1507C182.062 16.0833 181.792 15.8474 181.724 15.5441L180.408 5.56827C180.341 5.26495 180.51 5.06273 180.78 5.09643L185.772 5.66937C186.076 5.77048 186.312 5.97269 186.38 6.27601Z" fill="#37474F"/>
<path d="M186.192 6.27601L187.727 16.2518C187.804 16.5551 187.612 16.7573 187.305 16.7236L181.625 16.1507C181.279 16.0833 180.972 15.8474 180.896 15.5441L179.36 5.56826C179.284 5.26494 179.476 5.06273 179.783 5.09644L185.463 5.66936C185.808 5.73677 186.115 5.97269 186.192 6.27601Z" fill="#455A64"/>
<path d="M198.36 20.8061C195.331 26.3944 188.979 33.3305 186.714 33.5935C185.626 33.725 183.656 33.7579 182.362 32.18C179.538 28.7612 177.48 22.5812 177.244 19.1625C177.156 17.9462 182.597 15.9739 183.273 17.0258C184.861 19.5241 186.508 24.2248 186.832 24.2248C188.008 24.2577 192.449 20.839 196.037 18.4064C200.301 15.5465 199.566 18.5708 198.36 20.8061Z" fill="#F9D9AD"/>
<path d="M177.243 13.2176C177.951 10.7938 178.441 10.3224 178.169 7.89855C178.005 6.28262 178.74 5.47467 179.529 6.85494C180.808 9.07684 180.4 12.4433 179.992 13.5543L177.243 13.2176Z" fill="#F9D9AD"/>
<path d="M177.528 19.9004C177.528 19.9004 176.907 16.3095 177.5 13.6332C177.895 11.77 179.166 7.87415 183.741 6.28195C184.842 5.9093 186.593 6.31583 185.012 7.6709C183.882 8.65332 182.922 8.85658 182.357 9.568C182.357 9.568 184.56 10.381 184.842 11.7022C185.068 12.854 185.238 14.0397 185.351 15.2254C185.181 15.2932 184.983 15.3609 184.814 15.3948C184.814 15.3948 185.04 16.6482 184.136 18.2743L177.528 19.9004Z" fill="#F9D9AD"/>
<path d="M178.293 12.7614C178.983 12.2478 180.505 11.2205 182.028 10.7975C183.722 10.3442 187.083 9.98167 187.37 11.2809C187.6 12.2478 186.307 12.5197 186.307 12.5197C186.307 12.5197 187.715 12.6708 187.743 13.5772C187.772 14.4232 186.767 14.5441 186.767 14.5441C186.767 14.5441 187.629 14.7858 187.485 15.6016C187.313 16.5685 185.589 15.9037 184.613 16.7195C184.383 16.931 178.293 12.7614 178.293 12.7614Z" fill="#F9D9AD"/>
<path d="M183.544 14.5165C184.211 13.7534 186.184 12.7995 187.722 14.5165C187.751 14.5165 187.751 14.6119 187.722 14.6119C186.329 14.135 184.937 14.135 183.544 14.6119V14.5165Z" fill="#263238"/>
<path d="M193.982 26.2464L187.744 22.8692C187.744 22.8692 193.696 18.6165 196.471 17.3344C199.361 16.021 200.334 16.7402 197.959 20.4614C195.584 24.1826 193.982 26.2464 193.982 26.2464Z" fill="#352978"/>
<path d="M195.683 25.0362L195.657 25.0667C195.317 24.8226 194.977 24.6091 194.61 24.3955C194.27 24.1819 193.904 24.0294 193.537 23.9073L193.459 23.8768L193.354 23.8463C192.909 23.7243 192.464 23.7243 192.02 23.8158C191.653 23.9073 191.313 24.0599 190.973 24.2429L190.894 24.2124C191.234 23.9989 191.627 23.8463 192.02 23.7548C192.464 23.6633 192.936 23.6938 193.38 23.7853L193.537 23.8158L193.616 23.8463C193.982 23.9683 194.323 24.1209 194.663 24.3345C194.977 24.5786 195.343 24.7921 195.683 25.0362ZM199.164 18.9342C198.771 19.1783 198.379 19.5139 198.065 19.88C197.751 20.2461 197.463 20.7038 197.254 21.1614C197.018 21.6496 196.835 22.1683 196.678 22.6869C196.678 22.7174 196.652 22.7174 196.652 22.7479C196.521 23.2056 196.39 23.6632 196.259 24.1209C196.311 24.0599 196.364 23.9684 196.39 23.9073C196.495 23.5107 196.599 23.1446 196.704 22.7479C196.704 22.7174 196.704 22.7174 196.73 22.6869C196.887 22.1683 197.07 21.6801 197.28 21.1919C197.725 20.2461 198.379 19.4834 199.164 18.9952L199.269 18.9342L199.295 18.8427L199.164 18.9342ZM196.73 22.7174H196.652C196.207 22.6259 195.762 22.6564 195.343 22.7479C194.898 22.87 194.48 23.0836 194.087 23.3581C193.878 23.5107 193.694 23.6632 193.511 23.8463L193.459 23.9073C193.302 24.0599 193.171 24.2124 193.04 24.365C192.831 24.6091 192.648 24.8836 192.491 25.1582L192.543 25.1888C192.7 24.9142 192.883 24.6701 193.093 24.426C193.25 24.2429 193.38 24.0904 193.564 23.9378L193.616 23.8768C193.799 23.7243 193.956 23.5717 194.166 23.4192C194.558 23.1446 194.977 22.931 195.396 22.809C195.814 22.6869 196.259 22.6869 196.678 22.7785H196.73H196.756C196.861 22.809 196.992 22.8395 197.123 22.87L197.149 22.809C196.992 22.7785 196.861 22.7479 196.73 22.7174Z" fill="white"/>
<path d="M196.145 25.1691C195.954 25.0906 195.764 25.012 195.573 24.9596L194.964 24.75C194.545 24.5928 194.164 24.4618 193.746 24.3309C192.908 24.0427 192.108 23.7545 191.27 23.4926C191.042 23.414 190.813 23.3354 190.585 23.283C190.356 23.2306 190.09 23.152 189.861 23.0734C189.861 23.0734 189.823 23.0734 189.861 23.0996C190.052 23.1782 190.242 23.2568 190.47 23.3354C190.699 23.414 190.889 23.4926 191.08 23.5712L192.298 23.9903C193.098 24.2523 193.936 24.5404 194.736 24.8024L195.421 25.012C195.65 25.0382 195.916 25.1429 196.145 25.1691C196.145 25.1953 196.145 25.1953 196.145 25.1691Z" fill="#263238"/>
<path opacity="0.1" d="M198.084 20.4152C195.924 24.1976 194.468 26.2464 194.468 26.2464L191.944 24.7335L198.942 16.7273C199.566 16.9795 199.41 18.1142 198.084 20.4152Z" fill="black"/>
<path d="M191.953 37.7231C192.217 38.0116 209.692 37.8385 209.78 37.7231C210.043 37.4346 206.97 22.5787 203.896 18.0497C202.872 16.5209 199.564 16.2036 198.422 17.7036C195.144 21.9729 191.748 37.4635 191.953 37.7231Z" fill="#FAAF3A"/>
<path d="M206.57 26.1289C206.253 26.4604 205.878 26.7316 205.474 26.9425C205.041 27.1836 204.551 27.3945 204.061 27.5151C203.57 27.6356 203.051 27.6657 202.56 27.6356C202.07 27.5753 201.551 27.4849 201.089 27.3041C200.628 27.1233 200.166 26.9124 199.704 26.6713C199.214 26.4001 198.752 26.0988 198.291 25.7673L198.204 25.7071C197.858 25.466 197.512 25.2249 197.166 24.9839C196.82 24.7428 196.473 24.5017 196.127 24.2607L196.07 24.2305C195.666 23.9593 195.291 23.7183 194.858 23.5073C194.858 23.4772 194.858 23.4772 194.887 23.447C195.291 23.6881 195.695 23.9292 196.098 24.2004L196.156 24.2607C196.502 24.5017 196.849 24.7428 197.195 24.9839C197.541 25.2249 197.887 25.4961 198.233 25.7372C198.262 25.7673 198.291 25.7673 198.32 25.7975L198.435 25.8879C198.868 26.1591 199.301 26.4303 199.733 26.7015C200.166 26.9425 200.628 27.1535 201.118 27.3343C201.58 27.5151 202.07 27.6356 202.589 27.6657C203.08 27.726 203.599 27.6657 204.089 27.5452C204.58 27.4247 205.041 27.2137 205.474 26.9727C205.849 26.7617 206.195 26.5207 206.484 26.2193C206.513 26.2193 206.513 26.1892 206.541 26.1591C206.57 26.1591 206.57 26.1289 206.57 26.1289V26.1591C206.57 26.1591 206.57 26.0988 206.57 26.1289ZM203.397 17.3902C203.109 17.33 202.82 17.2697 202.532 17.2396C202.474 17.2396 202.416 17.2396 202.387 17.2396C202.358 17.2396 202.301 17.2396 202.272 17.2396C201.868 17.2094 201.435 17.2697 201.031 17.3601C200.541 17.4806 200.079 17.6614 199.618 17.9326C199.185 18.1737 198.752 18.5052 198.406 18.8668C198.06 19.2284 197.743 19.6804 197.512 20.1324C197.252 20.6145 197.05 21.1268 196.877 21.639C196.877 21.6692 196.849 21.6692 196.849 21.6993C196.704 22.1513 196.56 22.6033 196.416 23.0855C196.3 23.4471 196.185 23.8087 196.07 24.1401C196.07 24.1401 196.07 24.1703 196.041 24.1703C195.839 24.7729 195.55 25.3756 195.175 25.8879C194.945 26.2193 194.656 26.5207 194.339 26.7919L194.281 26.8521L194.108 26.9727C193.964 27.0631 193.848 27.1535 193.704 27.2439L193.675 27.3644C193.848 27.274 194.021 27.1836 194.166 27.0631C194.252 27.0028 194.31 26.9425 194.396 26.8823L194.483 26.822C194.771 26.5809 195.031 26.2796 195.262 25.9481C195.637 25.4057 195.925 24.8332 196.127 24.2004V24.1703C196.272 23.8087 196.387 23.4471 196.473 23.0855C196.618 22.6334 196.762 22.1513 196.906 21.6993C196.906 21.6692 196.906 21.6692 196.935 21.639C197.108 21.1268 197.31 20.6446 197.541 20.1625C198.031 19.2284 198.752 18.475 199.618 17.9929C200.051 17.7518 200.512 17.5409 201.003 17.4204C201.378 17.33 201.782 17.2697 202.185 17.2697H202.301H202.503C202.791 17.2998 203.109 17.3601 203.397 17.4204V17.3902ZM202.907 16.7273C202.676 16.878 202.474 17.0588 202.272 17.2396L202.214 17.2998C202.128 17.3902 202.041 17.4806 201.955 17.571C201.608 17.9628 201.32 18.4148 201.089 18.8668C200.685 19.831 200.368 20.8254 200.137 21.85C200.051 22.2116 199.935 22.5732 199.82 22.9348V22.9649C199.647 23.5977 199.358 24.1703 199.012 24.7428C198.781 25.0743 198.522 25.4057 198.233 25.6769C198.233 25.6769 198.233 25.7071 198.204 25.7071C198.147 25.7673 198.06 25.8276 198.002 25.8879C197.599 26.1892 197.166 26.4604 196.704 26.6412C196.243 26.822 195.752 26.9124 195.233 26.9124C194.973 26.9124 194.714 26.8823 194.454 26.8521C194.425 26.8521 194.368 26.8521 194.339 26.822C194.166 26.7919 194.021 26.7617 193.848 26.7316L193.819 26.7919C193.964 26.822 194.108 26.8521 194.252 26.8823L194.368 26.9124C194.656 26.9727 194.945 27.0028 195.233 27.0028C195.752 27.0028 196.243 26.9124 196.733 26.7316C197.195 26.5508 197.627 26.2796 198.031 25.9481C198.118 25.8879 198.204 25.8276 198.262 25.7372L198.291 25.7071C198.579 25.4359 198.839 25.1345 199.07 24.7729C199.416 24.2305 199.676 23.6278 199.878 22.995V22.9649C199.993 22.6033 200.108 22.2417 200.195 21.85C200.426 20.8254 200.743 19.831 201.147 18.8668C201.378 18.3846 201.637 17.9628 201.983 17.571C202.07 17.4505 202.185 17.3601 202.301 17.2396C202.33 17.2094 202.33 17.2094 202.358 17.2094C202.532 17.0286 202.734 16.878 202.935 16.7273C202.907 16.7574 202.907 16.7273 202.907 16.7273ZM206.57 26.1289V26.0988H206.484C205.993 26.0687 205.474 25.9783 205.013 25.8276C204.522 25.6769 204.061 25.466 203.628 25.2551C203.166 25.014 202.734 24.7729 202.301 24.5017C201.868 24.2305 201.435 23.9593 201.031 23.6881C200.685 23.4471 200.31 23.2361 199.964 22.995C199.935 22.9649 199.906 22.9649 199.878 22.9348C199.387 22.6334 198.897 22.3622 198.406 22.1212C197.945 21.9102 197.483 21.7596 196.993 21.639H196.964H196.906C196.445 21.5486 195.954 21.5486 195.493 21.6692C195.493 21.6993 195.464 21.7294 195.464 21.7596C195.925 21.639 196.416 21.639 196.877 21.7294H196.935H196.964C197.454 21.8198 197.916 21.9705 198.377 22.1814C198.897 22.4225 199.387 22.6937 199.849 22.9649L199.935 23.0252C200.281 23.2361 200.656 23.4772 201.003 23.6881C201.868 24.2305 202.705 24.8031 203.628 25.2551C204.089 25.4961 204.551 25.6769 205.041 25.8577C205.532 26.0084 206.022 26.0988 206.513 26.1289H206.57ZM207.695 30.6489C207.234 30.8297 206.801 31.0407 206.397 31.342C205.589 31.9748 204.839 32.698 204.176 33.4815C203.916 33.7527 203.685 34.0239 203.397 34.265L203.368 34.2951C202.907 34.7471 202.416 35.1388 201.839 35.4402C201.406 35.6812 200.916 35.8319 200.426 35.9223H200.397C199.906 35.9826 199.416 35.9826 198.926 35.9223C198.522 35.862 198.147 35.7415 197.8 35.5607L197.714 35.5004L197.541 35.41C197.108 35.1388 196.704 34.8375 196.329 34.4759C195.695 33.8732 195.118 33.2103 194.454 32.6076L194.396 32.5775C194.31 32.4871 194.223 32.4268 194.108 32.3364C193.704 32.0049 193.271 31.7337 192.81 31.5228L192.637 31.4625H192.608C192.608 31.4625 192.608 31.4625 192.608 31.4927L192.81 31.5831C193.271 31.794 193.704 32.0652 194.079 32.3967L194.339 32.6377L194.396 32.6679C195.06 33.2705 195.637 33.9335 196.272 34.5362C196.647 34.8978 197.05 35.2292 197.483 35.4703L197.599 35.5306L197.685 35.5908C198.06 35.8018 198.464 35.9223 198.897 35.9826C199.387 36.0428 199.906 36.0428 200.397 35.9826H200.426C200.916 35.8922 201.378 35.7415 201.839 35.5004C202.387 35.1991 202.907 34.8074 203.368 34.3554L203.397 34.3252C203.657 34.054 203.916 33.7828 204.176 33.5116C204.839 32.7281 205.589 32.0049 206.368 31.3721C206.772 31.0708 207.205 30.8599 207.638 30.6791C207.695 30.6791 207.695 30.6489 207.695 30.6489ZM204.811 36.8564C204.551 36.4044 204.32 35.9524 204.061 35.5004C203.859 35.1087 203.657 34.7471 203.426 34.3554L203.397 34.265C203.109 33.7527 202.82 33.2705 202.474 32.8185C202.214 32.4569 201.926 32.1255 201.608 31.8241C201.58 31.794 201.58 31.794 201.551 31.7639L201.435 31.6735C201.031 31.342 200.599 31.0708 200.108 30.9201C199.618 30.7695 199.099 30.7393 198.608 30.7695C198.089 30.7996 197.599 30.89 197.108 31.0407C196.935 31.1009 196.791 31.1612 196.618 31.2215C196.589 31.2215 196.56 31.2516 196.531 31.2516C195.781 31.5831 195.089 32.0351 194.454 32.5172L194.396 32.5473L194.368 32.5775C193.618 33.1801 192.81 33.7527 191.973 34.265H191.944V34.2951C191.944 34.2951 191.944 34.2951 191.944 34.3252H191.973L192.002 34.2951C192.839 33.7828 193.646 33.2103 194.425 32.6076L194.454 32.5775L194.483 32.5473C195.146 32.0351 195.868 31.6132 196.618 31.2516L196.704 31.2215C196.849 31.1612 196.993 31.1009 197.137 31.0708C197.627 30.9201 198.118 30.8297 198.608 30.7996C199.099 30.7695 199.618 30.8297 200.079 30.9503C200.57 31.1009 201.003 31.342 201.406 31.6735C201.435 31.7036 201.464 31.7337 201.493 31.7639C201.522 31.794 201.551 31.794 201.551 31.8241C201.868 32.1255 202.157 32.4569 202.416 32.8185C202.762 33.2705 203.051 33.7527 203.339 34.265L203.368 34.3554C203.57 34.717 203.801 35.1087 204.003 35.5004C204.407 36.2538 204.811 37.0372 205.272 37.7604H205.301C205.186 37.4591 205.013 37.1578 204.811 36.8564ZM200.916 36.7058C200.772 36.4647 200.628 36.2236 200.483 35.9826C200.455 35.9524 200.455 35.9223 200.426 35.8922C200.31 35.7114 200.224 35.5306 200.108 35.3498C199.878 34.9881 199.676 34.5964 199.445 34.2348L199.387 34.1745C199.099 33.6924 198.752 33.2103 198.406 32.7583C198.089 32.3364 197.714 31.9748 197.31 31.6735C197.108 31.5228 196.906 31.4023 196.704 31.2817L196.618 31.2516C196.416 31.1612 196.185 31.0708 195.954 31.0105C195.464 30.89 194.945 30.8599 194.454 30.9201C193.964 30.9503 193.444 31.0708 192.983 31.2516C192.867 31.3119 192.723 31.342 192.608 31.4023V31.4625C192.608 31.4625 192.608 31.4625 192.608 31.4927H192.637C192.752 31.4324 192.867 31.3721 193.012 31.342C193.473 31.1612 193.964 31.0407 194.454 31.0105C194.945 30.9503 195.464 30.9804 195.925 31.1009C196.127 31.1612 196.329 31.2215 196.502 31.3119L196.589 31.342C196.82 31.4625 197.05 31.5831 197.252 31.7639C197.656 32.0652 198.031 32.4268 198.349 32.8487C198.695 33.3007 199.041 33.7527 199.329 34.265C199.329 34.2951 199.358 34.3252 199.387 34.3252C199.618 34.6868 199.849 35.0484 200.051 35.4402L200.368 35.9826L200.426 36.073C200.801 36.6756 201.176 37.3084 201.58 37.881H201.608C201.406 37.429 201.176 37.0674 200.916 36.7058ZM207.667 30.438C207.32 30.2572 206.974 30.1367 206.599 30.0764C206.109 29.986 205.589 29.9559 205.099 30.0161C204.58 30.0463 204.089 30.1668 203.628 30.3476C203.166 30.5284 202.705 30.7996 202.301 31.1311C202.041 31.342 201.81 31.5529 201.58 31.7639L201.551 31.794C201.06 32.2761 200.628 32.8185 200.195 33.3308C199.964 33.602 199.704 33.9033 199.445 34.1444L199.416 34.1745C198.983 34.6567 198.493 35.0484 197.945 35.3799L197.772 35.4703L197.685 35.5004C197.339 35.6812 196.935 35.8018 196.56 35.8922C196.07 35.9826 195.579 36.0127 195.06 35.9524C194.57 35.8922 194.079 35.7716 193.646 35.5306C193.214 35.2895 192.781 34.9882 192.406 34.6567C192.262 34.5362 192.146 34.4156 192.002 34.2951C192.002 34.2951 192.002 34.2951 192.002 34.3252C192.002 34.3553 192.002 34.3554 192.002 34.3855L192.377 34.717C192.752 35.0786 193.185 35.3799 193.618 35.621C194.079 35.862 194.57 36.0127 195.06 36.073C195.55 36.1332 196.07 36.1031 196.56 36.0127C196.993 35.9223 197.397 35.7716 197.772 35.5908L197.858 35.5607C197.887 35.5306 197.945 35.5306 197.974 35.5004C198.522 35.1689 199.012 34.7772 199.445 34.2951L199.474 34.265C199.733 33.9938 199.993 33.6924 200.224 33.4212C200.685 32.8788 201.118 32.3665 201.58 31.8844C201.58 31.8543 201.608 31.8543 201.608 31.8543C201.839 31.6433 202.07 31.4324 202.301 31.2215C202.705 30.89 203.137 30.6489 203.599 30.4681C204.061 30.2873 204.551 30.1668 205.041 30.1367C205.532 30.0764 206.051 30.1065 206.541 30.1969C206.916 30.2572 207.292 30.3777 207.638 30.5585C207.667 30.4983 207.667 30.4681 207.667 30.438Z" fill="white"/>
<path d="M205.388 17.9716C213.177 24.5982 220.023 33.4336 219.175 36.0843C218.296 38.8927 212.486 41.7642 207.461 42.1113C206.425 42.1744 203.724 34.5065 204.792 34.2225C205.608 34.0016 209.377 33.1812 209.848 32.6763C210.162 32.3292 204.697 24.6613 203.064 20.3067C201.431 15.7943 203.316 16.2045 205.388 17.9716Z" fill="#F9D9AD"/>
<path d="M207.164 33.6503C207.164 33.6503 204.028 33.7972 201.969 34.0177C200.829 34.128 198.865 34.5322 198.073 35.0833C196.869 35.8917 192.244 40.1174 193.099 41.4402C193.891 42.6528 195.222 40.9258 195.222 40.9258C195.222 40.9258 193.574 42.6528 194.683 43.5347C195.792 44.4165 197.344 42.0281 197.344 42.0281C197.344 42.0281 195.507 43.7184 196.742 44.5635C197.819 45.2984 199.91 42.7263 199.91 42.7263C199.91 42.7263 197.819 44.2328 198.833 45.1147C199.973 46.0701 203.521 42.6895 203.521 42.6895C206.182 43.2407 207.861 43.1305 209.762 42.6528C210.142 42.5058 207.164 33.6503 207.164 33.6503Z" fill="#F9D9AD"/>
<path d="M197.388 41.5551C197.466 41.3563 197.543 41.1575 197.621 40.9588C197.776 40.5612 197.931 40.2034 198.125 39.8455C198.299 39.4877 198.473 39.1697 198.667 38.8516C198.861 38.5336 199.074 38.2155 199.267 37.8974C199.287 37.8577 199.306 37.8975 199.287 37.9372C199.093 38.2553 198.919 38.6131 198.744 39.0107C198.57 39.3685 198.396 39.7263 198.221 40.0841C198.047 40.4419 197.873 40.76 197.698 41.1178C197.621 41.2768 197.524 41.4756 197.447 41.6346C197.369 41.7937 197.292 41.9924 197.214 42.1117C197.195 42.1117 197.195 42.1117 197.195 42.072C197.253 41.9129 197.33 41.7141 197.388 41.5551Z" fill="#263238"/>
<path d="M196.157 42.0158C196.587 41.2142 197.049 40.4547 197.572 39.7374C198.095 39.0202 198.649 38.4295 199.264 37.881C199.295 37.881 199.295 37.881 199.295 37.9232C198.772 38.6404 198.249 39.3155 197.726 40.0328C197.48 40.3703 196.341 41.9736 196.218 42.1002C196.157 42.1424 196.126 42.058 196.157 42.0158Z" fill="#263238"/>
<path d="M199.295 42.1C199.585 41.8885 199.875 41.7004 200.206 41.5124C200.579 41.3479 200.952 41.1951 201.366 41.0541C201.386 41.0541 201.407 41.0658 201.386 41.0658C201.014 41.2304 200.662 41.3949 200.31 41.5829C200.144 41.6652 199.502 42.0412 199.316 42.1118C199.316 42.1118 199.295 42.1118 199.295 42.1C199.295 42.1118 199.295 42.1118 199.295 42.1Z" fill="#263238"/>
<path d="M206.109 26.2464L212.946 24.4912C212.946 24.4912 207.826 19.4269 205.295 17.7292C202.676 15.9452 201.571 16.4056 203.229 20.2326C204.887 24.0596 206.109 26.2464 206.109 26.2464Z" fill="#352978"/>
<path d="M206.269 18.9411C205.942 18.7513 205.648 18.5615 205.321 18.4034C204.83 18.1504 204.306 17.8974 203.75 17.7077C203.227 17.5179 202.638 17.3914 202.082 17.3598C202.017 17.3598 201.951 17.3598 201.918 17.3598C201.886 17.3598 201.82 17.3598 201.788 17.3598C201.657 17.3598 201.526 17.3598 201.395 17.3598C201.395 17.3914 201.395 17.3914 201.395 17.423C201.493 17.423 201.624 17.423 201.722 17.423H201.853H202.082C202.638 17.4547 203.194 17.5812 203.75 17.7709C204.274 17.9607 204.797 18.182 205.321 18.435C205.713 18.6248 206.106 18.8462 206.465 19.0676L206.269 18.9411ZM202.671 16.7273C202.344 16.917 202.049 17.1068 201.788 17.3598L201.722 17.423C201.624 17.5179 201.526 17.6128 201.428 17.7077L201.395 17.7393C201.395 17.7709 201.395 17.8025 201.395 17.8658C201.428 17.8342 201.46 17.8025 201.46 17.7709C201.559 17.6444 201.689 17.5495 201.82 17.423C201.853 17.3914 201.853 17.3914 201.886 17.3914C202.147 17.17 202.442 16.9487 202.736 16.7589L202.671 16.7273ZM211.798 23.8113C211.307 24.6336 210.62 25.2977 209.769 25.7721C209.442 25.9618 209.115 26.1199 208.788 26.2464L209.246 26.1199C209.442 26.0251 209.639 25.9302 209.835 25.8037C210.326 25.5191 210.783 25.1712 211.176 24.7601C211.438 24.4754 211.667 24.1592 211.896 23.8429L211.798 23.8113Z" fill="white"/>
<path d="M209.795 22.0405C209.729 22.2137 209.629 22.3869 209.562 22.5353C209.262 23.3765 208.829 24.1682 208.329 24.9599C208.062 25.3311 207.695 25.7022 207.295 25.9991C207.262 26.0238 207.229 26.0486 207.229 26.0486C207.462 26.0486 207.695 26.0486 207.895 26.0238L207.562 26.098C207.429 26.098 207.295 26.098 207.162 26.098C207.095 26.1475 207.062 26.1723 206.995 26.197L206.795 26.2465C206.862 26.197 206.962 26.1475 207.029 26.098C206.562 26.0733 206.095 26.0238 205.629 25.9496C205.629 25.9249 205.595 25.9248 205.595 25.9001C206.062 25.9991 206.562 26.0486 207.029 26.0733H207.062C207.129 26.0486 207.162 25.9991 207.195 25.9743C207.595 25.6774 207.962 25.3311 208.229 24.9599C208.762 24.193 209.162 23.3765 209.462 22.56C209.529 22.3869 209.629 22.1889 209.695 22.0157L209.795 22.0405Z" fill="white"/>
<path d="M207.695 26.2033C207.813 26.1601 207.954 26.117 208.094 26.0954L208.493 25.9874C208.775 25.9227 209.033 25.8579 209.315 25.7716C209.854 25.6421 210.417 25.5126 210.957 25.3831L211.403 25.2751C211.567 25.2535 211.731 25.232 211.896 25.1888M211.896 25.2104C211.755 25.2535 211.638 25.2967 211.497 25.3399L211.098 25.4694C210.816 25.5342 210.558 25.5989 210.277 25.6637C209.737 25.7932 209.197 25.9227 208.658 26.0306L208.212 26.1385C208.047 26.1817 207.883 26.2249 207.742 26.2465C207.719 26.2465 207.719 26.2249 207.742 26.2249L211.896 25.2104Z" fill="#263238"/>
<path d="M203.648 23.9308C203.648 23.9007 203.648 23.9308 203.648 23.9308C203.916 24.1418 204.146 24.3528 204.337 24.594C204.261 24.4734 204.184 24.3528 204.146 24.2323C203.916 23.8404 203.725 23.4485 203.495 23.0868C203.495 23.0868 203.495 23.0567 203.533 23.0868C203.954 23.75 204.452 24.383 204.873 25.0461C205.294 25.7093 205.715 26.3724 206.098 27.0356C206.327 27.3973 206.557 27.8796 206.786 28.2413C207.054 28.2111 207.399 28.1508 207.667 28.1207C207.705 28.1207 207.705 28.1508 207.667 28.1508C207.361 28.2111 207.016 28.3317 206.71 28.3618C206.672 28.3618 205.179 26.0107 204.528 24.8954C204.184 24.5638 203.916 24.2624 203.648 23.9308Z" fill="#263238"/>
<path d="M198.233 20.9145C199.41 21.2453 201.522 19.6246 202.422 18.2685C202.491 18.1693 202.388 17.1439 202.318 15.9202C202.284 15.1594 202.284 14.3325 202.318 13.5718C202.318 13.4064 197.195 14.4648 197.195 14.4648C197.437 15.4571 197.541 16.4494 197.506 17.4416C197.506 17.5409 197.472 17.6401 197.472 17.7393V17.8055C197.299 18.3677 197.091 20.5838 198.233 20.9145Z" fill="#F9D9AD"/>
<path d="M201.395 13.5543C201.121 14.5059 200.208 16.7753 197.864 16.7265C197.712 16.7265 197.56 16.7021 197.408 16.6777C197.408 16.6533 197.408 16.6533 197.408 16.6289C197.438 16.5557 197.438 16.4825 197.469 16.4093C197.499 15.6772 197.378 14.9452 197.195 14.2131C197.164 14.2375 200.421 13.6519 201.395 13.5543Z" fill="#263238"/>
<path d="M203.414 8.0415C203.787 9.75016 202.811 14.6133 201.72 15.6647C200.113 17.1763 197.615 17.1763 196.524 15.0076C195.462 12.9046 196.84 6.59571 198.074 5.67566C199.854 4.29559 202.84 5.47851 203.414 8.0415Z" fill="#AD6359"/>
<path d="M203.414 8.0415C203.787 9.75016 202.811 14.6133 201.72 15.6647C200.113 17.1763 197.615 17.1763 196.524 15.0076C195.462 12.9046 196.84 6.59571 198.074 5.67566C199.854 4.29559 202.84 5.47851 203.414 8.0415Z" fill="#F9D9AD"/>
<path d="M196.506 10.384C197.229 10.4478 196.958 11.4999 196.28 11.4361C195.603 11.3724 195.874 10.3202 196.506 10.384Z" fill="#263238"/>
<path d="M199.656 10.384C200.379 10.4478 200.108 11.4999 199.431 11.4361C198.753 11.3724 199.024 10.3202 199.656 10.384Z" fill="#263238"/>
<path d="M199.279 13.1919C199.028 13.4225 198.704 13.5543 198.345 13.5543C198.202 13.5543 198.058 13.5213 197.914 13.4884L197.843 13.4554L197.771 13.4225C197.735 13.4225 197.699 13.3895 197.699 13.3237V13.2907V13.2578C197.735 12.9942 197.843 12.6318 197.843 12.6318C197.735 12.6647 197.16 12.7965 197.196 12.6647C197.448 11.5116 197.843 10.3915 198.381 9.33719C198.381 9.30425 198.453 9.3372 198.453 9.37014C198.202 10.4244 197.771 11.4457 197.519 12.5C197.735 12.4671 197.914 12.4341 198.13 12.4341C198.166 12.4671 197.914 13.1589 197.914 13.2907C198.381 13.4225 198.848 13.3566 199.279 13.1589C199.279 13.1589 199.315 13.1919 199.279 13.1919Z" fill="#263238"/>
<path opacity="0.2" d="M203.054 12.4966C202.618 12.3399 201.844 10.8122 201.506 10.2246C201.167 9.63696 201.699 6.77729 201.844 6.15051C202.57 6.69894 203.102 7.40407 203.344 8.18754C203.634 9.08853 203.489 10.8122 203.054 12.4966Z" fill="#263238"/>
<path d="M197.218 6.24968C197.425 7.83621 197.795 8.82778 198.21 8.92694C198.626 9.02609 199.041 8.13368 199.272 6.6463M199.295 6.6463C199.064 8.332 198.649 9.32356 198.21 9.32356C197.772 9.12525 197.379 8.03453 197.195 6.24968C197.195 6.15052 197.218 6.15051 197.218 6.15051L199.295 6.6463Z" fill="#263238"/>
<path d="M200.905 4.06442C201.57 4.13375 202.138 4.3533 202.384 4.65374C202.483 4.80395 202.458 4.95418 202.335 5.09284H202.31C202.458 4.82707 202.286 4.54974 201.866 4.36485C201.422 4.15686 200.781 4.05286 200.14 4.09908C199.844 4.11064 199.548 4.17997 199.351 4.28397C199.326 4.29552 199.277 4.28397 199.302 4.27241C199.573 4.07597 200.239 3.98353 200.905 4.06442Z" fill="#263238"/>
<path d="M196.227 6.16525C196.307 5.7077 196.427 5.38089 196.578 5.21748C196.789 4.95603 196.989 5.15212 197.19 5.38089C197.2 5.38089 197.19 5.41357 197.19 5.41357C197.02 5.1848 196.839 5.15212 196.668 5.25016C196.518 5.38089 196.397 5.67502 196.307 6.0672C196.126 6.91693 196.166 8.09346 196.407 8.77978C196.548 9.17196 196.718 9.33537 196.899 9.27C196.909 9.27 196.909 9.30269 196.899 9.30269C196.538 9.4661 196.206 8.64905 196.156 7.5052C196.126 7.04765 196.156 6.59011 196.227 6.16525Z" fill="#263238"/>
<path d="M202.848 8.26589C202.848 8.26589 203.808 7.13012 203.389 6.26016C203.143 5.77686 202.06 5.6077 202.06 5.6077C201.863 5.1244 201.469 4.73775 200.976 4.54443C200.114 4.15778 198.907 4.47193 198.907 4.47193C198.907 4.47193 198.144 3.81947 197.233 4.10945C195.977 4.52026 195.78 6.236 196.79 7.00929C197.504 7.54093 198.735 7.05762 198.735 7.05762C198.834 7.08179 199.769 7.92757 200.779 7.15428C200.779 7.15428 201.321 7.85508 201.986 7.5651C202.109 7.97591 202.454 8.24172 202.848 8.26589Z" fill="#263238"/>
<path d="M201.699 12.2164C201.699 12.2164 202.72 11.1843 203.3 11.4984C203.88 11.8125 203.052 13.3384 202.334 13.5179C201.975 13.6301 201.533 13.473 201.395 13.1813V13.1589L201.699 12.2164Z" fill="#F9D9AD"/>
<path d="M203.495 12.4966C202.631 12.6082 202.177 12.9059 201.813 13.2221C202.041 13.0919 202.45 13.0733 202.722 13.1663C202.768 13.1663 202.768 13.1849 202.813 13.1849C202.813 13.1849 202.813 13.2035 202.768 13.2035C202.495 13.1477 202.131 13.1849 201.95 13.2779C201.768 13.3523 201.631 13.4453 201.541 13.5383C201.495 13.5756 201.359 13.5383 201.404 13.5197C201.45 13.0733 202.359 12.4966 203.495 12.4966Z" fill="#263238"/>
<path d="M202.445 17.4306C201.969 18.1338 201.434 18.8371 200.899 19.4664C200.394 20.0956 199.74 20.5398 199.027 20.6508C198.343 20.7248 197.66 20.5398 197.422 19.5034C197.244 18.615 197.244 17.6526 197.392 16.7643C197.392 16.7643 197.392 16.7273 197.363 16.7273C197.363 16.7273 197.333 16.7273 197.333 16.7643C197.333 16.7643 197.333 16.7643 197.333 16.8013C197.155 18.1709 196.976 20.2807 197.987 20.7619C199.116 21.3171 200.186 20.6138 200.989 19.6514C201.553 18.9852 202.029 18.2449 202.445 17.4306C202.445 17.4676 202.445 17.3936 202.445 17.4306Z" fill="#263238"/>
</svg>
