<svg width="70" height="41" viewBox="0 0 70 41" fill="none" xmlns="http://www.w3.org/2000/svg">
<g filter="url(#filter0_d_0_1)">
<circle cx="16" cy="21" r="14" fill="#E1EAF9"/>
</g>
<path d="M57.0455 5.66126L51.2819 5.32283L53.8706 10.4834L57.0455 5.66126ZM32.0178 18.2158L32.242 18.6627L53.2474 8.12587L53.0232 7.67895L52.799 7.23203L31.7936 17.7689L32.0178 18.2158Z" fill="#3C5A94"/>
<path d="M57 20L52 17.1132V22.8868L57 20ZM32 20V20.5H52.5V20V19.5H32V20Z" fill="#3C5A94"/>
<path d="M57.1775 34.2512L53.9446 29.4677L51.4185 34.6592L57.1775 34.2512ZM32 22L31.7812 22.4496L52.9124 32.7318L53.1312 32.2822L53.3499 31.8326L32.2188 21.5504L32 22Z" fill="#3C5A94"/>
<path d="M69.0371 5.43383C69.0062 4.21621 68.6057 3.18424 67.8357 2.33792C67.0656 1.49161 66.1265 1.05151 65.0185 1.01762V0C65.6944 0.0136355 66.3294 0.165457 66.9236 0.455465C67.5178 0.745472 68.0378 1.13551 68.4838 1.62557C68.9298 2.11573 69.2847 2.6873 69.5486 3.34028C69.8125 3.99315 69.9506 4.691 69.9629 5.43383H69.0371ZM66.7315 5.43383C66.7006 4.92505 66.5231 4.49431 66.199 4.14162C65.875 3.78883 65.4814 3.59549 65.0185 3.5616V2.54398C65.7376 2.57786 66.3495 2.87042 66.8542 3.42164C67.3588 3.97285 67.6265 4.64359 67.6574 5.43383H66.7315ZM69.3889 11C68.287 11 67.1759 10.7176 66.0556 10.1529C64.9352 9.58812 63.9028 8.78678 62.9583 7.74886C62.0139 6.71094 61.2847 5.57634 60.7708 4.34508C60.2569 3.11382 60 1.89273 60 0.681824C60 0.48991 60.0582 0.329998 60.1746 0.20209C60.291 0.0741808 60.4365 0.0102263 60.6111 0.0102263H62.6574C62.787 0.0102263 62.8997 0.0602402 62.9954 0.160268C63.0911 0.260397 63.1543 0.38337 63.1851 0.529188L63.5549 2.52002C63.5738 2.67163 63.571 2.80514 63.5462 2.92053C63.5216 3.03582 63.4715 3.13493 63.396 3.21787L62.0232 4.74193C62.2454 5.16596 62.4885 5.56535 62.7524 5.94012C63.0163 6.3149 63.3071 6.67191 63.625 7.01117C63.9491 7.37404 64.2901 7.70729 64.6482 8.01093C65.0062 8.31448 65.3827 8.58495 65.7778 8.82235L67.0926 7.34697C67.1821 7.24175 67.2898 7.16798 67.4157 7.12565C67.5417 7.08321 67.6655 7.07217 67.7871 7.09252L69.5278 7.4996C69.6636 7.54031 69.7762 7.61932 69.8657 7.73665C69.9552 7.85397 70 7.98524 70 8.13045V10.3284C70 10.5203 69.9418 10.6802 69.8254 10.8081C69.709 10.936 69.5635 11 69.3889 11ZM61.5694 3.79559L62.625 2.62533L62.3333 1.02785H60.9306C60.9583 1.45177 61.0216 1.88932 61.1204 2.34052C61.2191 2.79161 61.3688 3.27663 61.5694 3.79559ZM66.6435 9.31078C67.017 9.4974 67.4144 9.64836 67.8357 9.76365C68.257 9.87894 68.6698 9.94849 69.074 9.9723V8.43572L67.6851 8.12541L66.6435 9.31078Z" fill="#3C5A94" fill-opacity="0.61"/>
<path d="M69.0371 20.4338C69.0062 19.2162 68.6057 18.1842 67.8357 17.3379C67.0656 16.4916 66.1265 16.0515 65.0185 16.0176V15C65.6944 15.0136 66.3294 15.1655 66.9236 15.4555C67.5178 15.7455 68.0378 16.1355 68.4838 16.6256C68.9298 17.1157 69.2847 17.6873 69.5486 18.3403C69.8125 18.9932 69.9506 19.691 69.9629 20.4338H69.0371ZM66.7315 20.4338C66.7006 19.925 66.5231 19.4943 66.199 19.1416C65.875 18.7888 65.4814 18.5955 65.0185 18.5616V17.544C65.7376 17.5779 66.3495 17.8704 66.8542 18.4216C67.3588 18.9729 67.6265 19.6436 67.6574 20.4338H66.7315ZM69.3889 26C68.287 26 67.1759 25.7176 66.0556 25.1529C64.9352 24.5881 63.9028 23.7868 62.9583 22.7489C62.0139 21.7109 61.2847 20.5763 60.7708 19.3451C60.2569 18.1138 60 16.8927 60 15.6818C60 15.4899 60.0582 15.33 60.1746 15.2021C60.291 15.0742 60.4365 15.0102 60.6111 15.0102H62.6574C62.787 15.0102 62.8997 15.0602 62.9954 15.1603C63.0911 15.2604 63.1543 15.3834 63.1851 15.5292L63.5549 17.52C63.5738 17.6716 63.571 17.8051 63.5462 17.9205C63.5216 18.0358 63.4715 18.1349 63.396 18.2179L62.0232 19.7419C62.2454 20.166 62.4885 20.5654 62.7524 20.9401C63.0163 21.3149 63.3071 21.6719 63.625 22.0112C63.9491 22.374 64.2901 22.7073 64.6482 23.0109C65.0062 23.3145 65.3827 23.5849 65.7778 23.8223L67.0926 22.347C67.1821 22.2418 67.2898 22.168 67.4157 22.1256C67.5417 22.0832 67.6655 22.0722 67.7871 22.0925L69.5278 22.4996C69.6636 22.5403 69.7762 22.6193 69.8657 22.7366C69.9552 22.854 70 22.9852 70 23.1304V25.3284C70 25.5203 69.9418 25.6802 69.8254 25.8081C69.709 25.936 69.5635 26 69.3889 26ZM61.5694 18.7956L62.625 17.6253L62.3333 16.0278H60.9306C60.9583 16.4518 61.0216 16.8893 61.1204 17.3405C61.2191 17.7916 61.3688 18.2766 61.5694 18.7956ZM66.6435 24.3108C67.017 24.4974 67.4144 24.6484 67.8357 24.7636C68.257 24.8789 68.6698 24.9485 69.074 24.9723V23.4357L67.6851 23.1254L66.6435 24.3108Z" fill="#3C5A94" fill-opacity="0.61"/>
<path d="M69.0371 35.4338C69.0062 34.2162 68.6057 33.1842 67.8357 32.3379C67.0656 31.4916 66.1265 31.0515 65.0185 31.0176V30C65.6944 30.0136 66.3294 30.1655 66.9236 30.4555C67.5178 30.7455 68.0378 31.1355 68.4838 31.6256C68.9298 32.1157 69.2847 32.6873 69.5486 33.3403C69.8125 33.9932 69.9506 34.691 69.9629 35.4338H69.0371ZM66.7315 35.4338C66.7006 34.925 66.5231 34.4943 66.199 34.1416C65.875 33.7888 65.4814 33.5955 65.0185 33.5616V32.544C65.7376 32.5779 66.3495 32.8704 66.8542 33.4216C67.3588 33.9729 67.6265 34.6436 67.6574 35.4338H66.7315ZM69.3889 41C68.287 41 67.1759 40.7176 66.0556 40.1529C64.9352 39.5881 63.9028 38.7868 62.9583 37.7489C62.0139 36.7109 61.2847 35.5763 60.7708 34.3451C60.2569 33.1138 60 31.8927 60 30.6818C60 30.4899 60.0582 30.33 60.1746 30.2021C60.291 30.0742 60.4365 30.0102 60.6111 30.0102H62.6574C62.787 30.0102 62.8997 30.0602 62.9954 30.1603C63.0911 30.2604 63.1543 30.3834 63.1851 30.5292L63.5549 32.52C63.5738 32.6716 63.571 32.8051 63.5462 32.9205C63.5216 33.0358 63.4715 33.1349 63.396 33.2179L62.0232 34.7419C62.2454 35.166 62.4885 35.5654 62.7524 35.9401C63.0163 36.3149 63.3071 36.6719 63.625 37.0112C63.9491 37.374 64.2901 37.7073 64.6482 38.0109C65.0062 38.3145 65.3827 38.5849 65.7778 38.8223L67.0926 37.347C67.1821 37.2418 67.2898 37.168 67.4157 37.1256C67.5417 37.0832 67.6655 37.0722 67.7871 37.0925L69.5278 37.4996C69.6636 37.5403 69.7762 37.6193 69.8657 37.7366C69.9552 37.854 70 37.9852 70 38.1304V40.3284C70 40.5203 69.9418 40.6802 69.8254 40.8081C69.709 40.936 69.5635 41 69.3889 41ZM61.5694 33.7956L62.625 32.6253L62.3333 31.0278H60.9306C60.9583 31.4518 61.0216 31.8893 61.1204 32.3405C61.2191 32.7916 61.3688 33.2766 61.5694 33.7956ZM66.6435 39.3108C67.017 39.4974 67.4144 39.6484 67.8357 39.7636C68.257 39.8789 68.6698 39.9485 69.074 39.9723V38.4357L67.6851 38.1254L66.6435 39.3108Z" fill="#3C5A94" fill-opacity="0.61"/>
<path d="M15.55 28V26.5184H23.4666V19.9111C23.4666 18.1117 22.7907 16.5853 21.4388 15.332C20.087 14.0785 18.4407 13.4518 16.5 13.4518C14.5593 13.4518 12.913 14.0785 11.5612 15.332C10.2093 16.5853 9.53341 18.1117 9.53341 19.9111V25.3333H8.9C8.3775 25.3333 7.93021 25.1593 7.55813 24.8111C7.18604 24.463 7 24.0444 7 23.5556V21.7778C7 21.4667 7.08312 21.1741 7.24938 20.9C7.41563 20.6259 7.64917 20.4074 7.95 20.2444L8.02125 19.0667C8.14792 18.0593 8.46062 17.1259 8.95938 16.2667C9.45812 15.4074 10.0835 14.6593 10.8356 14.0222C11.5877 13.3852 12.4506 12.8889 13.4244 12.5333C14.3981 12.1778 15.4233 12 16.5 12C17.5767 12 18.5979 12.1778 19.5638 12.5333C20.5296 12.8889 21.3925 13.3815 22.1525 14.0111C22.9125 14.6407 23.5379 15.3852 24.0287 16.2444C24.5196 17.1037 24.8363 18.037 24.9788 19.0444L25.05 20.2C25.3508 20.3333 25.5844 20.5333 25.7506 20.8C25.9169 21.0667 26 21.3481 26 21.6444V23.6889C26 23.9852 25.9169 24.2667 25.7506 24.5333C25.5844 24.8 25.3508 25 25.05 25.1333V26.5184C25.05 26.9259 24.895 27.2747 24.585 27.5649C24.2748 27.855 23.902 28 23.4666 28H15.55ZM13.6472 21.6296C13.4222 21.6296 13.2345 21.5584 13.084 21.416C12.9336 21.2735 12.8584 21.0969 12.8584 20.8862C12.8584 20.6757 12.9345 20.5001 13.0866 20.3593C13.239 20.2186 13.4277 20.1482 13.6528 20.1482C13.8778 20.1482 14.0655 20.2194 14.216 20.3618C14.3664 20.5043 14.4416 20.6809 14.4416 20.8916C14.4416 21.1021 14.3655 21.2777 14.2133 21.4184C14.061 21.5592 13.8723 21.6296 13.6472 21.6296ZM19.3471 21.6296C19.1222 21.6296 18.9345 21.5584 18.784 21.416C18.6336 21.2735 18.5584 21.0969 18.5584 20.8862C18.5584 20.6757 18.6345 20.5001 18.7867 20.3593C18.939 20.2186 19.1277 20.1482 19.3528 20.1482C19.5778 20.1482 19.7655 20.2194 19.916 20.3618C20.0664 20.5043 20.1416 20.6809 20.1416 20.8916C20.1416 21.1021 20.0655 21.2777 19.9133 21.4184C19.761 21.5592 19.5723 21.6296 19.3471 21.6296ZM10.8238 20.4C10.7129 18.8296 11.2196 17.4815 12.3438 16.3556C13.4679 15.2296 14.8692 14.6667 16.5475 14.6667C17.9356 14.6667 19.1455 15.0901 20.1772 15.9371C21.2091 16.7839 21.8358 17.8493 22.0575 19.1333C20.6377 19.1185 19.338 18.7506 18.1585 18.0296C16.9789 17.3087 16.0683 16.3507 15.4267 15.1556C15.1764 16.3407 14.6435 17.3963 13.8281 18.3222C13.0127 19.2481 12.0113 19.9407 10.8238 20.4Z" fill="#3C5A94"/>
<defs>
<filter id="filter0_d_0_1" x="0" y="5" width="32" height="32" filterUnits="userSpaceOnUse" color-interpolation-filters="sRGB">
<feFlood flood-opacity="0" result="BackgroundImageFix"/>
<feColorMatrix in="SourceAlpha" type="matrix" values="0 0 0 0 0 0 0 0 0 0 0 0 0 0 0 0 0 0 127 0" result="hardAlpha"/>
<feOffset/>
<feGaussianBlur stdDeviation="1"/>
<feComposite in2="hardAlpha" operator="out"/>
<feColorMatrix type="matrix" values="0 0 0 0 0.235294 0 0 0 0 0.352941 0 0 0 0 0.580392 0 0 0 1 0"/>
<feBlend mode="normal" in2="BackgroundImageFix" result="effect1_dropShadow_0_1"/>
<feBlend mode="normal" in="SourceGraphic" in2="effect1_dropShadow_0_1" result="shape"/>
</filter>
</defs>
</svg>
