<svg version="1.1" viewBox="4.6512 4.65522041763341 195.22799999999998 82.2830626450116" xmlns:xlink="http://www.w3.org/1999/xlink" xmlns="http://www.w3.org/2000/svg" style="max-height: 500px" width="195.22799999999998" height="82.2830626450116">
<defs>
<linearGradient gradientTransform="matrix(0.377638,0,0,0.37917,0,0.0162903)" y2="141.4005" x2="215.9644" y1="141.4005" x1="121.1732" gradientUnits="userSpaceOnUse" id="linear0">
<stop style="stop-color:rgb(20.392157%,15.686275%,47.058824%);stop-opacity:1;" offset="0"/>
<stop style="stop-color:rgb(64.313725%,15.686275%,48.627451%);stop-opacity:1;" offset="1"/>
</linearGradient>
<linearGradient gradientTransform="matrix(0.377638,0,0,0.37917,0,0.0162903)" y2="133.5893" x2="298.9957" y1="133.5893" x1="117.8236" gradientUnits="userSpaceOnUse" id="linear1">
<stop style="stop-color:rgb(20.392157%,15.686275%,47.058824%);stop-opacity:1;" offset="0"/>
<stop style="stop-color:rgb(64.313725%,15.686275%,48.627451%);stop-opacity:1;" offset="1"/>
</linearGradient>
<linearGradient gradientTransform="matrix(0.377638,0,0,0.37917,0,0.0162903)" y2="119.4755" x2="527" y1="119.4755" x1="296.6696" gradientUnits="userSpaceOnUse" id="linear2">
<stop style="stop-color:rgb(20.392157%,15.686275%,47.058824%);stop-opacity:1;" offset="0"/>
<stop style="stop-color:rgb(64.313725%,15.686275%,48.627451%);stop-opacity:1;" offset="1"/>
</linearGradient>
<linearGradient gradientTransform="matrix(0.377638,0,0,0.37917,0,0.0162903)" y2="112.2861" x2="141.5926" y1="112.2861" x1="60.6717" gradientUnits="userSpaceOnUse" id="linear3">
<stop style="stop-color:rgb(20.392157%,15.686275%,47.058824%);stop-opacity:1;" offset="0"/>
<stop style="stop-color:rgb(64.313725%,15.686275%,48.627451%);stop-opacity:1;" offset="1"/>
</linearGradient>
</defs>
<g id="surface1">
<path d="M 81.417969 81.839844 C 81.457031 81.953125 81.496094 82.105469 81.570312 82.183594 C 81.496094 82.105469 81.457031 81.953125 81.417969 81.839844 Z M 45.882812 25.042969 C 45.84375 25.042969 45.808594 25.042969 45.769531 25.042969 C 45.808594 25.078125 45.84375 25.078125 45.882812 25.042969 C 45.882812 25.042969 46.035156 25.042969 46.335938 25.042969 C 46.070312 25.042969 45.882812 25.042969 45.882812 25.042969 Z M 45.882812 25.042969" style="stroke:none;fill-rule:nonzero;fill:url(#linear0);"/>
<path d="M 112.726562 40.703125 C 112.574219 40.511719 112.347656 40.285156 111.855469 40.246094 C 111.480469 40.207031 111.101562 40.285156 110.6875 40.511719 C 110.082031 40.816406 109.703125 41.269531 109.363281 41.648438 C 109.328125 41.726562 109.25 41.800781 109.210938 41.839844 C 109.023438 42.066406 108.835938 42.253906 108.644531 42.484375 C 108.15625 43.050781 107.664062 43.660156 107.136719 44.191406 C 106.796875 44.570312 106.417969 44.910156 106.039062 45.25 C 105.890625 45.402344 105.738281 45.515625 105.585938 45.667969 C 104.53125 46.652344 103.398438 47.488281 102.1875 48.207031 C 101.207031 48.777344 100.074219 49.234375 98.601562 49.6875 C 98.035156 49.839844 97.582031 49.726562 97.128906 49.269531 C 96.714844 48.851562 96.488281 48.285156 96.449219 47.527344 C 96.410156 46.84375 96.523438 46.160156 96.902344 45.328125 C 97.28125 44.417969 97.847656 43.582031 98.601562 42.75 C 99.28125 41.992188 99.808594 41.230469 100.226562 40.359375 C 100.300781 40.246094 100.300781 40.09375 100.339844 40.019531 L 100.488281 39.449219 L 100.035156 39.148438 C 99.546875 38.84375 99.015625 38.804688 98.527344 39.148438 L 98.449219 39.183594 C 98.261719 39.296875 98.074219 39.410156 97.882812 39.5625 C 97.542969 39.867188 97.203125 40.171875 96.863281 40.472656 C 96.335938 40.964844 95.769531 41.460938 95.203125 41.953125 C 94.183594 42.824219 93.085938 43.734375 91.992188 44.570312 C 90.746094 45.480469 89.460938 46.390625 88.179688 47.261719 L 88.101562 47.335938 C 86.515625 48.398438 85.269531 49.117188 83.988281 49.648438 C 83.382812 49.914062 82.890625 50.066406 82.402344 50.066406 C 82.289062 50.066406 82.175781 50.066406 82.0625 50.027344 C 81.496094 49.914062 81.304688 49.613281 81.191406 49.382812 C 81.042969 49.042969 80.964844 48.664062 80.964844 48.285156 C 80.964844 47.679688 81.042969 47.035156 81.269531 46.273438 C 81.382812 45.894531 81.53125 45.480469 81.722656 45.0625 C 81.796875 44.910156 81.835938 44.796875 81.871094 44.644531 L 81.949219 44.453125 C 82.136719 44 82.324219 43.507812 82.289062 42.902344 C 82.25 42.253906 81.757812 41.761719 81.15625 41.6875 C 81.191406 41.648438 81.191406 41.609375 81.230469 41.535156 C 81.609375 40.851562 81.683594 40.054688 81.53125 39.148438 C 81.382812 38.238281 80.589844 37.515625 79.644531 37.441406 C 78.699219 37.363281 77.71875 37.476562 76.546875 37.820312 C 75 38.273438 73.640625 39.070312 72.621094 39.714844 C 71.902344 40.171875 71.222656 40.703125 70.542969 41.195312 L 70.355469 41.347656 C 69.335938 42.140625 68.351562 43.089844 67.21875 44.492188 C 67.144531 44.570312 67.105469 44.644531 67.070312 44.71875 C 67.03125 44.757812 66.992188 44.835938 66.957031 44.835938 C 66.199219 45.480469 65.597656 45.972656 64.914062 46.503906 C 64.574219 46.769531 64.234375 46.996094 63.894531 47.222656 C 63.78125 47.296875 63.632812 47.375 63.519531 47.488281 C 62.648438 48.09375 61.707031 48.550781 60.6875 48.851562 C 59.816406 49.117188 58.875 49.308594 57.929688 49.496094 C 57.363281 49.613281 56.910156 49.574219 56.496094 49.347656 C 56.230469 49.234375 56.078125 49.082031 56.003906 48.777344 C 55.890625 48.359375 55.929688 47.945312 56.042969 47.449219 C 56.382812 46.007812 56.871094 44.683594 57.550781 43.46875 C 58.15625 42.40625 58.835938 41.347656 59.703125 40.207031 C 60.234375 39.488281 60.914062 38.652344 61.59375 37.78125 C 62.535156 36.605469 63.40625 35.542969 64.273438 34.519531 C 65.21875 33.382812 66.011719 32.472656 66.730469 31.640625 C 67.21875 31.070312 67.75 30.464844 68.277344 29.933594 C 68.503906 29.707031 68.691406 29.476562 68.917969 29.210938 C 69.070312 29.0625 69.222656 28.871094 69.371094 28.71875 C 69.710938 28.339844 70.050781 28 70.355469 27.621094 C 71.070312 27.65625 71.789062 27.65625 72.316406 27.65625 C 72.621094 27.65625 72.921875 27.65625 73.261719 27.65625 C 73.5625 27.65625 73.867188 27.65625 74.167969 27.65625 C 74.921875 27.65625 75.828125 27.65625 76.699219 27.695312 C 77.378906 27.734375 78.09375 27.734375 79 27.734375 C 79.605469 27.734375 84.96875 27.621094 85.722656 27.507812 C 86.214844 27.429688 86.78125 27.355469 87.234375 26.976562 C 87.535156 26.710938 87.726562 26.40625 87.726562 26.066406 C 87.726562 25.722656 87.535156 25.382812 87.234375 25.15625 C 87.046875 25.003906 86.855469 24.890625 86.59375 24.8125 C 85.835938 24.511719 85.042969 24.472656 84.363281 24.472656 L 84.289062 24.472656 C 82.550781 24.398438 80.777344 24.398438 79.078125 24.359375 L 77.945312 24.359375 C 77.074219 24.359375 76.207031 24.320312 75.339844 24.320312 C 74.695312 24.320312 74.015625 24.320312 73.375 24.28125 C 73.414062 24.246094 73.414062 24.246094 73.449219 24.207031 L 73.640625 24.019531 C 73.789062 23.828125 73.980469 23.636719 74.128906 23.488281 C 74.507812 23.070312 74.886719 22.652344 75.261719 22.234375 C 75.867188 21.554688 76.320312 20.984375 76.734375 20.453125 C 77.039062 20.074219 77.152344 19.621094 77.1875 19.355469 C 77.265625 18.9375 77.152344 18.59375 76.925781 18.292969 C 76.621094 17.949219 76.132812 17.800781 75.601562 17.914062 C 74.886719 18.066406 74.242188 18.480469 73.601562 19.125 C 73.035156 19.695312 72.507812 20.339844 71.976562 20.910156 L 71.488281 21.4375 C 70.695312 22.347656 69.902344 23.222656 69.109375 24.132812 C 68.351562 24.09375 67.484375 24.054688 66.617188 24.019531 L 66.125 24.019531 C 64.914062 23.980469 63.707031 23.941406 62.460938 23.941406 L 62.347656 23.941406 C 58.195312 23.941406 54.984375 23.980469 52 24.019531 C 50.339844 24.019531 47.203125 24.09375 46.261719 24.09375 L 45.996094 24.09375 C 45.242188 24.09375 44.597656 24.777344 44.597656 25.609375 C 44.597656 26.253906 44.976562 26.824219 45.503906 27.050781 C 45.695312 27.164062 45.882812 27.203125 45.996094 27.203125 C 46.070312 27.203125 46.148438 27.242188 46.222656 27.277344 C 46.449219 27.316406 46.675781 27.390625 46.941406 27.390625 L 47.128906 27.390625 C 49.46875 27.429688 51.925781 27.46875 54.304688 27.507812 C 57.324219 27.507812 60.382812 27.507812 63.441406 27.542969 L 66.164062 27.542969 C 64.992188 28.871094 63.820312 30.199219 62.6875 31.523438 L 61.78125 32.550781 C 60.988281 33.460938 60.195312 34.367188 59.402344 35.277344 C 58.609375 36.226562 57.816406 37.175781 57.097656 38.121094 C 55.929688 39.714844 54.71875 41.460938 53.777344 43.355469 C 53.285156 44.339844 52.757812 45.402344 52.417969 46.578125 C 52.152344 47.488281 52.039062 48.4375 52.078125 49.347656 C 52.113281 50.140625 52.378906 50.824219 52.792969 51.355469 C 53.664062 52.457031 54.871094 53.0625 56.304688 53.101562 C 57.25 53.136719 58.195312 52.949219 59.289062 52.570312 C 60.496094 52.152344 61.628906 51.621094 62.648438 50.976562 C 62.875 50.863281 63.066406 50.710938 63.292969 50.597656 C 63.933594 50.21875 64.574219 49.839844 65.179688 49.421875 C 65.21875 49.914062 65.367188 50.371094 65.671875 50.789062 C 66.125 51.46875 66.804688 51.886719 67.75 52.078125 C 68.769531 52.265625 69.863281 52.191406 70.957031 51.886719 C 72.46875 51.433594 73.828125 50.636719 74.808594 49.953125 C 75.414062 49.535156 76.019531 49.082031 76.621094 48.589844 C 76.546875 49.269531 76.585938 49.839844 76.734375 50.40625 C 77.074219 51.621094 77.832031 52.492188 78.964844 52.984375 C 80.019531 53.441406 81.15625 53.515625 82.515625 53.214844 C 84.023438 52.871094 85.460938 52.265625 86.855469 51.355469 C 88.441406 50.332031 89.992188 49.195312 91.464844 48.058594 L 91.613281 47.945312 C 92.144531 47.527344 92.671875 47.148438 93.164062 46.730469 C 93.164062 46.804688 93.125 46.882812 93.125 46.957031 C 92.9375 47.828125 92.710938 48.890625 92.9375 49.992188 C 93.199219 51.355469 93.878906 52.113281 95.203125 52.492188 C 96.335938 52.796875 97.582031 52.796875 98.980469 52.457031 C 99.582031 52.304688 100.1875 52.113281 100.792969 51.847656 C 100.601562 52.078125 100.414062 52.304688 100.226562 52.492188 C 99.28125 53.632812 98.300781 54.769531 97.355469 55.90625 L 96.523438 56.890625 C 96.183594 57.308594 95.84375 57.6875 95.503906 58.105469 C 94.902344 58.824219 94.257812 59.546875 93.652344 60.304688 C 92.519531 61.667969 91.3125 63.109375 90.105469 64.589844 C 88.707031 66.296875 87.234375 68.113281 85.460938 70.351562 C 85.082031 70.808594 84.742188 71.261719 84.402344 71.71875 C 84.0625 72.132812 83.761719 72.550781 83.421875 72.96875 C 82.742188 73.804688 82.136719 74.710938 81.644531 75.621094 C 80.851562 77.0625 80.476562 78.429688 80.589844 79.792969 C 80.589844 79.945312 80.625 80.136719 80.625 80.285156 C 80.664062 80.550781 80.664062 80.78125 80.664062 81.042969 C 80.703125 81.574219 80.777344 82.257812 81.457031 82.828125 L 81.570312 83.09375 L 82.96875 83.09375 L 83.195312 82.980469 C 83.230469 82.941406 83.269531 82.980469 83.269531 82.941406 L 83.308594 82.941406 C 84.402344 82.21875 84.96875 81.273438 84.96875 80.136719 C 84.96875 80.019531 84.96875 79.871094 84.96875 79.753906 C 84.96875 79.453125 84.96875 79.1875 84.96875 78.882812 C 85.007812 78.503906 85.007812 78.050781 85.082031 77.59375 C 85.234375 76.570312 85.6875 75.585938 86.441406 74.371094 C 86.933594 73.613281 87.5 72.816406 88.140625 71.90625 C 88.972656 70.769531 89.839844 69.667969 90.671875 68.570312 L 90.933594 68.230469 C 91.238281 67.851562 91.5 67.507812 91.804688 67.128906 L 95.203125 62.808594 C 95.503906 62.425781 95.808594 62.046875 96.070312 61.707031 C 96.75 60.835938 97.429688 59.964844 98.148438 59.128906 C 99.320312 57.726562 100.566406 56.285156 101.734375 54.921875 C 102.414062 54.125 103.171875 53.289062 103.851562 52.53125 L 104.453125 51.847656 C 105.4375 50.75 106.417969 49.648438 107.398438 48.550781 C 107.738281 48.171875 108.078125 47.792969 108.417969 47.414062 C 108.871094 46.882812 109.363281 46.390625 109.816406 45.859375 C 110.007812 45.628906 110.195312 45.402344 110.382812 45.214844 C 110.574219 44.949219 110.800781 44.71875 110.988281 44.492188 C 111.554688 43.886719 112.121094 43.203125 112.613281 42.445312 C 112.800781 42.140625 112.914062 41.800781 113.027344 41.421875 C 112.988281 41.15625 112.839844 40.851562 112.726562 40.703125 Z M 78.511719 43.808594 C 77.832031 44.644531 77.074219 45.402344 76.09375 46.160156 C 74.734375 47.261719 73.109375 47.980469 71.148438 48.324219 C 70.882812 48.359375 70.542969 48.359375 70.128906 48.324219 C 69.902344 48.285156 69.75 48.207031 69.636719 48.09375 C 69.523438 47.945312 69.523438 47.753906 69.5625 47.527344 C 69.902344 46.007812 70.730469 44.644531 72.167969 43.242188 C 72.394531 43.015625 72.695312 42.785156 72.960938 42.558594 C 73.109375 42.445312 73.261719 42.332031 73.414062 42.21875 C 74.46875 41.347656 75.792969 40.851562 77.527344 40.625 C 77.566406 40.625 77.566406 40.625 77.566406 40.625 C 77.640625 40.703125 77.71875 40.851562 77.832031 40.964844 L 77.90625 41.117188 C 77.945312 41.195312 78.019531 41.269531 78.058594 41.347656 C 78.171875 41.535156 78.285156 41.761719 78.472656 41.953125 C 78.738281 42.253906 79.113281 42.445312 79.53125 42.519531 C 79.191406 42.9375 78.851562 43.355469 78.511719 43.808594 Z M 78.511719 43.808594" style="stroke:none;fill-rule:nonzero;fill:url(#linear1);"/>
<path d="M 198.109375 39.03125 C 198.070312 39.03125 198.070312 39.03125 198.035156 39.03125 C 197.882812 39.03125 197.695312 39.070312 197.503906 39.183594 C 197.203125 39.335938 196.902344 39.527344 196.558594 39.753906 C 195.765625 40.285156 195.050781 40.929688 194.371094 41.535156 L 194.066406 41.800781 C 193.464844 42.332031 192.785156 42.902344 192.105469 43.429688 C 191.3125 44.039062 190.519531 44.644531 189.726562 45.214844 L 189.273438 45.554688 C 189.082031 45.667969 188.933594 45.820312 188.742188 45.933594 C 188.214844 46.351562 187.6875 46.730469 187.15625 47.070312 C 186.894531 47.222656 186.628906 47.414062 186.363281 47.601562 C 185.496094 48.171875 184.664062 48.703125 183.757812 49.15625 L 183.496094 49.269531 C 182.703125 49.648438 181.945312 50.027344 181.152344 50.105469 C 180.773438 50.140625 180.433594 50.066406 180.132812 49.839844 C 179.832031 49.613281 179.640625 49.234375 179.605469 48.589844 C 179.527344 47.828125 179.640625 47.035156 179.980469 46.125 C 180.132812 45.707031 180.285156 45.289062 180.472656 44.871094 L 180.660156 44.453125 C 180.8125 44.074219 181 43.507812 180.925781 42.824219 C 180.851562 42.179688 180.433594 41.800781 179.832031 41.761719 C 180.058594 41.421875 180.246094 41.003906 180.320312 40.472656 C 180.433594 39.640625 180.246094 38.617188 179.753906 38.046875 C 179.453125 37.707031 178.925781 37.0625 177.980469 37.0625 L 177.90625 37.0625 C 177.375 37.0625 176.921875 37.363281 176.46875 37.441406 C 175.5625 37.59375 174.65625 37.972656 173.75 38.386719 C 172.503906 38.957031 171.410156 39.640625 170.390625 40.359375 C 168.199219 41.914062 166.613281 43.507812 165.441406 45.25 C 165.40625 45.289062 165.367188 45.328125 165.328125 45.363281 C 165.027344 45.59375 164.6875 45.820312 164.347656 46.046875 C 163.742188 46.464844 163.101562 46.917969 162.496094 47.375 L 162.421875 47.414062 C 161.929688 47.792969 161.476562 48.132812 160.949219 48.359375 C 159.742188 48.96875 158.609375 49.15625 157.511719 48.96875 C 156.871094 48.851562 156.417969 48.511719 156.191406 47.867188 C 155.964844 47.296875 155.964844 46.617188 156.152344 45.667969 C 156.378906 44.71875 156.910156 43.773438 157.816406 42.785156 C 157.890625 42.671875 158.003906 42.597656 158.117188 42.484375 C 158.230469 42.371094 158.382812 42.21875 158.496094 42.105469 C 158.871094 41.6875 159.210938 41.230469 159.402344 40.625 C 159.515625 40.207031 159.476562 39.792969 159.25 39.449219 C 159.023438 39.148438 158.683594 38.917969 158.269531 38.882812 C 158.042969 38.84375 157.777344 38.882812 157.511719 38.917969 C 156.492188 39.109375 155.625 39.601562 154.792969 40.054688 C 154.113281 40.4375 153.433594 40.851562 152.792969 41.269531 C 152.488281 41.460938 152.1875 41.648438 151.847656 41.839844 C 151.46875 42.066406 151.09375 42.292969 150.714844 42.519531 C 150.035156 42.9375 149.355469 43.355469 148.675781 43.773438 C 148.148438 44.113281 147.65625 44.417969 147.128906 44.757812 C 146.976562 44.835938 146.824219 44.949219 146.710938 45.023438 C 146.789062 44.835938 146.902344 44.683594 146.976562 44.53125 C 147.503906 43.621094 148.035156 42.710938 148.410156 41.6875 C 148.601562 41.230469 148.636719 40.703125 148.601562 40.171875 C 148.5625 39.5625 148.183594 39.109375 147.65625 38.917969 C 146.9375 38.652344 146.335938 38.765625 145.804688 39.183594 C 145.769531 39.222656 145.730469 39.222656 145.691406 39.261719 C 145.617188 39.296875 145.578125 39.335938 145.542969 39.375 C 145.316406 39.5625 145.050781 39.714844 144.824219 39.90625 C 144.257812 40.320312 143.691406 40.703125 143.164062 41.195312 C 141.878906 42.332031 140.480469 43.507812 139.046875 44.605469 C 137.988281 45.402344 136.855469 46.199219 135.761719 46.917969 L 135.15625 47.335938 C 134.210938 47.980469 133.117188 48.703125 131.910156 49.269531 L 131.757812 49.347656 C 131.003906 49.726562 130.285156 50.066406 129.492188 50.140625 C 128.8125 50.21875 128.246094 49.878906 128.058594 49.269531 C 127.90625 48.816406 127.867188 48.324219 127.945312 47.792969 C 128.019531 46.996094 128.171875 46.425781 128.359375 45.933594 C 128.433594 45.746094 128.511719 45.554688 128.585938 45.363281 C 128.699219 45.0625 128.851562 44.757812 128.925781 44.453125 C 129.039062 44.113281 129.191406 43.695312 129.226562 43.242188 C 129.265625 42.824219 129.152344 42.445312 128.886719 42.140625 C 128.660156 41.914062 128.398438 41.761719 128.058594 41.761719 C 128.09375 41.726562 128.09375 41.6875 128.132812 41.648438 C 128.546875 40.929688 128.660156 40.171875 128.472656 39.335938 C 128.285156 38.386719 127.640625 37.742188 126.734375 37.59375 C 126.167969 37.476562 125.566406 37.476562 125 37.59375 C 124.242188 37.742188 123.222656 37.972656 122.203125 38.386719 C 121.144531 38.84375 120.125 39.375 119.257812 39.980469 C 117.519531 41.15625 116.125 42.332031 114.992188 43.582031 C 113.667969 45.097656 112.800781 46.464844 112.308594 47.980469 C 112.082031 48.703125 112.007812 49.421875 112.195312 50.105469 C 112.460938 51.316406 113.292969 52.039062 114.6875 52.304688 C 116.046875 52.570312 117.445312 52.378906 118.992188 51.695312 C 119.976562 51.28125 120.917969 50.75 121.902344 50.066406 C 122.503906 49.648438 123.070312 49.195312 123.5625 48.777344 C 123.523438 49.234375 123.523438 49.648438 123.5625 50.066406 C 123.636719 50.902344 123.980469 51.621094 124.546875 52.265625 C 125.261719 53.0625 126.28125 53.515625 127.566406 53.59375 C 127.679688 53.59375 127.792969 53.59375 127.90625 53.59375 C 128.585938 53.59375 129.265625 53.441406 129.757812 53.328125 C 130.777344 53.101562 131.832031 52.683594 132.816406 52.113281 C 133.496094 51.695312 134.210938 51.28125 134.96875 50.75 C 136.0625 49.992188 137.195312 49.195312 138.289062 48.359375 C 138.820312 47.945312 139.347656 47.527344 139.878906 47.109375 C 140.066406 46.957031 140.253906 46.804688 140.445312 46.652344 L 140.820312 46.351562 L 141.765625 45.59375 C 141.613281 45.859375 141.464844 46.125 141.3125 46.390625 C 140.820312 47.261719 140.253906 48.285156 139.5 49.195312 C 139.007812 49.800781 138.859375 50.484375 138.707031 51.167969 C 138.667969 51.433594 138.667969 51.546875 138.707031 51.734375 C 138.859375 52.417969 139.3125 52.605469 139.992188 52.605469 L 140.027344 52.605469 C 140.558594 52.605469 140.972656 52.53125 141.273438 52.304688 C 142.597656 51.433594 143.652344 50.789062 144.597656 50.105469 C 145.125 49.726562 145.65625 49.382812 146.183594 49.003906 C 146.5625 48.738281 146.9375 48.472656 147.277344 48.207031 C 148.488281 47.335938 149.695312 46.503906 150.902344 45.628906 C 151.320312 45.328125 151.773438 45.0625 152.261719 44.871094 L 152.261719 44.984375 C 152.226562 45.628906 152.148438 46.273438 152.148438 46.957031 L 152.148438 47.070312 C 152.113281 48.058594 152.074219 49.042969 152.453125 50.105469 C 152.640625 50.636719 152.867188 51.242188 153.398438 51.734375 C 154.078125 52.378906 154.90625 52.683594 156.003906 52.683594 C 156.078125 52.683594 156.152344 52.683594 156.265625 52.683594 C 156.832031 52.644531 157.398438 52.53125 157.964844 52.417969 C 158.910156 52.191406 159.816406 51.847656 160.796875 51.355469 C 161.96875 50.75 162.949219 50.179688 163.820312 49.574219 C 163.820312 49.613281 163.820312 49.648438 163.820312 49.6875 C 163.820312 49.992188 163.894531 50.292969 164.007812 50.558594 C 164.386719 51.546875 165.179688 52.152344 166.386719 52.378906 C 167.40625 52.570312 168.503906 52.492188 169.558594 52.191406 C 170.84375 51.8125 172.128906 51.167969 173.5625 50.140625 C 174.128906 49.761719 174.695312 49.308594 175.222656 48.890625 C 175.148438 49.347656 175.148438 49.839844 175.261719 50.332031 C 175.527344 51.8125 176.433594 52.871094 177.867188 53.402344 C 178.699219 53.707031 179.566406 53.78125 180.660156 53.59375 C 181.90625 53.402344 183.15625 52.949219 184.515625 52.226562 C 185.875 51.507812 187.121094 50.558594 188.328125 49.6875 L 188.480469 49.574219 C 189.988281 48.4375 191.386719 47.375 192.707031 46.273438 L 193.046875 45.972656 C 193.386719 45.707031 193.726562 45.402344 194.066406 45.136719 L 194.710938 44.605469 C 195.425781 44 196.144531 43.355469 196.863281 42.710938 C 197.277344 42.332031 197.695312 41.875 198.070312 41.496094 C 198.222656 41.308594 198.410156 41.15625 198.5625 40.964844 C 198.636719 40.890625 198.714844 40.816406 198.75 40.738281 L 199.054688 40.4375 L 199.054688 38.996094 Z M 126.167969 42.902344 C 126.132812 42.976562 126.054688 43.050781 126.019531 43.128906 C 125 44.378906 124.015625 45.402344 122.996094 46.199219 C 122.355469 46.691406 121.824219 47.070312 121.222656 47.296875 C 121.03125 47.375 120.84375 47.449219 120.617188 47.527344 C 120.089844 47.753906 119.597656 47.945312 119.070312 48.09375 C 118.425781 48.285156 117.824219 48.359375 117.179688 48.324219 C 116.953125 48.285156 116.691406 48.246094 116.578125 48.058594 C 116.464844 47.90625 116.464844 47.714844 116.539062 47.488281 C 116.839844 46.351562 117.371094 45.328125 118.164062 44.339844 C 118.765625 43.582031 119.484375 42.902344 120.464844 42.179688 C 121.257812 41.609375 121.863281 41.230469 122.582031 41.082031 C 122.84375 41.003906 123.109375 40.964844 123.410156 40.890625 C 123.75 40.816406 124.054688 40.738281 124.394531 40.664062 C 124.433594 40.664062 124.46875 40.664062 124.507812 40.664062 C 124.546875 40.664062 124.582031 40.664062 124.660156 40.777344 C 124.734375 40.851562 124.773438 40.929688 124.808594 41.003906 L 124.921875 41.195312 C 124.960938 41.269531 125 41.347656 125.035156 41.382812 C 125.148438 41.574219 125.300781 41.800781 125.488281 42.027344 C 125.753906 42.332031 126.09375 42.484375 126.472656 42.558594 C 126.359375 42.636719 126.28125 42.785156 126.167969 42.902344 Z M 177.90625 42.902344 C 177.828125 42.976562 177.792969 43.089844 177.714844 43.164062 C 176.621094 44.53125 175.601562 45.554688 174.507812 46.351562 L 174.429688 46.425781 C 174.089844 46.691406 173.75 46.917969 173.375 47.109375 C 172.503906 47.5625 171.789062 47.867188 171.03125 48.058594 C 170.125 48.324219 169.484375 48.398438 168.878906 48.359375 C 168.691406 48.324219 168.503906 48.285156 168.351562 48.171875 C 168.085938 48.019531 168.164062 47.640625 168.199219 47.488281 C 168.578125 46.160156 169.257812 44.949219 170.277344 43.808594 C 170.84375 43.203125 171.449219 42.671875 172.203125 42.140625 C 172.695312 41.800781 173.222656 41.460938 173.789062 41.230469 C 174.542969 40.929688 175.335938 40.777344 176.054688 40.703125 C 176.054688 40.703125 176.09375 40.703125 176.09375 40.703125 C 176.128906 40.703125 176.167969 40.703125 176.242188 40.777344 C 176.394531 40.929688 176.507812 41.117188 176.621094 41.382812 L 176.660156 41.421875 C 176.886719 41.875 177.148438 42.179688 177.527344 42.40625 C 177.714844 42.519531 177.941406 42.597656 178.132812 42.636719 C 178.054688 42.636719 177.980469 42.785156 177.90625 42.902344 Z M 177.90625 42.902344" style="stroke:none;fill-rule:nonzero;fill:url(#linear2);"/>
<path d="M 43.804688 58.675781 C 41.277344 57.914062 38.59375 57.421875 36.214844 56.285156 C 28.8125 52.722656 24.925781 46.425781 23.414062 38.539062 C 22.660156 34.558594 22.734375 30.578125 23.488281 26.519531 C 24.546875 26.519531 25.566406 26.519531 26.851562 26.519531 C 26.738281 27.695312 26.585938 28.832031 26.511719 29.972656 C 26.171875 35.921875 26.320312 41.800781 29.191406 47.222656 C 32.210938 52.984375 37.199219 56.09375 43.429688 57.121094 C 46.863281 57.6875 50.375 57.726562 53.4375 57.953125 C 52.792969 58.105469 51.660156 58.410156 50.566406 58.675781 C 48.335938 58.675781 46.070312 58.675781 43.804688 58.675781 Z M 43.804688 58.675781" style="stroke:none;fill-rule:nonzero;fill:url(#linear3);"/>
<path d="M 4.984375 4.679688 C 8.460938 6.539062 11.894531 7.257812 15.519531 7.070312 C 21.601562 6.765625 27.644531 6.195312 33.722656 6.082031 C 37.765625 6.007812 41.878906 6.195312 45.84375 6.804688 C 49.847656 7.410156 51.773438 9.949219 51.8125 14.046875 C 51.8125 16.28125 51.320312 18.519531 51.058594 20.757812 C 50.867188 20.757812 50.640625 20.71875 50.453125 20.71875 C 50.300781 19.734375 50.148438 18.710938 49.960938 17.722656 C 49.207031 13.550781 46.183594 11.277344 41.691406 11.351562 C 36.820312 11.429688 31.949219 11.921875 27.113281 12.492188 C 22.582031 13.023438 18.164062 13.097656 13.558594 11.238281 C 18.351562 17.34375 24.660156 18.9375 31.683594 18.976562 C 18.203125 21.324219 8.609375 15.636719 4.984375 4.679688 Z M 4.984375 4.679688" style="stroke:none;fill-rule:nonzero;fill:rgb(20.392157%,15.686275%,47.058824%);fill-opacity:1;"/>
<path d="M 55.25 57.121094 C 53.097656 57.121094 50.941406 57.195312 48.789062 57.082031 C 44.636719 56.855469 40.632812 55.980469 37.007812 53.78125 C 32.289062 50.902344 29.644531 46.503906 28.398438 41.269531 C 27.191406 36.1875 27.265625 31.03125 28.246094 25.6875 C 20.542969 25.421875 13.445312 23.828125 8.949219 16.585938 C 16.691406 21.289062 25.152344 22.007812 33.609375 21.363281 C 33.609375 25.269531 33.457031 29.097656 33.648438 32.890625 C 33.949219 38.578125 35.121094 44.074219 38.632812 48.777344 C 42.257812 53.632812 47.316406 55.714844 53.132812 56.359375 C 53.851562 56.4375 54.570312 56.4375 55.25 56.476562 C 55.25 56.703125 55.25 56.929688 55.25 57.121094 Z M 55.25 57.121094" style="stroke:none;fill-rule:nonzero;fill:rgb(64.313725%,15.686275%,48.627451%);fill-opacity:1;"/>
</g>
</svg>